<svg id="Layer_1" data-name="Layer 1" xmlns="http://www.w3.org/2000/svg" viewBox="0 0 840.06 731.97"><path d="M652.31,596.79c4.75,16.1,1.72,34.88-9.16,48.12-7,8.55-23.75,16.2-33.14,7.3-4.19-4-6-17.62-7.76-24-1.65-5.84-4.41-16.67-3.18-21.58,1.78-7.15,16-5.5,22.69-6.13C632,599.56,642.14,598.1,652.31,596.79ZM786.8,605c2.24,4.93,5.81,8.19,7.33,13.66a67.42,67.42,0,0,1,2,10.81c.48,4.44.8,4.27-2.26,6.34-4.67,3.17-16.62,2.92-22.31,3.84-7.42,1.2-14.8,2.61-22.23,3.81,1.8-6.91.86-14.35,2.72-21.4a53,53,0,0,1,9.4-19.23c3.3-4.19,8.11-9.2,14-9.23C783.15,593.54,784.36,599.6,786.8,605Zm-471.12-148c1.14,14.81-1,30.59-9.4,43.32-3.57,5.39-8.76,8.29-13,12.93-4.88,5.37-7.53,12-15.24,14.31-5,1.49-10.81.46-16,1.13-8.58,1.11-11.12-.09-18.36-4.54-5.2-3.19-11.2-2.59-16.68-6.09-6.58-4.2-12.3-10.19-18.53-14.94C243.46,485.91,279.49,471.33,315.68,456.92Zm94,8.79c13.38,6.29,20.46,17,24.28,30.89C397,505,361.1,515.35,324.85,527c10.13-25.75,21.49-49.32,49.18-61.3,5.52-2.39,11.2-6.19,17.49-6.1S404.15,463.12,409.64,465.71Zm336.58,38.16c19,10,9.35,42,2.71,56.2-8.46-6.22-17.33-12.28-25.58-18.33-9-6.63-17.15-15.15-25.38-22.69,4.36-2.28,7.19-5.89,11.24-8.49s8-2.76,12.49-3.76C730.31,504.87,737.28,499.16,746.22,503.87ZM597.81,431.79c1.52,1.95,3.34,3.78,4.77,5.78,3.47,4.86,6.48,9.81,10.5,14.31,7.14,8,17.53,18.52,29.22,19.25l.34,3.41c-3.45-.09-5.49-3.06-8.48-3.36-2.35-.24-5.64,1.56-8.52,1.3a232.2,232.2,0,0,0-26.68-1c-17.84.47-35.38,3.32-52.91,5.59,3.35-11.94,9.6-24.17,19.56-32.16,3.45-2.76,6.75-6.56,10.63-8.76,2.34-1.33,4.82-1.43,7.23-2.46,2.79-1.2,6.37-5.2,9.25-5.58S595.74,429.13,597.81,431.79Zm143,1.09c9.35,7.51,16.54,17,24.24,26.06,7,8.17,16.4,19.82,18.88,30.33-12.35,5.81-33.54.49-41.51-10.25C732.56,465.76,737.38,447.31,740.77,432.88ZM526.56,390.05c-1.85,12.45-7.83,26.33-16.82,35.63-3.87,4-7.27,9.24-11.67,12.75-5.75,4.58-10.38,2.24-17.05,2.95-7.17.76-11.81,5.43-19.45,4.16-5.44-.9-10.45-3.91-15.56-4.83-5.58-1-10.46-.4-16-3.17-6.87-3.42-12.35-10.14-17.69-15.25,2.81-2.23,8.49-2.39,12.09-3.59,4.75-1.59,9.49-3.17,14.27-4.69,9.86-3.14,19.7-6.36,29.58-9.45C487.08,398.67,507,393.08,526.56,390.05Z" transform="translate(0 0)" fill-rule="evenodd"/><path d="M821.92,82.49l-.61,4.13C827.32,87.66,827.5,84,821.92,82.49Zm-26.15-7.12c-3.23-1.12-8.5.53-6,4.37C793.38,85.18,795,78.08,795.77,75.37ZM535.87,225.88c.48-.49-5.23-11.4-6-13.23-3.69,2.1-3.94,1.59-2.44,5.11C528.77,220.8,533.28,223.88,535.87,225.88Zm-336.8,3c-1.76-.15-5.27-1.2-6.76-.59-2.09.86-1.53,2.84-1.78,5.73C196.64,233.73,197.49,234.54,199.07,228.87Zm-7.92-6,8.95,1.61c.64-3.42,2.33-9.08-4-7C195.54,217.67,191.9,221.77,191.15,222.88Zm351.78,7c-3.18,3.16,11.56,9.84,13.09,7.7C559.33,232.94,545.07,230.61,542.93,229.91Zm72.92-37.3,5.35-.52c-.62-2.61-2.49-12.19-6.39-11.68S615.3,190.58,615.85,192.61Zm6.51,15.65c0-2.16.93-6.95.09-9-.58-1.41-2.94-5.71-6.34-2.92-.72.6-1.05,9.25-.83,9.53C616.2,207,621,207.81,622.36,208.26ZM603.92,236c-3.66-2.8-11.61-6.93-15.14-.6C583.87,244.23,600.75,238.33,603.92,236Zm-20.92.73a56.9,56.9,0,0,1-14.52.44c-5.45-.38-6.75-2-8.33,3.18,5.84,2.12,18.29,3.59,24.21,1.57C583.91,240.2,583.45,238.47,583,236.74Zm30.31-24c-1.68,3.45-5.32,8-6.31,11.56-.72,2.66-1,1.33-.4,3.39.22.73,3.18,3.81,3.7,4.55,3.59-2.72,7.92-5.5,9.76-9.69C623,215.88,619.22,215.34,613.31,212.78Zm-81.75-14.12c-12.22,3.8-27.23,7.53-40.16,6.4-.17,1.1,21.93,7.55,24.58,7.08s2.91-4.24,6.15-6.25c3.57-2.21,6.51-.89,10.46-1.24C532.25,202.65,531.9,200.66,531.56,198.66Zm40.23,51.21a77.1,77.1,0,0,1-31.25-8.52c-5.71-2.94-9.82-7.2-13.64-12.12-3-3.81-2.35-3.5-7-4.79-3.43-.95-7.65-.57-11.17-1-11.8-1.48-23.56-5.06-34.78-8.78-12.6-4.18-23.44-10.07-37.28-9.72-23.75.59-43,18.56-67.79,11-9.83-3-20-7-28-13.39-10.34-8.35-16.62-13.3-31.19-10.34C298,194.59,289,200.81,279,206.54c-11.46,6.53-24,10.44-36.73,13.89a68.77,68.77,0,0,1-14.88,2.4c-3.12.15-17.9-2.1-19.73-.51s-2.57,12.14-2.38,14.07c.32,3.23-1.11,3.56,2.34,4.92,2.4.94,9.79,0,12.76.33,23.88,2.73,48.35,3.54,71.84,7.66,22.09,3.86,44.25,7,66.09,11.53,28.41,5.9,57.34,8.59,85.76,14.31,13.74,2.76,27.59,6.65,41.17,9.59,12.36,2.68,24.78,5.16,37.22,7.59-.46-1.71-3-7.94,1.08-7.36,2.62.36,7,9.39,8.38,11.42a117.58,117.58,0,0,0,21.74,23.89q13,11.25,26.3,22.28c7.21,6,22.71,15,22.31,25.48-4.39.84-13.12-6.94-16.41-9-6.66-4.27-13-8.93-19.25-13.78-5.84,8.54,8,18.45,9.58,26.53-3.56,0-9.51-9.78-11.67-12.38-5.74,5.35-12.18,10.07-16.31,16.79,46.31-2,53.9,55.46,87.32,74.92a35.56,35.56,0,0,0,25.16,4.2c8.82-2,17.29-4.75,25.05-9.74,17.33-11.12,30-32.52,36.82-50.89,3.74-10.15,7.27-20,9-30.65,1.87-11.83.11-23.84-1.42-35.63-2.72-21-13.87-42.18-29.68-57.19-7.08-6.73-14.82-12.62-21.3-20-2.26-2.56-7.43-12.38-10.27-13-5.23-1.13-7.93,6.21-11.56.2s3.22-8.18,7.34-10.92c4.44-3,8.75-6.07,13.1-9.16,8.58-6.11,17.08-12.11,25.33-18.62,40.2-31.71,75.75-67.06,111.75-103.1-6.74-1.6-16.32-6.18-23.18-5s-13,6.08-20.18,6.88c-7,.79-13.87-.74-20.4-3-7.7-2.61-12.91-6-19.37.55-10.38,10.46-16.09,25-27,34.9s-26.41,15.85-40.75,18.87c-13.27,2.79-31.67,1.47-41.4,11.92-2.19,2.35-4.14,4-4.26,7.53-.22,6.25,1.19,1.77,3.2,5.64,3.27,6.3,4.55,14.16,5.29,21.12,1.49,14.09-.39,29.52-11.68,39.23C602.9,245.78,587.86,250.18,571.79,249.87Zm-.65-22.81c8.24,4.2,24.88-1.28,31.46-6.4,8.95-7,9.66-19.1,8.23-29.24l-12.49,3L593,195.73a7.26,7.26,0,0,1-.72,4.12c-3.92,5-5.83,2.53-10.08-1.83-9.12-9.33-17.21-19.85-20.93-32.26-4.16,4.87-8.87,8-15.54,7.33-2.92-.3-14.14-3.79-11.24-8.9.92-1.63,10,.42,13.09.26,6.38-.32,9.38-.2,11.72-6.2,1.94-5,1.25-7-4.74-8-7.62-1.16-7.83,3.36-13.26,5.48-13.78,5.38-4.37-16.06-6.33-22.1,6.77-2,13.91-3.39,19.9-7.21-6.63.76-12.94,3-19.37,4.59.55-7.91,16.24-9.59,22.11-12.07-6.34-.85-12.37,3.33-18.73,3.06-5.95-.24-14.28-2.74-20-4.64-5.9-2-10.52-7.41-16.21-2.66-3.73,3.11-8.74,11.58-9.94,16.09,3.72-.54,12.46-1.26,13.49,2.95,1.33,5.41-9.6,2.26-13,3.15-5.12,1.34-3.55,2.83-5.4,7.88a17.9,17.9,0,0,1-10.29,11c5.76,3.11,7.35,3.05,6.19,8.79s-.39,12,.17,18.25a38.45,38.45,0,0,1,10.81-2.22c.71,4.55-6.44,6.48-10.13,6.74,1.93,6,2,5.81,8.63,5.79,3.7,0,7.42-.22,11.12-.4,7.54-.37,14.84-1.71,22.27-2.91,2.84-.45,6.85-2,9.68-1.69,5.17.57,4.16,1.13,3.31,5.54-1.16,6,.15,10.5,1.65,17-8.86-3-1.75,6.22,2.43,8.12C551.92,222.55,562,226.56,571.14,227.06ZM86.9,588.23c6.26,3.12,12.19,6.07,17.9,10.07s11.74,10.67,18.93,12c8.6,1.54,10.67-2.93,12.8-9.52,2.4-7.41,4.58-10.78,11.38-14.84C160,578.7,174,574,187.2,568.78c5-2,5.41-1.6,3.92-6.7-.9-3.08-2-6.1-3.18-9.09-2.17-5.51-4.56-11.36-8.2-16.17-20.86,13.69-45.73,29.56-71.4,32.86-10.42,1.33-20.7,3.68-30.92,4.57a37,37,0,0,0-13.67,3.9c-5,2.43-13.25,3.29-16.85,7.3C60.4,585.36,73.55,587.08,86.9,588.23Zm511.44,17.94c-4.18,1.72,1.46,11.6,2.67,15.71,1.81,6.17,3.52,12.38,5.35,18.55,3.87,13.07,7.52,26.19,11.18,39.31,24.19-13.12,50.07-20.63,76.94-26.91s54.1-10.72,81.44-15c15-2.34,30.62-5.54,44.46-11.62,8.6-3.79,6.92-7.28,6.78-15.66-.14-7.87-1.37-15.89-2.58-23.68-2.28-14.72-4.68-30.77-10.63-44.6-5.79-13.47-13.54-26.43-21-39.12-8.85-15.07-16.38-31.28-27.92-44.65-12-13.94-24.93-26.58-38-39.55-7.8,14.81-18.94,32.77-33.35,42.09C677.87,471.29,653,476.56,634.93,468s-28.87-26.37-40.17-41.82c-10.89-14.89-20.36-31-39.66-36.31-20.41-5.62-41.9,2-61.8,6.82-22.69,5.47-44.89,13.3-66.95,20.71-38.29,12.85-76.27,24.62-113.6,39.94-45.93,18.86-91.93,37.57-136.33,59.64,9.61,13.74,17.05,26.25,22.48,42a154.43,154.43,0,0,1,7.79,38.62c5.17-5.14,9.12-11.25,14.34-16.46,5.89-5.88,12.82-10.42,19.76-15a287.35,287.35,0,0,1,39.3-22.28c31.46-14.42,64.89-24.36,98.15-34.64,7.54-2.33,16.4-5,24.21-6.32,6.64-1.1,12.54-3,19.29-4.62,15.32-3.62,30.81-6.94,46.26-9.56,29.69-5,60-10.4,90.08-13.89,20.41-2.36,41.71-6.19,62.68-4.14,3.55.34,7,1,10.59.93,1,0,2.18-1.5,3.21-1.4,2,.2,4.1,2.41,6.12,3.07,4.56,1.49,11.19.57,13.68,4.33,2,3,1.26,5.39-1.71,7.37,3.57,4.53,10.55,8.71,15.34,12.27,4.29,3.2,8.35,6.65,12.68,9.74,4.66,3.31,10.3,6.44,15.18,9.83,6.36,4.41,11.8,10.07,17.8,15,10.79,8.89,21.61,16.64,33,25a172.18,172.18,0,0,0,18.6,12.39c3.64,2,11.88,7.5,7.57,12.5s-12.89-2.39-17.58-2.92c-5.4-.61-12.67,2.76-18.06,3.55-14.24,2.09-28.53,3.93-42.77,6.19-16.27,2.58-32.36,6.07-48.69,8.21-8.44,1.11-16.88,2.18-25.36,2.94-4.38.4-10.56-.2-14.67,1.2-3.11-.9-4.47,0-4.06,2.65A6.17,6.17,0,0,1,598.34,606.17ZM147.71,234c8.9,0,17.72.46,26.63.38,3.43,0,6.38.66,7.77-1.7,1.7-2.9.92-10.46,1.21-13.77a176.69,176.69,0,0,1-30.34.18c-11.12-1-21.91-4.14-33.08-4.83,2.38.9,5.11,5.81,3.55,8.2s-4.06.24-6.51-.84C107.5,217.5,99.63,211.35,89,214c9.77,5,19,13.12,29.24,16.12A105.09,105.09,0,0,0,147.71,234ZM808.55,70.27c4.33.81,12.78,5.13,16.66,3,4.75-2.66,3.75-13.44,3.92-17.64.53-12.9,1.51-30.65-8.63-41.11-1.84,12.4,2.14,25.36,1.85,37.89-.21,9.41-3.77,4.27-5-2.38-1.15-6.09-1-12.1-2.6-18.16-2.87,4.91-3.54,11.57-5.57,17-2.57,6.83-6.19,13-9.84,19.36C802.41,68.83,805.48,69.54,808.55,70.27ZM190,239.78c-.05,3.61-.57,7,3.95,7.34,6,.43,4-5.67,3.65-9.51C195.4,237.9,190.47,237.3,190,239.78ZM806,76.16c-3.75-.46-4.32-1.31-6.7,1.31-1.51,1.67-1.66,4.69-.35,5.74C804.68,87.76,805.58,78.72,806,76.16Zm3.51,8.38c2.93.57,5.78,2.13,7.43-.77,2.4-4.24-3.35-4.6-6.5-5.86ZM626,484.14c-32.3-.76-64.13,4.3-95.83,9.87-28,4.92-55.89,9-83.32,15.21-55.27,12.47-110.64,26.41-161.95,50.4-12.46,5.83-24.91,11.65-36.4,18.74-6.18,3.81-12.47,7.57-18.32,11.87-3.21,2.36-6.54,4.69-9.55,7.28-2.77,2.37-4.33,5.64-6.81,8-1.17,1.1-6.2,5.13-7.7,5.59-3.2,1-1.93,1.05-5.17-1.17-6.78-4.63-8.14-10.8-10.18-18.22-1.43-5.23-.33-7-5.05-6.78-2.4.09-6,2.53-8.25,3.45-7.19,3-15,5.37-21.86,8.93-5.58,2.88-10,6.58-12.43,12.28-2.82,6.73-4.46,12.22-13,13-15.28,1.34-24-13.88-37.11-19-14-5.48-31.79-4.4-46.54-4.58a111.14,111.14,0,0,0-16.34,1.18c-7.24,1-15.81,5-23.32,2.45-8.65-2.88-8.52-15.16-2.79-20.5,6-5.59,14.88-6.36,22.54-8.21C42.07,570.12,56.16,561.57,72,559s32.39-3.18,47.73-7.94c7.81-2.43,15.4-4.32,22.82-7.73,9.25-4.25,19.21-7,28.35-11.2-3.14-5.52-4-10.64-4.19-16.83-.12-4.13-.79-4.13,2.07-5.86l1.71.88q2.7,1.92,3.85-1.75c12.68-7.69,24.4-16,37.93-22.64,22.69-11.2,46.71-20.25,69.4-30.92,43.1-20.28,91.11-32,136.45-46.83,27.43-9,55.51-16.35,83.62-23,4.93-1.16,9.84-2.12,14.84-2.89,8.49-1.31,6.48-1.39,10.76-7.91,5.49-8.37,14.2-17.31,23.05-22.5,5.45-3.2,7.78-2.72,7.61-9.72-.13-5.35-1.6-5.29-6-8.87a115.25,115.25,0,0,1-13.72-13.33c-4.77-5.45-6.91-11.63-10.9-17.23-4.82-6.78-19.74-5.63-28.09-6.81-13.08-1.84-26.38-3.16-39.26-6-26-5.75-52.18-7.77-78.52-11.79s-53-7.74-79.44-11.41c-9.51-1.31-19.13-2.44-28.59-4.08-13.24-2.28-27.16-2.51-40.59-4.65-6.92-1.1-15.38-5-22.34-4.67-7.46.36-.79.27-5.7,2.84a18.51,18.51,0,0,1-7.29,2.32,12.73,12.73,0,0,1-10.48-4.56c-4.08-5.09-2.12-9-10.43-9.63-5.47-.42-11.86,1.69-17.42,2s-11.11,1.06-16.56.9c-10.91-.32-23.9-1.28-33.8-5.94C98.38,236.23,89,229.65,78,225.45c-5.53-2.11-13.41-3-17.13-8.1-3.09-4.25-4.05-12.9.7-16.39,7.29-5.35,21.42,2.75,29.49.72,4.12-1,.72-2.28,3.84-3.72,1.93-.89,1.64-1,3.93-1.35,5.66-.8,14.91,3.16,20.66,4.1,11.34,1.86,22.59,4.68,33.92,6.42,6.47,1,13,1.24,19.53,2.29,5.65.91,10.29,3.13,14.38-1.41,1.73-1.91,1.2-3.88,4-4.88,2.49-.9,9.62.39,12,1.31,2.62,1,3.21,2.45,5.32,3.6q.07,3.24,2.73,1.94a19.89,19.89,0,0,1,4.93.26c14.39.06,28.72-4.4,41.81-9.68,21.7-8.73,48.63-33.47,73.51-20,6.13,3.31,10.14,8.84,16.1,12.42a84.07,84.07,0,0,0,18,7.84c11.89,3.58,23.72,3.14,35.51-.58,14.37-4.53,25.94-9.28,41.43-8.76,14.35.48,25.8,10.39,39.86,10.78-3.44-5.51-4.07-11.85-4.44-18.1-.23-4.09,2.05-14.81-.42-18.12-2.74-3.65-24.08-5.13-12.18-15.87,3.9-3.52,11.09-2.25,15.12-6.13s4.15-10,6.32-14.94c2.45-5.53,6.5-10.1,10.64-14.52a17.6,17.6,0,0,0,3.95-5.31c1.16-2.6.39-4.81,2.24-7.56,6.26-9.27,17.18-6,26.69-4.81,5.76.75,12.74,0,18.34,1.61,4.49,1.26,10.34,5.09,14,7.91,8.06,6.19,9.93,17.63,10.55,27,.37,5.49-.7,10.66-.79,16.12-.09,5.72-2.57,8.31-7,12.11a2.28,2.28,0,0,0-1.55-2.13c-1.94,2.39-1.45,3.33,1.5,2.81a6.89,6.89,0,0,0,1.53,3.85c2.43,2.7,4.53,5.69,6.9,8.45,5.18,6,11.23,11.25,15.22,18.08,4.18-4.86,9.5-5.66,14.49-9s1.23-4.23,3-8.95c.72-1.89,2.62-2.23,3.28-3.69s-.13-2.26.26-3.79c1.94-7.57,1.13-12.26,7.18-18.2,8.09-7.94,18.06-10,29.18-11.54s19-2,28.83-6.43c3.43-1.52,6.66-2.21,9.91-3.94a71,71,0,0,0,12.3-7.94c8.88-7.32,14.39-17.52,21.57-26.31,5.74-7,12.67-16.05,23-14.19,11.79,2.12,22.18,9.28,34.73,5.42,4.66-1.43,4.16-.55,6-5.07.62-1.5,1-3,1.61-4.49,2.24-5.53,6.53-6.23,9.19-10.73C800,53.18,803.39,39.92,807,28.25c1.66-5.42,4.87-10.12,6.83-15.31.82-2.18.45-11.85,3-12.7C825-2.5,831.64,19,833.13,23.06c3.91,10.62,7.36,22.61,5.81,34-.63,4.68-1.14,10.11-2.39,14.7-1.14,4.17-1.39,3.89-.73,7.67s1.44,6.14.88,10.17c-.16,1.12-.67,5.27-1.16,5.85-2.25,2.68-2.55.8-5.35,1.87-4.53,1.73-5.65,3.22-8.85,7.28-8,10.13-16.38,20.31-25,29.93a573.91,573.91,0,0,1-48.21,47c-16.74,14.74-34.23,29.7-53.23,41.74-4.61,2.92-12.2,5.49-15.92,9.33-4.07,4.2,2.1,6,6.27,9,8.29,5.92,16.81,12,24,18.9,15.41,14.72,24.21,36.42,29.61,56.12,2.81,10.26,3.39,22,4.45,32.63a94.14,94.14,0,0,1-4.23,37.94c-1.49,4.49-3.24,8.89-4.68,13.4-.67,2.08-3.94,8.53-3,10.93,1.46,4,11.09,8.78,14.46,11.53,4.59,3.77,9.3,7.66,13.15,12.15a352.15,352.15,0,0,1,41.82,61.09c12.24,22.35,23.8,42.5,28.63,67.61,1.26,6.56,2.38,13.13,3.71,19.68,1.43,7,0,17.22,2.9,23.66,1.77,4,5.07,5.24,3.72,10.75-1.16,4.76-7.07,13.21-10.28,17-7.32,8.54-20.67,11.91-31.22,15-12.8,3.76-26.48,5.49-39.66,7.63-47.47,7.7-94,16.1-137.92,35.83,1.47,2.16,2.67,6.81-.33,8.29-4,2-5.94-3.88-7.32-6.46-4-7.53-5.17-17.27-7.56-25.52-5.81-20.12-10.23-40.45-15-60.79-16.16,3.4-32.52,5.21-48.59,8.36-7.42,1.46-14.93,1.59-22.4,2.51-8,1-8.53,3.51-7.9,11.16,1.4,16.87,8.13,33,12,49.45,1.86,8,5.12,15.54,6.9,23.46.57,2.57-.05,9.51,1.77,11.44-.08-.08,6.12,1.15,7.1,1.39-.53-10,.64-19.74.14-29.68-.51-10.28-1.92-23.76.38-33.71,2.09-9.05,10.06-18.62,18.86-22.43,7.66-3.33,22.87-8.67,31.14-3.74,1.46.87,5,3.56,4.14,5.64-1.1,2.82-13.35,5-15.84,5.85-9.73,3.41-20,9.39-25.48,18.05-4.91,7.8-3,19.86-2.78,28.8.09,5.08.75,9.8.13,14.87-.87,7.16-1.32,9.76,1.61,16,3.43,7.24,1.31,17.84-9,15.23-6.15-1.56-6.4-4.92-10.1-8.57-1.4-1.38-3-.77-4.35-2.51-1.84-2.34-1.83-7.51-2.76-10.46-3-9.44-7.2-18.62-10.35-28.12-4.24-12.77-7.71-25.7-10.75-38.77-2.36-10.17-4.92-20.46,0-30.36,4.35-8.78,15-8.13,23.87-8.44,20.49-.73,41.66-5.17,62.57-6.25,1.5-.07,4.64.44,6-.19,1.86-.86,2.57-3.38,5-5,4.61-3.07,13.72-4.14,19-5.08,12.08-2.15,24.09-3.89,36.09-6.12,13.8-2.57,27.47-5.65,41.29-8,13.23-2.24,26.59-2.66,40-4.18-21.23-13.7-39.93-30.39-60.36-45.23A272.5,272.5,0,0,1,651,502.72c-3.54-3.31-7-6.53-10.26-10.15-1.7-1.91-3.2-5.57-5.37-6.9C632.68,484,629.57,484.44,626,484.14Z" transform="translate(0 0)" fill-rule="evenodd"/><path d="M548,98.59c-7-.61-15.07-.66-21.89-2.22,6,.52,16.38.18,21.89,2.22" transform="translate(0 0)" fill-rule="evenodd"/><path d="M162,208.34l-9-.79a20.21,20.21,0,0,1,9,.79" transform="translate(0 0)" fill-rule="evenodd"/><path d="M346,273.37l6,.52-6-.52" transform="translate(0 0)" fill-rule="evenodd"/><path d="M549.51,686.17c.09-2.33.18-4.67.26-7q-.12,3.51-.26,7" transform="translate(0 0)" fill-rule="evenodd"/><path d="M538.55,704.29c0,1.67-.07,3.34-.11,5,0-1.68.07-3.34.11-5" transform="translate(0 0)" fill-rule="evenodd"/><path d="M583.2,626.11h0" transform="translate(0 0)" fill-rule="evenodd"/><path d="M297.49,266l4,.51-4-.51" transform="translate(0 0)" fill-rule="evenodd"/><path d="M522.17,96l-5-.41,5,.41" transform="translate(0 0)" fill-rule="evenodd"/><path d="M538.84,678.21c-.05,1.67-.09,3.35-.14,5,0-1.67.09-3.34.14-5" transform="translate(0 0)" fill-rule="evenodd"/><path d="M289.52,265.39l4,.4-4-.4" transform="translate(0 0)" fill-rule="evenodd"/><path d="M310.35,268.23l4,.37-4-.37" transform="translate(0 0)" fill-rule="evenodd"/><path d="M527.89,604.24l-5,0,5,0" transform="translate(0 0)" fill-rule="evenodd"/><path d="M469.87,292.24l3,.25-3-.25" transform="translate(0 0)" fill-rule="evenodd"/><path d="M539.5,695.34c-.12,1.33-.23,2.66-.35,4,.12-1.33.23-2.66.35-4" transform="translate(0 0)" fill-rule="evenodd"/><path d="M625.7,484.55l3,.25-3-.25" transform="translate(0 0)" fill-rule="evenodd"/><path d="M317.31,177.26l-5,0,5,0" transform="translate(0 0)" fill-rule="evenodd"/><path d="M121.52,200.72l-4-.74,4,.74" transform="translate(0 0)" fill-rule="evenodd"/><path d="M144.25,204.8l-3.94-.9Z" transform="translate(0 0)" fill-rule="evenodd"/><path d="M91.28,202.1l-4-.76,4,.76" transform="translate(0 0)" fill-rule="evenodd"/><path d="M611.67,484.28l2,.26-2-.26" transform="translate(0 0)" fill-rule="evenodd"/><path d="M474,165l2,.31-2-.31" transform="translate(0 0)" fill-rule="evenodd"/><path d="M698.19,573.91l-4,.24,4-.24" transform="translate(0 0)" fill-rule="evenodd"/><path d="M742.3,373.79c.08-1,.17-2,.26-3-.09,1-.18,2-.26,3" transform="translate(0 0)" fill-rule="evenodd"/><path d="M504.65,296.28l2,.17-2-.17" transform="translate(0 0)" fill-rule="evenodd"/><path d="M232.91,258.47l2,.14-2-.14" transform="translate(0 0)" fill-rule="evenodd"/><path d="M128.83,231.92a39.79,39.79,0,0,1,8.91,1.32c-2.89-.22-6.32.11-8.91-1.32" transform="translate(0 0)" fill-rule="evenodd"/><path d="M160.82,233.39a14,14,0,0,1,8,.59l-8-.59" transform="translate(0 0)" fill-rule="evenodd"/><path d="M570.89,227.48l7,.59a9.7,9.7,0,0,1-7-.59" transform="translate(0 0)" fill-rule="evenodd"/><path d="M806,75.8l-5-.63,5,.63" transform="translate(0 0)" fill-rule="evenodd"/><path d="M80.63,587.78c2.09-1,4-.3,6,.51l-6-.51" transform="translate(0 0)" fill-rule="evenodd"/><path d="M205.31,233.45c0,1.67-.06,3.35-.09,5l.09-5" transform="translate(0 0)" fill-rule="evenodd"/><path d="M142.72,233.72h0" transform="translate(0 0)" fill-rule="evenodd"/><path d="M571.94,249.92l-4-.26,4,.26" transform="translate(0 0)" fill-rule="evenodd"/><path d="M202.15,567.45c0,1.67,0,3.34,0,5,0-1.68,0-3.35,0-5" transform="translate(0 0)" fill-rule="evenodd"/><path d="M490.51,285.77l4.94.91-4.94-.91" transform="translate(0 0)" fill-rule="evenodd"/><path d="M150,219l-4-.21,4,.21" transform="translate(0 0)" fill-rule="evenodd"/><path d="M479.65,283.69l4.94.91c-1.69-.08-3.47.45-4.94-.91" transform="translate(0 0)" fill-rule="evenodd"/><path d="M166,220.42l-3-.16,3,.16" transform="translate(0 0)" fill-rule="evenodd"/><path d="M453.09,277.47l4.94.93-4.94-.93" transform="translate(0 0)" fill-rule="evenodd"/><path d="M809.24,84.77l4.94.94-4.94-.94" transform="translate(0 0)" fill-rule="evenodd"/><path d="M392.74,267.39l5,.49-5-.49" transform="translate(0 0)" fill-rule="evenodd"/><path d="M808.47,70.66l4.94.92-4.94-.92" transform="translate(0 0)" fill-rule="evenodd"/><path d="M205.35,240.7l5,.34a4.76,4.76,0,0,1-5-.34" transform="translate(0 0)" fill-rule="evenodd"/><path d="M534.89,139.82c.12-1.33.25-2.66.37-4-.13,1.33-.25,2.65-.37,4" transform="translate(0 0)" fill-rule="evenodd"/><path d="M534.45,144.8c.13-1.33.25-2.66.37-4-.12,1.33-.25,2.66-.37,4" transform="translate(0 0)" fill-rule="evenodd"/><path d="M539.82,387.66l-3-.2,3,.2" transform="translate(0 0)" fill-rule="evenodd"/><path d="M626.88,202.07c-.15,1.33-.31,2.66-.46,4,.15-1.33.31-2.65.46-4" transform="translate(0 0)" fill-rule="evenodd"/><path d="M648.3,455.65l5,0-5,0" transform="translate(0 0)" fill-rule="evenodd"/><path d="M536.21,187.94a3.41,3.41,0,0,1,4,.35l-4-.35" transform="translate(0 0)" fill-rule="evenodd"/><path d="M547.5,173.62l-2-.31,2,.31" transform="translate(0 0)" fill-rule="evenodd"/><path d="M553.92,375.65l3.94.8-3.94-.8" transform="translate(0 0)" fill-rule="evenodd"/><path d="M508.51,481.54l4-.09-4,.09" transform="translate(0 0)" fill-rule="evenodd"/><path d="M479.92,487.08l4-.11-4,.11" transform="translate(0 0)" fill-rule="evenodd"/><path d="M467.7,489.07l4-.2Z" transform="translate(0 0)" fill-rule="evenodd"/><path d="M455.49,491l4-.18-4,.18" transform="translate(0 0)" fill-rule="evenodd"/><path d="M713.15,586.5l-3-.15,3,.15" transform="translate(0 0)" fill-rule="evenodd"/><path d="M508.26,289.34l4,.8-4-.8" transform="translate(0 0)" fill-rule="evenodd"/><path d="M755.94,97.39l-2-.11,2,.11" transform="translate(0 0)" fill-rule="evenodd"/><path d="M161,220.06l-2-.22,2,.22" transform="translate(0 0)" fill-rule="evenodd"/><path d="M442.3,274.53l3.95.81-3.95-.81" transform="translate(0 0)" fill-rule="evenodd"/><path d="M291.93,249.37l3.95.73-3.95-.73" transform="translate(0 0)" fill-rule="evenodd"/><path d="M189.72,240.12c0,1,0,2,0,3,0-1,0-2,0-3" transform="translate(0 0)" fill-rule="evenodd"/><path d="M175.77,234.62l4-.12-4,.12" transform="translate(0 0)" fill-rule="evenodd"/><path d="M212.36,240.92c1.38-.56,2.74-.8,4,.32l-4-.32" transform="translate(0 0)" fill-rule="evenodd"/><path d="M672.94,321.67c4.81.74,7.09,1.83,8.39,6.5.61,2.16-1.13,6.24-.55,7.6.78,1.81,2,.86,3.31,2.57,5,6.29,7.58,18.8-2.14,23.14-3.64-4.43-2.37-9.58.12-14.15-5.24-1.21-8-1.4-9.59-6.65-.19-.63-.58-8.34-.74-8.51-1.09-1.13-5.48,0-7-.83-3.33-1.87-4.9-8.12-4.06-11.64,1.15-4.84,6.28-7.32,10.17-10-12.5.31-24,9.74-36.49,10.38-3.48.17-4.35,1.72-5.56-2.2-1.07-3.49.09-3,2.45-4.77,4.67-3.42,11.84-5.69,17.36-7.64,8-2.84,21.84-9.5,30.52-5.78,4.33,1.86,7.41,7.55,6.08,12s-8.77,7.41-12.29,10" transform="translate(0 0)" fill-rule="evenodd"/><path d="M677.94,257.05c3.58,5.57,5.15,11.46,1.28,17.35,5.5-.45,11.63-1.46,15.21,3.52,5.18,7.2-.17,9.55-6.21,10-4.85.33-14.48,3.47-18.73.2-7-5.38,0-15.55,2.66-20.7-4.44.14-15.64,1.45-13.71-6.86,1.39-6,15.14-4.47,19.5-3.47" transform="translate(0 0)" fill-rule="evenodd"/><path d="M620.67,293.16l-4.33,5.1c2.2.49,5.17-1.37,7.11-2.15Zm-6.58-6.87c-5.14-.72-10.7,6-11.88-1.51-.69-4.4,3.43-10,8.28-10.72,8.45-1.18,20.28,18,22.39,24.6,2,6.09-.13,5.25-4.6,7.51-3.87,1.95-8.91,6.49-13.94,5.11-4.59-1.25-6-8.62-6-12.45C608.38,292.91,611.94,291,614.09,286.29Z" transform="translate(0 0)" fill-rule="evenodd"/><path d="M640.29,286.27c.78,2.38,6.39,13.49,1.41,13.47-2.77,0-8-16.06-8.74-17.89-1-2.52-3.18-6-2.8-8.85.65-4.93.38-3.37,3.72-2.84,6.52,1,11.91,11,18.06,13.48-2.55-9.46-6.37-19.84-3.75-29.51,7.33,6.78,7.65,20.74,9.66,30,.61,2.82,2.07,8.6-1,10.52-3.5,2.16-14.18-6.9-16.54-8.4" transform="translate(0 0)" fill-rule="evenodd"/><path d="M593.48,306.69c2.43-5.1,5-11.08-3.93-9.19Zm-2.91-21.35c7.7-.61,12.09,9.5,12.88,15.37.64,4.69-4.24,21-10.81,16.1-2.45-1.84-3.83-6.86-5.43-9.41-2.2-3.48-5.27-6.79-6.94-10.54C576.75,288.94,583.07,285.36,590.57,285.34Z" transform="translate(0 0)" fill-rule="evenodd"/><path d="M590.91,285.5l-5,.07,5-.07" transform="translate(0 0)" fill-rule="evenodd"/><path d="M678.68,257.58l-3.93-.9,3.93.9" transform="translate(0 0)" fill-rule="evenodd"/><path d="M689.24,274.6l-4-.36a3.5,3.5,0,0,1,4,.36" transform="translate(0 0)" fill-rule="evenodd"/><path d="M504.93,144.23c6.49,4.65-7.87,22.1-13.56,8-1.59-3.94-1.09-8.84,3.1-7.82,1.88.46,2.14,3.3,4.76,3.41s3.87-2.13,5.7-3.54" transform="translate(0 0)" fill-rule="evenodd"/><path d="M542.62,160.57c.11-3.49,6.8-10.41,10.62-5.83s-7.72,5.72-10.62,5.83" transform="translate(0 0)" fill-rule="evenodd"/></svg>