<svg id="Layer_1" data-name="Layer 1" xmlns="http://www.w3.org/2000/svg" viewBox="0 0 836.66 677.2"><g id="react-group-128"><g id="react-group-129"><path id="react-path-130" d="M720.39,432.87a187.81,187.81,0,0,0,72-33C788,416.55,781.9,437.41,769,449.49c-4.91,4.59-11.47,7.59-17.44,10.51-8.79,4.29-17.81,8.13-26.88,11.78-16,6.43-32.83,13.56-49.89,16.69-4.74.86-7.15,0-11.09-2.83-6.63-4.77-12.61-10.51-18.53-16.1-9.49-9-18.73-18.24-27.76-27.67C651.61,441.79,686.9,440.23,720.39,432.87Zm-246,57,14.26,9.31,100.74,65.69-48,32,17,18-15.9,9-29.16,16.59L503,646.39c-.81.46-1.95,1.43-2.8,1.35-1.28-.11-3.59-2.32-4.63-3q-4.94-3.19-9.84-6.43-15.12-9.93-30.13-20c-24.53-16.5-49-33.2-72.49-51.18-10.85-8.3-20.93-16.91-29.4-27.71-9.33-11.89-17-25-23.8-38.49A362.87,362.87,0,0,1,314.67,466c-1.54-4.08-5.35-10.62-5.28-15.11,0-2.41,2.14-5.88,2.95-8.11q2.88-7.93,5.77-15.88c1-2.71,2.93-6.08,3.26-9,.42-3.5-1.28-8.27-1.82-11.72-.27-1.68-.23-6.4-1.5-7.35-.85-.63-4-.31-5.06-.39l-24.77-1.91-66.42-5.11c-6.1-.47-12.94-.14-18.93-1.45-4.51-1-7.34-4.62-8.69-8.85-4.06-12.73-7.89-25.66-10.36-38.79-2.39-12.7-.08-22.58,5.13-34.33A217.58,217.58,0,0,1,205,278.08c1.76-2.72,1.75-2.14,4.92-1.57l39,6.95L381,307l46.55,8.3c2.26.4,6.71.31,8.71,1.55,1,.64,1.79,2.54,2.45,3.57q4.31,6.68,8.62,13.36c16.13,25,32.73,49.68,49.19,74.45q27.46,41.32,54.91,82.65Z" transform="translate(-94 -46)" fill-rule="evenodd"/><path id="react-path-131" d="M443,48c8.25,3.68,12.6,13.85,16.93,21.2,5.2,8.82,9.9,18.06,12.56,28A86.56,86.56,0,0,1,474.4,129a75.12,75.12,0,0,1-3.09,13.18c-1.4,4.7.78,7.38,4.12,10.7,6.92,6.88,15.64,12.16,20.78,20.65,4.35,7.18,9.41,8.51,17.62,8.82,20.38.76,40.36.13,60.55,4,5.13,1,10.22,2.2,15.27,3.56a31.78,31.78,0,0,0,5.1,1.37c2.46.23,2.88-.75,4.72-1.7,8.09-4.16,18.36-.16,26.45,2.12a264.16,264.16,0,0,1,58.18,24c20,11.24,41.29,20,61.09,31.53,19.13,11.17,36.31,25.24,54.15,38.29,18.14,13.27,35.35,27.63,52.13,42.58,16.21,14.45,33,28.64,47.48,44.85a162.8,162.8,0,0,1,30.68,50.88c2.34,6.21.9,10.12-6.41,8.07-.65,6.28-5.33,8.91-11.26,7.56,1.82,5.27,6,12.41,3.6,18.08-3.17,7.53-12.24,2.05-16.69-.89.49,6.06,3.06,15.9-1.94,20.79-7.76,7.57-20.84-2.08-26.34-7.75-14-14.42-22.94-32.28-35.37-47.84-15.4-19.3-32.75-37.49-50.16-54.95-1.38-1.38-16.87-18-19.09-15.75,6.76,11.2,12.16,23.52,21.62,32.83,4.48-6.31,7.73-3.2,8.58,3.13,1,7.61,2.14,15.62.73,23.24-2.75,15-12.23,29.29-22.18,40.52-10.42,11.76-23.35,20.71-37.22,27.92-7.85,4.07-15.73,7.9-24.17,10.57-3.79,1.2-7.58,2.6-11.46,3.43s-7.78.74-11.24,2.56c31,14.78,65.25,21,96.3,35.42,7.49,3.48,22.54,12.52,14.94,22.68-5.89,7.86-19.25,8.13-28,9.7,6.46,6.09,5.5,11.75-3,15.07a31,31,0,0,1-10.6,2c-2.46.07-6.73-.81-8.72,1.13,7.69,3.52,18.18,3.31,24.5,9.5s-1.25,11.4-7,13.84c-7.58,3.21-18,6.59-25.72,2.72-6.1-3-11.73-2.39-18.47-3.19A123.06,123.06,0,0,1,704.29,600c-25.54-7.62-49-21.72-71.6-35.59a404.8,404.8,0,0,1-63-47.56c-4.79-4.44-8.78-9.71-13.68-14-5.16-4.52-10.56-4.92-17.15-4.85-15,.17-30-2.5-44.95-.74,21.54,16.24,44.3,30.54,67,45.12,8.63,5.55,17.69,12.95,27.83,15.37,4.44,1.06,14,1.76,15.46,7.25,1.08,4-2.34,4.67-4.39,6.84-3,3.14,1.21,4.2,4.28,5.5a22.1,22.1,0,0,0,11.59,1.73c6.44-.66,11.49-.44,17.49,2.32,9.42,4.33,19.54,6.66,29,10.9,3.92,1.75,5,7,6.84,10.54,3,5.58,6.4,10.89,9.77,16.24,6.35,10.07,11.82,20.44,20.83,28.47,7.9,7.05,16.69,13.29,25.26,19.48,13.4,9.67,30.43,21.64,26.13,40.61-4.26,18.76-23.7,16.75-38.52,13.4-6.23-1.41-14.76-5.36-21-3.5a25.93,25.93,0,0,1-14.79.56c-6.53-1.48-13.09-2.45-19.71-3.47a233.62,233.62,0,0,1-41.07-10.31,46.88,46.88,0,0,1-16.66-9.73c-1.49-1.35-2.57-3.27-4.54-3.25-1.68,0-4.28,3-5.58,4-4.11,3.27-8.65,6-13.33,2.11-3-2.48-5.65-7.88-1.33-10.44,3.32-2,9.37.29,11.75-3.42,2.49-3.88-3.08-9.51-4.82-12.66-5.26,3.57-13,10.79-19.09,4.81-4.89-4.78.55-7.69,5-9.22,5.57-1.89,12-1.65,9.18-9.09-1.62-4.23-4.2-8-4.61-12.64-.32-3.51.7-6.88.72-10.37,0-6.22-6.64-11.58-12.47-13-3.56-.9-4.62,2.14-6.8,4.47a45,45,0,0,1-11.41,8.23,226.67,226.67,0,0,1-20.79,9.53c-4.66,2-12.9,4.53-9.57,10.47,4.87,8.69-6.55,4.53-10.66,2.56-9.58-4.59-19.25-9-28.7-13.81-19.39-9.94-37.23-22.2-54.36-35.62a588.34,588.34,0,0,1-48.5-42.12A218.31,218.31,0,0,1,348.56,542c-6.77-8.84-12.46-18.41-19.36-27.16-7.15-9.07-14.22-17.88-18.83-28.58-4.27-9.92-9.12-21-9.2-31.89-.08-12,0-22.85,3.95-34.4a58.24,58.24,0,0,1,6.55-14.05c.83-1.21,5.2-5.35,4.3-7,0,.09-9.92,1.62-11,1.71-6.63.64-13.29-.5-19.88-1.11-19.51-1.82-39.19-1.14-58.63-3.82-7.32-1-15.27.05-22.42-1.81-3.38-.88-4.21-2.81-6.69-4.4-1.14-.72-2.35-.48-3.4-1.48-1.24-1.18-1.5-2.88-2.05-4.41-2.92-8.19-7.83-15.5-10.72-23.71-3.25-9.23-3.1-18.79-2.86-28.44-4.83.38-9.89.41-14.42-1.54-3.65,11.48-19.38,11.27-29.05,10.4-12.07-1.09-26.23-2.22-32.35-14.34-7.19-14.25-6.72-31.54-7.59-47.08a526.51,526.51,0,0,1-.41-55c.76-15.54,4.3-31.66,14.34-44,8.87-10.88,24.2-17.25,36.26-7.1,9.07,7.64,13,21.38,13.62,32.83.3,5.82,0,11,7.2,9.44,2.75-.62,5.26-1.63,7.29,1.2a6,6,0,0,1-1.3,8c-2,1.69-6.06,1.4-7.46,3.91s.81,6.48,3.45,7c3,.58,5.34-3.29,8.37-1.5,2.78,1.65,1.33,4.73-.53,6.53-2.21,2.13-4.33,2.58-2.76,6,1.21,2.59,3.63,4.31,4.72,7.06,2.67,6.78,3.56,16.51.58,23.33,5.17.57,17.66,6.69,21.73,1.74,1.47-1.79,1.65-4.43,3.24-6.26a11,11,0,0,1,7.27-3.41c5.94-.75,12,1.06,17.77,2.22,9.55,1.93,19.17,3.62,28.76,5.33,19.31,3.43,38.8,5.82,58.06,9.5s38.24,8.33,57.25,13c10,2.43,19.89,5.16,29.93,7.26,9.39,2,19.17,3.41,27.9,7.57-1.73-10.68-6.54-20.5-9.55-30.82a72.33,72.33,0,0,1-2.21-32.16c1.6-10,4-19.76,9.08-28.62a45,45,0,0,1,7.32-10c2.11-2.05,5.1-3.76,6.77-6.21s1.3-3-1.67-4.09a31.11,31.11,0,0,1-4.72-1.67c-1.45-.8-2.69-2.25-4.38-2.53-3.91-.63-9.62,3.15-13.2,4.5a62.41,62.41,0,0,1-15.15,4.06c-17.12,1.84-37.42-8.09-49.16-20.12-3.92-4-12.91-13.25-9.25-19.37,1.93-3.24,5.37-2.47,8.27-3.94,4.53-2.3,1.66-6.11-.51-9.14C346,145,342,135.56,337.75,126.39c-4.31-9.34-10.22-17.69-15.06-26.73-3.48-6.49-7.51-13.74-9.11-21-1.95-8.81,4-10.06,11.31-11.32C348,63.38,370.68,58,393.54,53c9.11-2,18.27-4,27.45-5.71C428.13,46,436.16,44.94,443,48Zm202.5,549.92c-11.9.61-23.87,3.25-24.25,17.14,1.44,26.34,18.57,46,36.67,63.5,4.57,4.41,9,9.08,14,13.05,2.92,2.34,6.1,3.41,9.26,5.26.77.46,2.11,2,2.83,2.21,1.71.55,1.85-.07,3.52-.25,3.63-.38,4.3,2.15,7.05,4.22,5.24,3.92,14.63,3.35,20.77,4.57,5.68,1.14,28.27,9.32,27.25-2.47-1-11.51-13.27-17.11-21.93-22.25-12.06-7.17-24.49-14.93-34.65-24.7-9.66-9.29-16-22-22.45-33.56-4-7.21-5.16-13.33-6.32-21.38-.5-3.41-.55-4.52-3.88-5.1A36.25,36.25,0,0,0,645.52,597.91ZM604.12,596c-6.87,2.22-12.06,7.73-15.48,14a30,30,0,0,0-3.33,10c-.74,4.54-2.44,9.39-1.17,13.95,2.3,8.29,8.34,17.33,13.09,24.44,5.33,8,12.26,17,20.68,21.87,8.1,4.72,17.89,6,25.41,11.8-.68-3.2-3.68-5.57-6-7.56a76.58,76.58,0,0,1-9.36-9.27c-6.45-7.66-11.82-16-15.26-25.42a77.56,77.56,0,0,1-4.81-29.24,36.51,36.51,0,0,1,3-13.83c1.34-2.83,3.72-5.24,4.75-8.22C618,591.64,607.55,594.88,604.12,596ZM453.41,369.55c-9.59,1.09-19.11,2.93-28.77,3.82-19.54,1.81-39.82,2.87-57.53,12.21-25.76,13.58-55.43,43.72-46.49,75.47,10.55,37.5,33.12,71.41,61.37,97.95,18,16.94,37.79,32.21,57.6,47,19.17,14.31,41.34,23.69,61.1,37.07,1.33-19.71,13.72-37.79,28.36-50.33a202,202,0,0,1,25-18.63c4.34-2.67,8.83-4.93,13.4-7.17,3.47-1.69,7.3-4.21,11.27-4.4-.06-2.91-7.35-4-9.36-4.66-6.94-2.36-13.6-6-20-9.48-14-7.62-26.93-16.93-39.88-26.17-6.33-4.52-12.76-8.9-19-13.52-5.64-4.15-10.64-9.55-16.7-13.09-6.23-3.64-13.6-4.4-20.55-5.74-8.36-1.61-16.58-3.53-25-4.94-14-2.36-27.25-10.62-40.17-16.24-4.34-1.89-11-3.53-14.29-7.12a6.71,6.71,0,0,1,1.63-10.48c6.63-3.82,17.67,1.17,23.93,3.63,11.59,4.57,23.1,8.66,35.4,11,16.84,3.21,32.85,9.21,49.71,12.34,18.19,3.39,36.43,7.09,54.92,8.34-4.53-9-12-16.44-17.9-24.56q-10.07-14-20.07-28c-11.73-16.5-24.81-33.08-33.72-51.31C464.54,376.27,461.53,368.62,453.41,369.55ZM540.52,610c-2.67.43-4.69,3.1-6.51,4.86-5.61,5.47-11.11,10.87-15.69,17.28,7.08-3,12.85-8.2,19.68-11.63,2.46-1.23,11.14-4,9.39-7.42C546.41,611.1,542.48,609.64,540.52,610ZM573,588c-6.93,4.73-14.14,9-21.45,13.07A50.72,50.72,0,0,1,566,609.19c1.92,1.62,5.88,6.34,8.66,5.16,2.59-1.11,4-7.51,5.24-9.82a68.63,68.63,0,0,1,12.51-16.15C585.17,583.53,580.32,583,573,588ZM514.5,330.47c-5.55,1.54-11.05,3.23-16.59,4.78C486.84,338.36,475.53,341,464,341c-1.57,2.89,2.93,7.61,4.32,9.82,3.63,5.79,6.73,12,10,18a431.53,431.53,0,0,0,22.82,36.89c8.3,12.07,15.8,24.72,24.31,36.65,8.23,11.54,17.28,22.76,26.2,33.78,34.74,42.95,83.15,72.57,130.74,99.18,13.33,7.46,27.23,14,42,18.1,6.1,1.69,12.32,3.11,18.53,4.36,4.16.84,11.1,2.73,14.94,0-12.05-4.77-27.85-6.62-37.58-15.86-6-5.72.58-10,6.73-11,11.89-2.06,24.21,3.12,35.88-.24-3.12-5.72-12.08-5.45-17.54-6.92-6.9-1.86-7.15-5.34-.59-7.71,8.09-2.92,17.4-1.34,25.83-1.87,4.11-.27,21.34-1,16.13-8.85-4.09-6.21-14.06-7.95-20.59-10.25-9.16-3.21-18-8.23-27.37-10.72-9.13-2.44-18.42-3.93-27.54-6.51a204.24,204.24,0,0,1-27.94-9.7A212.85,212.85,0,0,1,635,477.68c-15.18-12.47-28.48-26.77-40.73-42.1-6.44-8.07-12.57-16.37-18.83-24.57-6-7.91-12.9-15.46-17.74-24.2-5.36-9.67-12.3-18.5-17.85-28.13-3-5.22-6.24-10.34-9-15.67-2-3.8-3.35-9.36-6-12.65C522.18,327.26,517.75,329.56,514.5,330.47ZM258.28,453c1.86,1.7,1.55,2.4,1.19,4.56-.73,4.42-1.54,8.76-1.88,13.25-1.17,15.35,1,31.26,3.39,46.42a97.86,97.86,0,0,0,17,41.6c8.57,12.12,18.91,21.77,32.54,27.72,2.34,1,11.6,4.77,11,8.22-.45,2.6-5.26,1.13-7,.76-24.49-5.25-45.24-27.39-57.62-48-5.12-8.53-8.42-17.21-11.25-26.64-.41-1.38-6.34-20.9-4.34-21.14-1.73-13.52-2.25-30,4.14-42.46C247.81,452.59,253.4,448.53,258.28,453Zm-42.73,2.91c-2.24,10.19-1.5,20.58-1,30.9.09,1.88,1.17,7.68-1.94,7.57-2.2-.08-3.95-5.69-4.49-7.13a53.78,53.78,0,0,1-2.79-27.77c.51-2.91,1.29-6.45,4.5-7.46C212.6,451.12,215.79,452.69,215.55,455.89Zm572.32-47a4.88,4.88,0,0,0-2.4,3.33,195.28,195.28,0,0,1-36,24.55c-11.26,5.79-24.29,8.23-36.57,10.85-28.09,6-56.07,8.4-84.08.65,11.45,10.57,21.83,24.6,36.26,31.33,7.17,3.35,15.11,1.33,22.34-.79,8.87-2.6,17.8-5.25,26.38-8.7C730,463.56,747.33,456.36,761,445.2a79.57,79.57,0,0,0,15.32-17.52c2.48-3.7,4.58-7.66,7.1-11.34C784.84,414.23,788,411.62,787.87,408.85ZM668.17,221c-.41,5.23-3.48,9.62-6.2,13.91-1.84,2.91-5.44,6.43-3.73,9.74,2,3.93,8.47,6.44,11.82,9.12,5,4,9.58,8.32,14.14,12.74,8.18,7.92,16.65,15.6,24.66,23.69,7.61,7.69,15,15.53,24.58,20.77,21.06,11.51,39.61,27.59,58,42.88,18.76,15.59,37.3,32,53.58,50.19A165.86,165.86,0,0,1,867.21,436c3.19,5.91,6.62,11.68,9.82,17.59,1.41,2.61,3,5.15,4.3,7.83,1,2,1.58,5.21,3.35,6.69,3.5-7.77-2-18-5.13-25-2.16-4.78-4.28-9.58-6.42-14.38-1.5-3.36-4.61-7.42-4.78-11.18-.42-9.12,11.33-2.56,14.55.37,8,7.24,12.58,18.12,18.22,27.11,1.33-7.16-12.9-18.2-7-24.43,4.67-4.94,13.29,6.64,15.91,9.77,1.79-8.84-2.81-17.49-7.61-24.57a218.93,218.93,0,0,0-17.89-22.49c-14.83-16.6-31.77-31.38-48.54-46S802.14,308.8,785,294.78c-16.6-13.62-33.45-27.23-52-38.13-10.4-6.11-21.32-11.23-31.94-16.93C690,233.74,679.42,226.75,668.17,221Zm-145-20.14a23.45,23.45,0,0,0-3.5.71c-.91,1.07.31,4.56,1.39,5.19-3.73,2.78-7.91,5.31-12.64,5.75,3,2.92,8.63,8,7.75,12.74-1.21,6.48-9,1.93-12.15,0-5.06-3.15-10.23-6.49-13.94-11.23-2.35-3-3.15-6.21-4.91-9.46-1-1.76-.4-2.08-2.52-2.2-2.42-.14-6.56,2.16-8.81,3.07a90.18,90.18,0,0,0-10.1,4.87,79.37,79.37,0,0,0-16.56,12.35c-10.21,10-17.12,23.17-18,37.57,7.24-.86,14.32-4,20.43-7.88,4.34-2.77,8.78-6,9.55,1.8.29,3-.56,10.14-2.39,12.5-1.71,2.21-2.45.42-4.22,1.74-2,1.53-1,3.73-1,5.88l-3-2.49c-1.79,2.34.23,1.09.91,2.5.39.82-2.3,3.2-2.84,3.62-1.11.87-1.73.15-3,1.4-.82.8-1.7,2.6-2.59,3.61-4.58,5.19,1.49,13.32,3.89,18.82,1.78,4.07,3.71,8.06,5.56,12.1,1.36,3,2.09,6.47,3.89,9.19,3.56,5.41,11.74,2.46,17.08,1.79,7.24-.9,14.35-1.82,21.59-2.5,4.25-.4,9.05-2.87,3.6-6.07s-24.12-3.77-24.24-11.94c-.13-8.68,11.93-10.12,18-9.37,8.84,1.09,14.56,3.32,20.61,10-1.35-12.74-10.39-23.27-12.4-36-.55-3.47-2.23-24.86,6.11-15.62,4.46,5,8,12.44,11.3,18.16,5,8.67,9.35,17.67,13.94,26.55,4.37,8.48,10.78,16.62,13.85,25.64,1.72,5.07,4.13,15.73,9.6,18.32,3.51,1.66,9.43-.52,13-1,2.24-.33,4.43-.65,6.35-1.94,1-.67,2-2.41,3.23-2.6,3.61-.56,4.55,5,4.3,7.51-.38,3.92-2.18,4.94-5.84,5.39,6.17,3-3.33,12.47-5,16.24-.09-.19-1.17-2.84-2-2.84-1.6,0,4.89,12.79,5.38,13.68,3.41,6.17,7.69,11.72,11.82,17.41,2.38,3.27,5.8,11,10.64,10.27,2.68-.4,8.24-5.92,10.35-2.14,1.9,3.41-4,7.07-4.85,9.78-1.48,4.55,4.09,9.34,7.37,11.72,8.71,6.32,20,7.81,30.29,9.72-2-2.65-6.26-4.1-6.34-7.89-.06-2.59,1.77-4,.53-6.81-1-2.31-3.56-3.66-4.32-6.14-.84-2.74.48-5.84,2-8.1,6.37-9.58,20.61-5.6,29-1.24a4,4,0,0,0-1.53,1.17l-.1.13h0c1.08-.66,5.72,1.4,6.3,1.81a29.2,29.2,0,0,1,5.56,6.3c4.06,6.12,4.64,13.59,2.53,20.54,25.46,0,49.44-6.79,72.22-17.6,5.21-2.47,10.32-4,15.25-7.16s9.87-6.74,14.84-10.06c4.68-3.12,4.25-5,1.12-9.43-3.81-5.4-7.16-11.16-11.39-16.25-.65,1.41-.9,4.23-2.29,5.1s-2.94-.94-4-.22c.09-.07-3.17,5-3.7,3.75,1.36,3.27-4.09,1.18-5.06.57.23,3.07-2.32,5.71-3.75,1.61-3.89,3.55-13.1.3-8.13-5.19,2.45-2.7,5.12-4.14,6.67-7.68a36.53,36.53,0,0,0,2.54-12.71c.51-10.08-4.94-14.79-11.78-21.33-3.82-3.65-7.81-7.11-11.74-10.64-3.45-3.11-6.44-6.95-10.06-9.82-2.61-2.07-4.68-2.66-7.21-.87-1,.74-1.38,1.68-2.72,2.39a19.63,19.63,0,0,1-6.16,1.72c-9.62,1.19-20.74-2.1-29.55-5.65-2.41-1-3.57-2.56-5.65-3.76-1.32-.76-2.45-.3-3.85-1.21-3.66-2.37-3.48-6.19-.82-9.15,6.24-7,15.2-.7,21.57-6.32,8-7-5.3-16.67-10.64-21-4.29-3.42-8-4.17-13.2-5.07-1.09-.19-8.36-2.28-5.82.73-5.64-.14-8.42-.12-13,3.4-1.19.93-2.78,1.8-3.1,3.38-.18.83,1.54,1,1.54,1-.23.56-2,1.57-2.2,1.75,2.9.35,2.15,6.06,1.4,6.09h0l.08.08c1.27,1.2-1.59,3.05-2.57,3.36-2.76.88-5.37-1-7.22-2.95-4.13-4.29-7.13-11.59-6.86-17.54.37-8.35,5.85-13.19,10.37-19.45,3.39-4.68-1.64-7.17-5.14-10.11-4.29-3.59-10.11-8-11.52-13.73-1.28-5.22,2.27-7,6.83-5.43,6.16,2.12,11.15,7.57,16.61,11,4.84,3,11,9.21,16.88,9.56-1.09-3.87-6.47-3.46-8.55-6.33-2.75-3.79,1.52-5.48,4.75-5,2.51.34,9.66,5.65,9.48-.47-.1-3.28-5.57-4.38-8-5.33a187,187,0,0,0-37.33-10.33c-4.16-.72-5.22-.21-7.23,3.54-.68,1.28-3.13,7.14-4.48,3.25-1.76,3.19-2.27,6.59-6.09,7.87-4.86,1.63-11.12-.78-15.6-2.66a22.6,22.6,0,0,1-10-7.29,18,18,0,0,1-2.7-5.62c-.49-1.71-.26-4.53-1.15-6.08-1.49-2.61-5-2.05-7.77-2.31-6.11-.58-12.14-1.1-18.28-1.17C533,199.93,528.1,199.62,523.14,200.85ZM656,429.74c-2,.7,1.52,3,2.67,2.76C658.18,431.75,657.4,429.24,656,429.74Zm1.76-25.57,0,0a.41.41,0,0,0-.13.24l.13-.21Zm39.09-61.43c1.77,1.49,1,4.93,2.27,7a45.38,45.38,0,0,0,14.58,14.66c5.93,3.68,8.73,8.46,10.19,15.13.3,1.38,1.2,3.29.76,4.72s-1.91,1.77-2.37,3c-.21.54.67,4.75.56,4.76-.51.06-2-2.05-2-2-.59,1.46-.39,3.13-2,3.91l-.19.09,0,0c.4.31,2.21,1.81,1.78,2.14-.6.46-2.08.15-2.83.41-1.19.43-2,1.49-3.18,2-3.07,1.32-6.6.91-9.83.44-6.81-1-14.48-3.41-19.4-8.45-6-6.12-4.55-12.45-5.08-19.3-.61-7.69,4.94-19.35,9.39-25.31C691.05,343.86,694.1,340.45,696.83,342.74ZM207,282.91c-.38.91,0,2.33-.22,3.33a17.09,17.09,0,0,1-2.76,5.49c-2.12,3.18-4.25,6.1-5.69,9.68-3.54,8.81-6.83,18.3-8.52,27.64-3.64,20.05,8.51,36.58,9.17,56.11,5.58-5.88,14.07-6.16,21.63-6.17,10.06,0,20,.4,30.06,1.28,19.18,1.68,38.78,2.37,57,9.38a32.08,32.08,0,0,0,5.51,1.52c2.21.47,1-.57,2.65.74.43.35.61,1.62,1.06,2.07,2.35,2.29,3.76.73,5.74-1.73,5.48-6.78,10.94-12.95,18-18.22,15-11.23,31.79-16.42,50.28-18.09a314.08,314.08,0,0,1,31.58-1.4c10.16.1,20.89.28,30.52,3.92-2.4-6.85-6.49-13-9.78-19.42a76.13,76.13,0,0,0-5.12-9.28c-1.79-2.52-4.49-4.58-5.73-7.47l-.67,1.74c-19.54-5.6-39.7-8.62-59.74-11.82s-40-7.67-60.1-11.1c-10.09-1.72-20.21-2.76-30.37-3.91-9.78-1.11-19.21-3.28-28.85-5.13s-19.27-4.13-28.87-6.71c-4-1.08-7.84-2.56-11.76-3.86C208.81,280.46,208.1,280.24,207,282.91Zm432.26,35.54c.59,2.4-1.28,5.49-1.88,7.77-.68,2.58-2.15,3.61-2.91,6-.67,2,.53,12.85-4.68,9.62.16.78,1,1.84,1.1,2.53.12.86-.72,2.18-.48,2.92s2.51,2.63,3.06,3.75a64.1,64.1,0,0,1,4.82,14.22c1.12,5,2.49,11.88-1.64,15.32a34.3,34.3,0,0,0-2.87,2,3.45,3.45,0,0,1-1.26,2.27.84.84,0,0,1-1-.29c-1.25.68-.84-2.19-2.31.6-.36.67.28,3,0,2.74-.58-.43-2.32-2.25-2.89-2.29-1.27,1.73-1.24,0-2.58.22a1.16,1.16,0,0,1-1.17,1.18l-1.69-.39c-3.41,0-8.45-1.41-11.73-2.32-6.26-1.73-10.72-6-12.08-12.55-2.82-13.59,8.6-30.57,16.77-40.44C616.61,327.94,636.21,306,639.23,318.45Zm54.55,43.76c-.09,1.14.27,2.85-1,3C692.82,363.9,692.28,362.25,693.78,362.21Zm-89-1.93c.58,3.29.72,1.41-.61,3.67A3.78,3.78,0,0,1,604.78,360.28ZM699.49,356c.51.63,2.45,2.34.78,2.77C698.8,359.19,699.43,356.82,699.49,356ZM629,333.24c-.66,3.54,1.34,2.69,4.1,2.05ZM117.27,190.47c-13.23,11.35-13.62,31.19-13.21,47.17.57,21.7,1.89,43.47,4,65.08.95,9.76,3.74,14.73,13.38,18,10.44,3.55,21.68,2.86,32.51,2.23-2.07-16.1-6.12-37.28,10-48a8.86,8.86,0,0,1,4.63-1.79c1.19-.07,2.89,1,4,.46,2.28-1.11,1-4.27.23-6.06-2.27-5.43-6.61-9.78-10.12-14.39-4.42-5.78-8.21-5.63-14.81-4.91-2.63.28-13,1.46-10.93-4.15,1.48-4.08,9.6-3.06,12.89-4,2.5-.71,3-1,2.9-3.58-.17-4-2.45-5.07-6-5-4.56.14-12.45,2.57-16.25-1-5.42-5.12,2.62-8.71,6.7-9.4,4.26-.73,10-.07,11-5.35.93-5-1.72-11.14-3.8-15.58s-4.76-9.76-8.95-12.34C129.51,184.24,122.21,186.23,117.27,190.47Zm51.33,94.82c-5.37,1.2-8.46,8.2-9.08,13.09-.61,4.73-.19,11.48,3.27,15.12,4.56,4.77,12.49,4.45,17.39,8.92a109.73,109.73,0,0,1,11.46-30.77c-4.16-1.15-8.22-2.63-12.33-4C176.31,286.72,171.83,284.56,168.6,285.29ZM513.44,308.5c1.2,1,1.58,1.34,1.89,3C512.47,311.64,513.33,310.72,513.44,308.5Zm28.36-76.65c4.47.12,6.56,1.57,10.15,3.71,2.56,1.52,5.66-.12,5.66,3.76,7.29-5.73,20.9,9.07,26,13,5.39,4.09,10.71,8.91,11.3,16.21.18,2.16-.27,4.38.06,6.53.24,1.62,1.27,3.24,1.09,4.93-.2,1.95-1.85,3.09-2.23,4.92-.15.73.36,2.18,0,2.77-3.27,6-7.46,10.92-14.64,11.51a23.56,23.56,0,0,1-17.71-6.08c-4-3.86-6.45-9.66-7.5-15.08-.18-.94.17-3.09-.14-3.88-.45-1.16-1.13-1.18-1.69-2.12-1.47-2.48-3.59-7.15-1.68-9.87-4.72,1.06-8.31-9.06-10.08-12-1.32-2.21-4.51-3.94-5.39-6.09-1.22-2.95,3.14-4.22,1.63-6.27-.81-1.1-5.15-.35-4.72-3.11C532.36,232.07,540.1,231.81,541.8,231.85Zm91.55,51.26a.28.28,0,0,0,.14.09h0ZM620.88,261c.41-.36,2.6-2.58,2.86-.91C624,261.48,621.53,261,620.88,261ZM416,87.86c-4.77.29-9,5.43-12.56,8.13a66.06,66.06,0,0,1-17.82,9.23c-7.27,2.61-14.74,4.92-22.21,6.9s-15.46,2.41-23,4.5q5.61,10.25,11.21,20.51c1.64-2.26,1.08-4.81,3.77-6.43,1.87-1.12,4.58-1.28,6.7-1.69,5.88-1.16,12.35-2.19,18.32-1,3.86.78,8.15,3.75,4.5,7.89-2.31,2.62-7.27,2-7.67,6.1-.39,4,3.67,7.4,2.73,11.59-1.32,5.88-7.2,4.12-9.81.32-2.33-3.4-1.45-9.43-5.05-11.87-2.15-1.46-7.89-2-10.2-.74,4.25,7.84,12.51,17.51,7.67,26.89-1.49,2.88-4.75,4-2.57,6.8,2.52,3.27,9.77,6,13.63,5,3.62-.94,7.76-5,11.83-3,3.84,1.91,1.12,5.14,1.46,8.13,1,9,19.48,3.87,24.5,2.67s10.27-4.1,15.46-4.22c4.9-.11,9.45,2.25,13.33,5,2.9,2.07,7.73,8.12,11.42,8.32s8.94-5.27,12.2-6.92c5.86-3,12.25-3.84,18.46-5.82,1-.31,5.29-1.2,5.36-2.64s-5-4.4-5.87-5.06c-7.9-6-13.68-14.33-21.89-20A37.68,37.68,0,0,0,448,151c-2.37-.63-8.84-1.48-9-4.86,11.39-1.91,11.67-16.12,6.87-24.18-3.05-5.12-7.79-7.56-13.78-6.46-8.67,1.6-10.26,7.95-12.24,15.49-7.09-3.86-14.82-13.3-15.24-21.62C404.08,100.15,414,96.18,416,87.86ZM627.55,150a249.08,249.08,0,0,1,35.14,9.1c7.09,2.42,17.4,4.5,23.53,9,1.79,1.32,4,4.24,2.41,6.57-1.4,2-4.85,1.47-6.88,1.15-9.26-1.42-18.32-5.29-27.47-7.38C630,163,605,160.36,580.14,158.58c-6.86-.49-13.71-.91-20.57-1.39-5.71-.4-12-.22-17.57-1.52-4.41-1-5.5-4.25-2.2-7.9s8.61-3,12.92-3.65C577.81,142.48,602.91,145.46,627.55,150ZM586,121c8.13,2.8-1.37,4.14-4.93,3.85-1.2-.1-17.11-1.68-17.11-1.19-3.17,0-11.57,2.43-13.85-.78-2.45-3.45,8-4.66,10.15-4.81C568.38,117.48,578.14,118.3,586,121Z" transform="translate(-94 -46)" fill-rule="evenodd"/></g></g></svg>