<svg id="Layer_1" data-name="Layer 1" xmlns="http://www.w3.org/2000/svg" viewBox="0 0 564.5 616.88"><path d="M1223.66,469.63" transform="translate(-219.27 -177.42)" fill="#020204" fill-rule="evenodd"/><path d="M753.09,668.32" transform="translate(-219.27 -177.42)" fill="#020204" fill-rule="evenodd"/><path d="M252,178.1a40,40,0,0,0-32.71,39.32V754.3A40,40,0,0,0,252,793.63Z" transform="translate(-219.27 -177.42)"/><path d="M693.77,177.42H264.48V794.3H693.77a90,90,0,0,0,90-90V267.42A90,90,0,0,0,693.77,177.42ZM631,514.62q-10.18.82-13.2,6.57t-3,28.76V631.3h-7.54a60.82,60.82,0,0,0-3-15.21q-2.64-8.21-8.67-8.21a26.08,26.08,0,0,0-7.54,1.64q-4.9,1.65-15.45,7.4a187.72,187.72,0,0,1-30,14.17,93,93,0,0,1-32.61,6q-68.24,0-103.1-39.24T372,488.74q0-46.42,18.09-80.94T440.07,354q31.86-19.31,72.95-19.3,26,0,42.59,7.8a136.13,136.13,0,0,1,29.79,18.9c2.76,2.46,5.27,3.7,7.53,3.7q7.17,0,9.43-24.65H611q-.76,16-1.13,39.44t-.38,61.62h-8.67q-2.64-27.12-8.67-46.22t-23-32.66a62.15,62.15,0,0,0-20.55-12.12,68.8,68.8,0,0,0-23.56-4.31q-21.12,0-35.62,12.53t-23.57,32.87a180.68,180.68,0,0,0-13,45.19,316.76,316.76,0,0,0-4,49.91q0,73.95,17.53,108.05t48.82,34.1A42.6,42.6,0,0,0,528.47,627a31.62,31.62,0,0,0,9.43-4.72,19.67,19.67,0,0,0,6.78-8.63,34.75,34.75,0,0,0,1.89-12.33V560.63q0-19.3-3-29t-11.12-13.15q-8.11-3.48-23.94-3.9V506.4q8.29.42,20,.62l24.51.41q12.81.21,23.74.21,17,0,31.1-.42T631,506.4Z" transform="translate(-219.27 -177.42)"/></svg>