<svg id="Layer_1" data-name="Layer 1" xmlns="http://www.w3.org/2000/svg" viewBox="0 0 571.7 502.68"><path d="M580.35,369.22l-99.78,99.17,17,16.84c9.37,9.27,17,17.09,17,17.47,0,.94,9.88,10.52,10.58,10.27.44-.19,91.55-90.66,149.22-148.19l9-9,4.31,6A224.71,224.71,0,0,1,727.68,467.7a289.08,289.08,0,0,1,.32,42.51,222.27,222.27,0,0,1-37.55,104.56c-29.12,43-73.76,75.31-124.15,89.84a217.72,217.72,0,0,1-63.06,8.7c-34.89,0-65.85-6.89-97.82-21.91-13.23-6.2-31.34-17.47-43.69-27.24-9.24-7.26-27.09-25-34.63-34.37A224,224,0,0,1,284.49,545c-4.87-19.22-6.65-33.75-6.65-54.53,0-30.18,5.13-56.22,16.59-84.46,9.37-23,24.82-47.39,40.71-64.36l3.67-3.94-21.4-21.23L296,295.16l-1.83,1.75c-2.85,2.63-12.41,13.58-17.29,19.85-28,35.68-47.93,80-55.59,124-3.48,20.28-3.8,24-3.8,49.46-.06,24.85.32,29.49,3.42,47.89,7.66,44.77,27.54,89.72,55.08,124.9a317.08,317.08,0,0,0,54.2,53.28C364.77,742.8,413,763.08,457.34,770c18.67,2.88,22.91,3.19,45.9,3.19s27.22-.31,45.9-3.19c44.63-6.89,91.68-26.8,127.19-53.72,45.34-34.43,78.51-79.45,97.06-131.85,7.16-20.16,11.4-38.25,14.56-62,1.59-12.08,1.59-52.34,0-64.17-4.93-36.31-13.8-65.61-28.93-95.17-13.61-26.67-27.22-45.76-46.79-65.73-15.32-15.59-26.84-25.67-30.83-26.86C680.32,270.18,663.67,286.45,580.35,369.22Z" transform="translate(-217.44 -270.48)" fill="#6c63ff" fill-rule="evenodd"/></svg>