<svg id="Layer_1" data-name="Layer 1" xmlns="http://www.w3.org/2000/svg" viewBox="0 0 862.89 663.03"><g id="react-group-271"><g id="react-group-272"><path id="react-path-275" d="M350,354.12l9.42,95.1L410.7,420v91.2c0,1.68-1,7.45,0,8.91.85,1.23,7.11,1.27,8.59,1.47q14.5,2,29.06,3.63C473.92,528,501.29,532,527,528.8c22.31-2.82,43.94-10.76,64.33-20q10.73-4.87,21.14-10.42c1.46-.79,6.79-2.65,7.59-4.25.66-1.3-.87-5.9-1.08-7.27l-2.58-17.38-12-80.89,22.72,22.7c1.78,1.78,5.16,6.82,7.63,7.61,1.8.58,6.28-1.21,8.06-1.55l38.61-7.44c3-.58,9.75-.56,12.28-2.37,1.36-1,1.43-3,1.91-4.84q4.69-18.45,9.41-36.89c.57-2.21,3.72-9.2,2.92-11.43-.29-.8-1.68-1.34-2.53-1.86l-58.27-35.59-31.92-19.5c-4.46-2.72-9.93-7.63-15-9.15-3.13-.94-7.7-.24-10.94-.33l-19.78-.56c-1,0-4.64-.77-5.51-.16s-.43,1.21-.66,2.42c-.58,2.94-.59,6.12-.87,9.11-.23,2.4.22,6.8-.86,9-.69,1.39.19.84-.75,1.51-1.11.79-4.66.54-6,.69l-19.38,2.25c-7.68.89-15.44,2.57-23.16,1.8-11.7-1.17-24.31-1.11-35.8-3.58-3-.64-4.06-2.32-6.36-4.62-4.49-4.49-8.94-9-13.49-13.47-2.22-2.17-1.27-1.8-3.56-1-2.88,1-5.8,3.53-8.4,5.12l-29.94,18.23-60.91,37.1L350,354.12" transform="translate(-81 -52.97)" fill-rule="evenodd"/><g id="react-group-273"><path id="react-path-276" d="M932.62,358.06c-12.56,47.67-37.82,99.65-88.69,114.84-12.37,3.69-24.41,6.48-37.26,5.08a22.57,22.57,0,0,0-3.4.06c-2.09,0-.29.79-2.63.06-1.82-.56-3.52-2-5.42-2.59-5.05-1.65-10.43-2-15.56-3.3-12.61-3.28-25.6-7.33-37.82-11.86-5.75-2.13-11-5.09-16.45-7.94s-11.33-4.7-16.89-7.36c-4.4-2.1-11.93-4.84-15-8.79-3.29-4.2,1.27-13.15,2.57-17.62,4.43-15.21,9.71-30.2,13-45.71,11.5,13.32,27.46,21.58,44,26.9a163.89,163.89,0,0,0,27.51,6.29c8.47,1.18,17.6,2.62,26.09.93,6.41-1.27,14.45-4.21,19-9.1,1.64-1.75,3.59-4.95,2.68-7.48-1.16-3.22-4.55-1.71-6.38-4.11-1.59-2.09-1.34-7-1.85-9.54a100.76,100.76,0,0,0-3.64-13.23c-2.93-8.43-6.58-16.88-7.45-25.85A36.17,36.17,0,0,1,814,315.85c1.84-3.19,6.44-11.88,10.94-11.52,4.94.4-1.72,21.21-1.94,25.45-.86,16.83,1.39,34.76,10,49.51,3.3,5.64,8.09,12.22,15.14,12.92,7.48.74,13.51-5.14,17.07-11.1,8.68-14.52,4.31-34.44-.09-49.66-5.4-18.67-19.48-31.55-28.38-48.32,13.29,1.34,20.41,9.78,27.23,20.5a123,123,0,0,1,16.24,39.68c1.46,6.93.45,13.89.46,20.89,0,2.33,0,10.91,3.8,10.57,4-.36,5.44-10,6-13,1.36-6.77,2.84-13.54,4-20.35,2.1-12,3-24.37,5.54-36.33.43-2,1.28-7.63,4.3-6.12,2.33,1.17,2,9.84,2,11.86.2,5,.5,9.94.54,14.91.06,7.37-1.41,15-.69,22.33.47,4.78,3,10.07,6.23,3.62s3.8-14.39,5.56-21.28c1.85-7.22,3.76-14.56,7.68-21,1.09-1.78,2.26-4.61,4.68-3.77,1.76.61,3.06,4.78,3.61,6.25,2.45,6.65,2,14,1.88,21a107.67,107.67,0,0,1-3.28,25.14ZM687.77,370.43a37.65,37.65,0,0,0-4.23-.55c-.83-.07.11-1.6-1.9-1.17a3.19,3.19,0,0,0,2.07,1.92c-3,1-5.24-1.49-7.3-1.82s-2.06,0-4,2.08c-2.11-2.57-1.71-1-3.45-1-.63,0-.65.95-1.68.84s-1-1.46-1.52-1.62c-2.88-.87-5.84,3.51-9.1-.29-.79,3.95-9.85-1-13.34-.31-3.65.73-2.08,2-5-.2s-2-.72-5.3,1c.07,0-1.85,1.26-1.67,1.28-2.27-.26-2.14-2.61-5-2.48-3,.13-4.33,2.51-7.11-.42-.61,2.19-.73,1.25-2.16,1.8a2,2,0,0,1-2-.62,1.48,1.48,0,0,1-1.18,1.11c-1.55.14-4.46.36-5.87-.39-2.11-1.12-.41-1.55-1.88-2.81-.66,3.48-2.1,2.74-5.14,3.06-2.31.25-2.82-.46-5-.81s-5,.51-7.12.87c-.88.15-2,.76-3,.55s-1.15-.82-1.63-1-.46-.7-1.47-.95c-.69-.17-1.94.48-2.63.59-5,.81-9.72.82-14.45-1.13,2.33,4.09-5.45,1.88-6.83.19-1.73,2.71-3.83.79-7.32,1s-8.42,1.23-9.78-3a11.14,11.14,0,0,1-2.94,3.7c-2.2,1.09-2.46-.52-4.51-1.18-2.79-.9-2.21.8-3.94,1.15-2.92.58-4.5-1.47-7.08-2.57-.11,1.7-.16,2.75-1.63,3.81-1.3-4.74-5.94.38-5.15-5.95-1.76,1.15-4.25,2-4.75,4.36,2.95-.81.31,1.12.19,1.19-.39.2-1.71-1.65-2-1.91-.08.87-.16,1.74-.25,2.62-1.17-.59-2.28-1.64-3.23-2.17s.37-1.47-1.09-1.54c-.76,0-1.56,1.63-2.37,1.77-1.23.21-.64-1.55-1.15-1.49-.78.09-2.06,1.24-2.65,1.21-1.95-.07-.63-1-2.12-1.39-2.65-.74-2.48,1-4.38,1.62-4.36,1.43-3.93-5.16-8.36-.76-1.06,1.05-1.75,2.67-3.2,2.58-3-.19-2-3.76-1.34-5.51.63.32-11,6.29-10.91,6.06.07-1.43,1.9-2.54.26-3.81-1.33,2.87-2.74,2.92-5.82,3.45-1.5.26-1.8.61-3.4,0-1-.39-1.71-2-2.72-2.11a13.27,13.27,0,0,1-2,1.56c-1.68.76-2.75-.1-4.38.21-1.39.26-1.94,1.45-3.33,1.13-1.85-.44-.76-2.65-3.31-2-.87.21-1.4,1.89-2.77,2.23-2.14.55-4.76-.46-7,.06a25.45,25.45,0,0,1-4.69.69c-1.27.07-.75-.92-3.08.25l-1-2.5-3.5,3.15a16.19,16.19,0,0,1-.43-2.86c-1.74,1.75-3.93,2-6.27,2.2a52.75,52.75,0,0,0-6.89,1.19,9.51,9.51,0,0,1-3.43.1c.09,0-1.2-.49-.81-.39-.17-.34-.33-.69-.47-1.05-.22-1-.93-1-2.12-.13-.62-.09-1.82-.9-2.44-.7-1.59.51-1.37,1.75-3,1.57-1-.12-1.55-1.64-2.62-1.75-1.64-.15-3.06,1.68-4.54,2.08,4.49-1.22-5.83-.27-2.62-.19-2.1,0-4.28-.16-6.23.79-1.07-.74.23-2.21-.85-2.82s-1.06.9-1.18.94c.62-.18.31,1.06-.31,1.28-1.93.68-3.48-1.06-3.58-2.79-1.65,2.47-2.11,1.48-4.53,1.63s-4.44,1.4-6.82,1.38c-4.72,0-7.92-1.68-9.5-5.9,5,.61,10.09-2.62,15-1.86,1.61.25,2.62,1.47,4,1.25,1.74-.26,3-2.17,5.2-2.37,4.93-.45,9.79,0,14.76-.77a82,82,0,0,1,18.11-1c4.63.34,8.38-1.43,13.07-1.77,6.07-.44,12.19-.52,18.27-.84,6.25-.33,13-1.32,19.2-1a46.91,46.91,0,0,0,5.55.17c.81,0,1.59-.6,2.44-.52,1.12.11,1.6,1.25,2.76,1.21,2-.07,4.06-1.69,6.4-1.73,3.84-.07,7.67-.07,11.52-.28,3.4-.2,7-1,10.41-.95,2.38,0,3,2.06,4.35,2.27,2.5.38,15.13-6.81,16.22-.36,6.57-4.5,15.39-.69,22.7-1.53,9.4-1.09,19-.12,28.44-.51A217.82,217.82,0,0,1,601,359a76.35,76.35,0,0,0,11.8.5c1.77-.1,3.83-.55,5.6-.14.43.1,3.73,2.4,3.32,2.46,1.8-1.61.58-1.85,3.74-1.93,2.44-.07,4.75.46,7.18.6,4.35.26,8.74-.34,13.08-.21,3.63.11,7.18.65,10.83.67,3.93,0,8.57.14,11.41,3.31l-.9-3c4.39.34,8.73,1.91,13.16,1.17-1.12,1.08-2.26,2-2.69,3.53,2.4-.3,4-2,6.53-2,2.12,0,2.56,1.05,4.79-.33.28,1.68.55,3.36.83,5,3.09-.73,1.06-3,1.29-5.11,2.51.75,4.64-.11,3.65,3.5-.77,2.79-4.25,4.17-6.86,3.32Zm-4.35,31.05c-1.08,3-10.41,1.3-12.61,1-2.86-.41-6.12-1.07-8.74-1.39a4.6,4.6,0,0,0-1.13-1.07,2.68,2.68,0,0,1-1.26,1c-1.2.26-1.2,1.51-2.79,1.23-.07,1.84,1.21.8,2.19,1.46-2.47,1.66-1.34-.25-2.73-.22a1.36,1.36,0,0,0-1.43-.57,6.65,6.65,0,0,0-2.16,1c-.62.65-1.15.69-1.59.11a2.7,2.7,0,0,0-1.54-.79c-2.43.4-3.11,1.47-5.85,1.3-3.91-.25-8.15.78-12,.23-2.39-.33-6.37-4.08-7.46-.43-1.65-2.71-4.28-4.55-5.86-7.32,7.36-.43,14.72-.93,22.09-1.2,6.45-.23,13.5.49,19.53.19,5.65-.28,11.63-.91,17.39-1.42,6.11-.55,8.13.79,5.95,6.93Zm-192,.45c2.68.74,5.22-.94,7.81-.41.86.18,2.63,1.74,3,1.77.72.06,2.82-1.48,3.72-1.68a53.47,53.47,0,0,1,18.28-.36c3,.42,3.48-1,6.11-1.63s6.63-.16,9.51-.36c6.78-.45,13.55-.13,20.28-.62,6.92-.51,13.79-.79,20.71-1.14,4.71-.24,16-2.93,19.94.57,3.22,2.88-.93,7.89-4.15,9-2.41.85-3.57-1-5.35-.78-2,.2-1.33,2.61-3.15.37-1.12,2.22-8.2,1.28-10.23,1.42-4.42.32-8.16,1.21-11.17-2.91.21,1.19.41,2.38.62,3.56-4-2.13-8.27-1.45-11.74-.7-1.71.37-7,2.91-8.83,1.81-1.28-.75,1-2-1.19-2.69-1.13-.33-3.08,1.54-4.46,1.45-3.82-.26-2.74-2.83-6.49.44a5.37,5.37,0,0,1-1.53-4.58c-2.73,2.33-2.5,6.21-7.37,5.5-1.82-.27-2.15-2.12-3.1-2.46-2-.73-2.25.58-4,1.62a6.14,6.14,0,0,1-2.24,1.09,2.7,2.7,0,0,1-2.07-.54c-1.06.11-2.4.65-3.66.27s-1.46-2.35-3.45-1.88-1.92,1.74-1.58,3.68c-1.88-.19-3-1.24-4.42-2.37-1.42,3.31-4.41.56-6.07,3.36-2.15-2.57-3.53-1.86-6.2-4.38l.39,3.15c-2.09-.4-3-1.87-4.79.07-1.73-3.22-7,1.37-9.66-1.74-1.2,3.94-9.13,3-12.48,3.06-3,.06-5.17-.18-8.07.51a28.39,28.39,0,0,1-8.52,1,22.66,22.66,0,0,0-5.26-.26c-2.83.31-5.28,1.78-8.21,1.08-4.41-1-7.12-6.84-2.2-9.38,3.36-1.75,9.42-1.1,13.13-1.42,6.13-.53,13-1.65,19.15-1.14,4.79.39,9.16-.75,14.05-1.23,3.68-.37,9.71-1,12.11,2.63.92-1.07.83-3.29,2.81-2.74Zm-67.16,49.94c-.66-3.28,27.39-5.09,30.17-5.31,5.85-.45,11.71-.77,17.57-.92,4.82-.12,9.31.8,14.13.06,4.5-.69,9.93-2.1,13.84,1.08.58-4.36,17.46-2.23,20.68-2.22,14,.05,27.36.08,40.88-.78,7.73-.5,15.94-1.16,23.67-.78,3.49.18,6.3,1.11,9.76.3,2.27-.53,4.7-1.62,6.87-.07,2.53,1.81,3.61,8,1.87,10.52-1.27,1.88-2.4,1.67-4.43,1.34-3.12-.49-5.44-1.21-8.62.05a10.4,10.4,0,0,0-1.91.37c-3.6.27-8.54,2.79-11.65-.11,1.25.21,3.05-2,1.49-2.19-1.18-.14-1.93,1.13-2.85,1.55-3.14,1.45-4.75,1-6.63-2-3.78,3.28-4.19,2.37-5.85-1.67-1.28,1-1.56,3.32-2.57,4.09-.15.11.47,1.53-.25,1.47s-.9-1.16-1.42-1.25c-.33-.06-.5-1-.82-1.08s-.7.55-1.09.53c-1-.05-4,2.17-2.94-.94-1.58,2-2.26.73-2.83-1.1l-5.46,4.15c-.84-2.35-2.3-1.71-4.13-.89.55-1.63.2-3.18-1.18-2-.8.66-1.34,2.74-2.16,3.63-3.33-3.36-4.53-2.44-9.13-2-1.75.16-3.93.49-5.49-.57-1.38-.93-2.16-4.35-4.51-1.59.52-.61-.3,4.1-.44,4.85a10.32,10.32,0,0,1-2.65-2.58c-1.35,2.68-4.91.27-7.82.82-4.59.87-9.32,2.32-13.37-1.1-.29,1.11-3.61,2.51-3.61,2.55.2-1.95,1.43-1.26-1.09-1.63-.46-.07-1,.76-1.42.85a21.65,21.65,0,0,1-4.76,0c-6.29-.19-12,1.21-18.25,1.71-2.09.17-4.57.51-6.54-.28s-2-1.74-4-1.22c.65-.16-1.28,1.86-1.17,1.79-.28.2-1.43-.79-1.84-.72-.12.43-.23.87-.35,1.3l-1.48-.18c-1.35.18-2.57-1.19-3.84-1.24.24,0-3.42,1.37-3.25,1.46-2.55-1.28-1.82-.91-5.06-.13-3.06.73-6.1.56-9.24,1-9.14,1.32-3.69-3.25-4.82-8.84Zm-8.06,45.65c-1.72-2.44,2.85-3.28,4.31-3.49,2.4-.36,5.58.34,7.18,0,2.44-.58,4.79-2,7.53-2.33,3.46-.48,6.94-.55,10.42-.85a28.33,28.33,0,0,1,3.71-.43c1.68.1,2.38,1,3.73,1,2.31,0,5.15-1.44,7.51-1.71,3-.34,6.09-.5,9.13-.65,6.41-.32,12.75-.19,19.15-.2,2.92,0,10.7-3,12.16.37,2-2.58,7.22-2.23,10.11-2.3,5.1-.13,10.15-.62,15.24-.86,4.37-.2,9.24.73,13.53.08,2.36-.36,3.14-1.12,5.82-.78,2,.25,5-.8,6.73-.33-.09,0,2.13,1.35,1.44,1.39.76-.05.71.49,1.55.25,1.11-.31.6-1.7,2.89-2.2,3.57-.76,8.33.13,12-.07s7.19-.28,10.79-.26c1.66,0,3.71-.39,5.33-.06.79.15,2.47,1.19,3.14,1.08,1.89-.29,2.86-1.61,5.43-1.53a76.29,76.29,0,0,0,8.42-.17c2.8-.21,3.25-.61,4.64,1.72s1.75,5.32-.78,6.89c1.64-.11,3.67,2.09,1.73,3.31-1.2.76-3.6-.95-5-.82-1.76.15-3.15,1.08-5.07,1.14s-4.08.57-6.07.61-3.65-.89-5.62-.49c-1.73.35-1.91,1.77-4,.52-1-.62-1.21-2.92-2.63-2.94-1.89,0-1.14,2.42-2.23,3.55-.29-3.5-3,2.3-4.07-2-1,1.41-4.66,3.38-6.44,2.25-1.62-1-1.08-3.37-1.75-5.06-1.13,3-4.14,6.17-3.87.66-1.46,1.8-5.42,1.51-4.43,4.67-1.19,0-1.47-1.73-2.48-1.86s-1.55.56-1.69.55c.48,0-1.42.67-1.44.68,1.28-.27-3.7-.71-2.86-.7-1.15,0-2.57.94-3.92.93a35.59,35.59,0,0,1-3.67-.62c-3.15-.36-2.5.33-4.47,1.32-.74.36-.92,1-2,.91-.77-.06-1.06-1.06-1.15-1.07-1.07-.11-.28-.47-2-.3-.2.33-.39.66-.58,1a1.85,1.85,0,0,1-2.36.58c-2.48.53-10.71,2.84-9.9-1.43l-3.79,1.85c-.54-3.45-7.39,1.12-8.92,1.35-2,.29-2.14-.46-4-.86-.33-.07-1,1-1.79.87-2-.41-2.4-.61-2.75-2.82-1.45,2.71-2.66,1.5-5.29,1.95-.58.1-1,1.24-1.79,1-.61-.14-.62-1.24-1-1.38s-.32-1-.87-1.12-2.78,1.62-3.4,1.89c-1.4.62-3.69,1.63-5.05,1.33-1.68-.38-.93-1.62-3.31-1.48-3.75.22-5.31,3.41-7.65-1.62-1.05,2-.92,2.56-2.61,3.23-1.25.49-4.42,0-6.06-.09-7-.26-13.94,2.14-20.91,1.51-3.07-.27-5.65-.89-8.74-.39-3.25.53-6.43,1.31-9.73,1.62-1.67.16-5.17.64-6-1.5-.72-1.89,2-3.18.47-5.32ZM430,574.86c-9.11,6.09-16.67,14.42-25,21.48s-15.05,14.93-22.6,22.76c-7,7.24-13.39,14.09-21.83,19.55-5.34,3.47-10.1,7.73-15.58,11-4.11,2.45-10.34,5.66-8.33-1.82,2.05-7.66,5.85-15.4,9.14-22.56,4.68-10.17,9.4-20.25,14.46-30.23,1.91-3.75,3-7.48,6-10.47,3.28-3.25,5.58-7.49,9.18-10.57,15.13-12.91,37.94-2.93,54.61.87Zm28.6,4.37c-4.13,2.17-8.76,2.71-13.14,4.14-3.74,1.23-7.21,3.4-11.23,3.56,3.66-2.75,6.8-6.48,10.92-8.56,4.64-2.35,8.85-.64,13.45.86ZM640.09,597.3c-15.22-5.13-29.38-12.69-44.2-18.78-2.56-1-22.56-7.64-22.15-10.78,14-2.56,28.45-7,42.5-2.17,12.79,4.38,23.18,14.86,33.08,23.64,2.58,2.28,18.55,12.71,17.12,16-1,2.31-8.68,1.68-10.5,1.21-2.35-.62-3.7-2-5.54-3.61a30.37,30.37,0,0,0-10.31-5.54ZM612,511.54c2.31-2.12,3.7-5.35,5.9-7.31,2.84-2.52,7.42-1.29,10.51,0,9.31,3.93,17.26,10.54,26.5,14.64,10.25,4.54,19.12,10.62,28.36,16.88,8.45,5.72,17.58,10.45,26.2,15.92,8.79,5.56,18.62,9.18,27.53,14.55s18.09,11,26.8,17c15.53,10.73,31.71,21.76,43.2,37a163.12,163.12,0,0,1,15.76,25.55c3.94,8,8.22,19.13,3.11,27.46-4.9,8-13.26,14.3-20.33,20.27-2.68,2.26-5.23,5-8.7,6-4.22,1.19-9.15.86-13.49,1.21-23.23,1.89-44.86.11-67.75-4-22.06-4-44.22-6.25-66.46-9-12.54-1.57-25.09-3.4-37.46-6-5.29-1.11-10.67-2.4-15.85-3.93-4.52-1.33-8.32-4.26-13-5.42-19.72-4.92-42.29-6.8-61.82-15.09,17.28-7.18,35.65-11.52,53.36-17.49,18.64-6.28,36.85-11.55,56.49-13.33,10.11-.92,19.16-3.5,28.89-6.2,9.27-2.58,18.94-3.37,28.46-4.52,4.24-.52,16.32.25,17.72-5.28,2.09-8.24-9.78-9.19-14.84-8.45-7.18,1-13.1,2.83-18.59-3s-11.07-12.18-16.78-18.11c-10.59-11-21.5-23.75-36.47-28.69-18.27-6-39.45-.31-57.67,3.12-19.25,3.62-38.46,7.09-57.35,12.35-7.82,2.18-17.91,7-26,6.21a136.26,136.26,0,0,1-24.79-4.38c-3.5-1.05-6.38-3-9.51-4.78-4.07-2.35-8.53-3.85-12.85-5.68-8.73-3.68-17.25-7.08-26.67-8.53-7.93-1.22-16.36-1.94-24.05.84s-14.23,8.29-19.5,14.22c-5.71,6.45-10.44,13.68-15.13,20.89-2.25,3.45-5,6.47-7.32,9.85-2,2.84-3.1,6-5.17,8.76-4.63,6.17-7.78,14.07-10.59,21.25-3.12,8-6.58,17.47-5.84,26.14.28,3.28.58,7.63,1.85,10.67,1.61,3.87,3.91,3.77,7.23,5.23,5.7,2.51,7.3,9.43,14.66,8.08,6.91-1.26,12.9-6.95,17.94-11.49,6.57-5.91,12.86-12.15,19.14-18.36a146.81,146.81,0,0,0,17.94-21c2-3,3.59-6.28,6-9,3-3.43,6.45-3.84,10.58-5.2,36.1-11.93,72.37-23.43,109.6-31.31,8.92-1.89,17.91-4.32,26.67-6.83,9.29-2.66,14.1.15,21.77,5.22,16,10.59,35,18.05,52.8,25,5.62,2.17,14.56,2.31,18.95,6.6-26,4-50.83,11.6-75.94,19.21-12.37,3.74-24.9,7-37.32,10.58S504.28,648,492,652s-25.1,5.67-37.42,9.38a331.7,331.7,0,0,1-38,8.69c-13,2.33-26,5-39.06,7.09-6,1-12,1.95-17.89,3.26s-11.39,4.35-17.22,5.07c-26,3.18-51.5,10.27-77.4,14.27-19.34,3-53,7.17-65.53-12.23s2.86-42.28,16.66-56.24a184.22,184.22,0,0,1,28.34-23.09c10.83-7.27,21.24-15.11,32.07-22.37,24.5-16.42,51.08-29.81,77.4-43,12.64-6.34,24.85-13.13,37.14-20.08,6.1-3.45,9.48,2.12,14.3,5.9,3.79,3,10.76,10.31,16.06,6.92.21,1.22.41,2.44.62,3.67l4.66-2.13c1.05,2.74.92,4.44,3.84,5.88,1.79.88,5.61,1.94,7.32.39l1.05,3.24c1.49-.11,1.78-4.38,2.06-5.38,2.56,3.73,6.1,6.86,10.59,7.91,0-.24-.73-3.31-.69-3.33,1.42-.87,3.21,2.86,4,3.66,2.5,2.64,4,2.23,6.75.1.2.21,1.14,2.65,1.27,2.61.6-.19,1.74-2.35,1.86-2.55-.17,2.85,5.32,3.42,7.26,2.81l-1.3-2.5c6.75-.9,9.4,6.27,15.89,5.91,4.79-.27.94-1.32,3.66-3.37,2.37-1.8,2.79,2.13,3,2a5.07,5.07,0,0,0,1.05-1.63c.88,3.36,7.86,6.38,7.14.85,2.75,1.1,4.7,2.92,7.74,3.31,3.69.47,7.64-.32,11.32-.62,8-.66,15.43-2.29,22.59-5.92,4.25-2.16,8.76-4.12,12.75-6.72,3.34-2.18,9.68-8.79,14.12-5.94-1.13-3.36,4.23-.25,4.4-4.58l2.58,2c.52-1.13.37-2.92,1.06-3.9,1-1.36,1.42-.56,2.23-1.32s1.69-3.14,2.78-3.79,2.43.13,3.64-.45c1.83-.9,9.72-9.59,8.38-2.14,3.4-1.15.78-2.21,1.2-4.47.85-4.53,2.93-1.27,5-.87,3.38.65,3.31-2.15,5.19-4.18,1.72-1.85,5-2.68,3.84-5.9,1.27.69,1.54,2,1.69,3.33ZM408.39,414.82c-2.67,3-4.66,1.69-7.62,1.26-.31-1.06-.85-1.21-1.62-.44a8.3,8.3,0,0,1-2.83,1c-2.42.6-4.94.34-7.32,1.25.07-.8.91-2.21.37-3-2.49,1.73-4,2.83-7.11,2.86-2.48,0-6.84-1.87-8.9.4-.06-.88-.13-1.77-.19-2.65a8.69,8.69,0,0,0-2.64,2,5.54,5.54,0,0,0-1.08-3.35c-1.64,3.37-3.44,3.45-6.63,2.16.45.18-3.19-1.95-3.05-1.36-1.15-4.84,17-4.44,18.91-4.64,4.76-.48,9.52-.75,14.28-1.19,4.52-.42,7.9-1.12,11,2.65-1.39-5.45,11.8-5.18,4.41,3.06ZM200.27,330.34c.5,8.23,2.33,17-.87,24.91-2.57,6.38-7.71,13.57-13.24,17.73-11.33,8.51-20.93-1.91-22.5-13.35-1.65-11.94,1.61-26.53,11.89-33.9,6.15-4.4,12.1-4.09,19.17-2.65,1.66.35,4.36.21,5.31,1.86.22.39,0,5.39.24,5.4ZM350.71,440.06c-2,1-4,1.57-5.73,2.91-.6.47-.8,1.53-1.44,1.92-1.16.72-2.81.24-4,.83-2,1-3.42,2.37-5.8,3.27a92.61,92.61,0,0,0-9.94,4.91c-5.55,2.89-11.5,5.37-17.3,7.73-2.93,1.19-11,3.5-10.75,7.79-.65.18-1.32-1.26-2.69-1.14-1.88.15-4.36,2.32-6.3,2.86-3.65,1-6.47,1.09-6.47,5.73-1.16-.79-1.46-2.71-3-3-1.74-.29-2.47,1.59-3.86,2.17-1.64.69-3.67,0-5.29.76a12.74,12.74,0,0,1-2.37,2,8.92,8.92,0,0,1-2.63-.08c-3.44.73-6.61,2-10.06,2.7s-5.66.89-4.25,4.87c-3.6.7-4.48-3.11-8.53-1.72a113.61,113.61,0,0,1-14.82,4c-2.65.53-5.41,1.72-8.08,2-1.9.19-3.68-.49-5.55-.27-2.26.25-4.08,1.3-6.41,1.33a35.29,35.29,0,0,1-6.72-.75,14.78,14.78,0,0,0,1.15,2.53c-1.51-.32-2.2-2.13-3.48-2.4s-2.53,1.1-3.65.8c-.47-.13-.16-1.6-1-1.88s-1.1,0-1.87-.07a17.28,17.28,0,0,0-4,.06c-.89.47,0,1.36-.16,1.49-3,2.24-3.06,1-4.41-1.3-2-3.43-4.36-1.27-7.95-1.87-4-.67-7.16,1.1-11.1.85-4.25-.27-9.25-3.45-13-5.31-8.11-4-16-7.81-22.84-13.88-13.33-11.88-24.17-26.49-30.56-43.21-6.87-18-8.17-36.7-7.62-55.76a265.42,265.42,0,0,1,3.06-34.24c1.24-7.79,1.5-21.64,10.29-25.19,1.51,18.25-3.26,36.84-.25,55,.9,5.46,3.11,12.74,7.29,16.78,6.18,6,7.63-2.66,8.19-7.44,1-8.88,3-17.71,4.34-26.54s2.34-17.76,4.24-26.5c.69-3.19,6.29-26.52,10.39-25.41-.83,17-3,33.65-3.12,50.69,0,6.83-.65,14.05.34,20.83.51,3.5,3.69,13.75,9.16,12.89,5.06-.79-.51-8-1-10.79-1.25-7.37.35-16.54,1.51-23.86,2.21-13.84,7.14-28,15.2-39.59,7.21-10.36,18.32-20.22,31.71-18.39,5.72.78,10.18,2.2,13,7.42,2.26,4.1,11.14,8.76,6,13.89-4.68,4.67-12.26.93-17.47-.18a24,24,0,0,0-18.54,4c-9.15,6.41-14.37,17.87-16.07,28.62-2.29,14.49,3.84,52.42,26.42,43.92,15-5.65,26.31-26,25-41.52-.51-6.23-2.94-18,5.67-19.73,11-2.15,12.6,10,11.48,17.92-1.62,11.5-7.7,22.19-14.65,31.28-6.06,7.93-13.11,12.88-20.41,19.43-2.15,1.94-7.66,6.29-6.74,9.9,1,3.95,9.67,5.07,13.14,5.72,17.14,3.21,36.47.25,53.59-2,35.17-4.6,69.88-15.95,98.72-36.8,1.17,12.9,2.64,25.76,3.18,38.71.26,6.29.33,12.67,1.05,18.92.44,3.85,2,9.22-2.33,11.43Zm-97.53,45c-1.38.72.11-3.65-.27-2.2q3.09,1.11.27,2.2ZM399.09,328.85c2.19-2.42,8.18-8.16,10.08-2.71.71-2.32.8-5.77,3.53-2.63,1.09-3.86,13.08-3.49,16.05-3.66,9.51-.55,19.06-.84,28.53-1.78,19.47-1.94,39.29-.94,58.83-1,4.23,0,8.45-.24,12.65.37s8.32,2.26,12.45,1.65c3.67-.54,6.08-1.55,9.87-1.12a112.3,112.3,0,0,0,13.48.87c20.19-.07,40.37.75,60.57.78,3.93,0,8.65-.76,12.34.91,1.37.62,2.87,2.68,3.91,2.91,1.2.25.49-1.61,2.09-.77,2.15,1.13.48,4.6-.93,5.15.85-.33-1.54-.65-1.3-.66-1.13.06-2.09.92-3.31.87-1.85-.08-3.4-1.21-4.89-2.2,0,.4.8,3.11-.14,3.24s-1.56-2.55-1.64-3.17c-4.51,4-9.3,1.77-14.91,2.27-4,.36-12.27,3-15-1.14a4.24,4.24,0,0,1-1.06,2.32c-.8,1.21-1.48,1.11-2.06-.31-.2,0-2.13.43-2.17.43-1.36-.11-3.12-.6-4.5-.72-2.14-.18-1.75,1.38-3.45,1.4-.93,0-3.31-1.33-4.93-1.41-2.81-.15-5.69,1-8.46.68-1.91-.25-3.64-1.8-5.51-1.86-2.33-.08-3.09,1.7-4.94-.8-.38-.1-.61,1.37-.77,1.4,0,0-1.76.26-2,.34a12.17,12.17,0,0,1-2.24.8c-1,0-1.46-.65-2.46-.67-1.65,0-6.94,1.43-6.79-1.63-5.91,2.19-11,1.33-17,1.85a22.66,22.66,0,0,1-7.18-.65c-3.32-.64-5.52.17-8.83.33s-4.18-1.19-6.86-2.4c-1.06-.48-1.76-1.11-3.06-.85-.73.16-.21,1.4-.43,1.49-1.14.44-1.93,0-3.5.08-2.88.2-4,2.61-7,.34l3-.36c-2.84-1.2-6.58-1.81-5.89,2.57-2.42-.34-.33-2-1.52-2.58s-2.52.4-4,.88c-3.95,1.29-7.25.65-11.37.42-4.69-.26-15.65,3.56-19-1.4-.1,1-1.22,4-2.72,3.82-.49,0,.87-3.14,1-3.47-.77,1.64-4.29,1.95-6,2.8.2-.88.39-1.76.58-2.64-1.6,1.71-2.38.67-4.28,1.24-.82.25-2,2-2.73,2.06a3.36,3.36,0,0,0-3.1-1.23,6.16,6.16,0,0,0-2.49-.12c-3.32.24-6.34,2.08-9.65.83-2.85-1.09-4-3.89-5.66.56l-1.35-2.37-1.66,2.57c-2.16-1.41-2.29-2.23-4.78-1.71a2.15,2.15,0,0,1-1.8-.1c-.14.44-.29.87-.44,1.31-.06,1.09-.38,1.46-1,1.08a4.05,4.05,0,0,1-1.35-.81,27.88,27.88,0,0,1-5.52.32c-.68-.09-4.95-2.35-5.27-2Zm50.38-29.48.58.89c-2.67,1.41-3.3.6-3.58-2.23,1.31,0,1.53,2.32,3,1.34Zm1.65-1.67c1.29.57,2.76,1.69,4,.19.81,2.37-5.25,5.61-4-.19Zm8.31,1.05c2.71,1.83-3.78.36-3.76.36a2.85,2.85,0,0,1,3.76-.36Zm23.24-10.18c.93,4.67,3.49,4.54,7.61,2.37,6-3.17,7-8.36,7.45-14.56.41-5.95,1.13-8.25,7.26-7,4.28.87,7.9.14,12.21,0,4.6-.12,6.23.58,6.6,5.31s1.21,8.35,4.65,12,8.17,5.86,12.71,7.91c2.34,1.05,4.54,2.19,7.12,2.42,1,.09,6.22-.57,6.33,1.08.08,1.24-7.14,4.74-7.91,5.15a54.58,54.58,0,0,1-10.35,4.57c-8.42,2.54-17.35,2.69-26.07,2.53-14.06-.24-33.49-6.19-41.9-18.67l14.29-3.08Zm-1.26-40.49c-2.22-1.87-3.66-4.69-5.51-6.9a8.58,8.58,0,0,0-2.5-2c-.94-.59-1.46.24-2.24-1.14-2-3.57,4.2-8.59-2.39-10-2.23-.46-7.6,1.31-8.25-1.89-.92-4.52,7.7-4.81,9.73-7.1,4-4.56,1.3-12.29,3.75-17.55,2.33-5,8.33-5.86,13.07-7.36,6.6-2.08,13.28-3.29,20-5,4.69-1.17,12.48-5.85,16.83-1.71-6.71,1.49-2.81,3.82,1.66,5.14a76.85,76.85,0,0,0,15.68,2.5,58.53,58.53,0,0,0,16.24-.57c4.93-1,10.45-5.28,15.62-4.18-2.87,5-11.42,7.72-16.62,9-2.65.67-4.34.46-4,3.76s3.13,6.41,3.76,9.75a22.71,22.71,0,0,1-1.47,12.61c-1.54,4.09-1.91,4.62-.55,8.52,2.1,6.07-2.42,12.79-6.6,17.2-16.9,17.83-49.25,11.08-66.2-3.14Zm42.95-106.6c.07.18,0,.11,0,0Zm5.26,45c-.7.53-4.73,1.62-4.56,0,.22-2.12,3.86-1.35,4.56,0Zm9.2-42.69c-.94-.71-3.6-.42-1.66-3.09.63,1.17,1.15,2.13,1.66,3.09Zm-63.65-16.92c1.2-3.13,2.54-6,3.08-9.39.34-2.06-.33-4.41,2.55-4.73-3.67-1.6-3.7-7.91-3.92-11.18-.3-4.5-1.72-10.53.26-14.72s4.77-4.23,5.6.89c.32,2-.92,2.66-1.15,4.06-.46,2.76.46,2.16,2.24,0,.74,2.14,1,5.36,4,5.23-.2-.58-1.35-1.86-1-2.58.59-1.11,3.47.58,3.84.84,2.63,1.84,3.2,3.52,1.32,5.84,2.6.27.42,2.55,2.09,3.14,2.56.9.85-3.38.57-4.13a6.36,6.36,0,0,1,3.06,2.53,25.23,25.23,0,0,1,1.58,2.64q.8,2.49,3.28,1.25c3.31,1,7.88.88,10.85,2.69,1.35.83,1.84,2.65,3,3.34s3,.42,4.35.91c-.51,1.13-.1,1.75,1.21,1.85a11.17,11.17,0,0,1,3,.68,9.35,9.35,0,0,1,2.32-1.27,1.62,1.62,0,0,0,2.39.74,11.9,11.9,0,0,1,6.46,3.45c1.74,1.55.32,1.68,2.23,1.54.77,0,2.11-1.35,3.87-1.1a13.6,13.6,0,0,1,2.92.93,2.59,2.59,0,0,0,3.23.33c1.85.91,2,2.51,4.28,2.73,2.5.24,1.7-2.87,3.41,1.51,2.3-4.64,3.15,2.76,5.53,3.36s2.73-1.38,4.84.8c.64.66.6,1.74,1.31,2.44,1.16,1.13,2.74.9,3.75,2.45-.56-.86.13,3.07.12,2.94.16,1.73-1.38,3.68,1.78,3.53,0,.18-1.56,2.39-1.85,2.14a5.23,5.23,0,0,1-.18-.76c-.34.14-.49,2.25-.43,2.62q.4.06.33-.6c-.52,1.63.26,2.66-.74,4.2-.63,1-2.38,1.73-3.31,2.33-2.24,1.47-4.43,2.94-6.61,4.51-5.1,3.64-10.8,8-17.21,8.8,3.22-3.17,21.75-15.14,12.46-18.57a30.79,30.79,0,0,0-6.67-1.38c-2.24-.16-4.56,1.12-7,.32-3-1-1.86-3.77-3.68-4.78-3.87-2.13-3,2.89-4.18,4.2-1.28-1.34-1-2-3-2.11s-2.54,1.77-4.94.59c-3.3-1.63-1.55-4.87-6.23-4.95.08-.71.76-2.7-.14-3.26-1.2,1.56-.27,3.31-1.39,4.81a5.33,5.33,0,0,1-2.66,1.6c-2.07.57-2.37,1.66-2-1.46-1.54,2.77-6.25,1.63-9.06,1.35a64.2,64.2,0,0,1-13.77-2.78c-4.05-1.35-6.21-3.68-9.54-5.79-1.26-.8-1.86-.49-3.67-1s-3.52-1.44-2.68-3.63Zm9.62-49c.69-.41,1.18,5.78.35,6.93-1.53-2.41-4.24-6-.35-6.93Zm2.2-2.47c2.21-2,.67,3.18.27,4l-2.46-1.57c1-.65,1.3-1.67,2.19-2.47ZM570.51,67c20.45,4.3,40.71,12.32,57.12,25.52,14.94,12,25.48,29.09,31.4,47.24,6.13,18.84,4.07,39.74-10.53,54.15-7.69,7.6-17.85,12.18-27.53,16.65-4.64,2.14-9.41,3.93-14.07,6-3.34,1.5-7.43,3.91-11.24,3.49,2-2.05,4.77-2.09,7.13-3.34,2.84-1.52,5.17-4.42,7.62-6.5s7.84-8.55,11.59-7c-.52-3.46,3.42-5.06,5.19-7.34s2-5.23,5.47-6c-3.71-2.91-2.57-8.4-1.77-12.35a115.92,115.92,0,0,0,1.92-14.86c.74-9.29,1.33-21.12-3.8-29.28-1.67-2.65-3.79-5.09-5.27-7.84-1.79-3.32-1.4-6.24-1.4-9.88-3.27,2.2-4-2.28-5.34-4.47-1-1.64-2.4-2.56-2.74-4.62-.24-1.5,1.39-1.75.49-3.33a7.94,7.94,0,0,0-2.08,3.3c-1-.4.18-1.81-.4-2.27a17.52,17.52,0,0,0-1.87-.74c-1.26-1.59-1.66-4.23-2.28-6.12-2.29,1.16-1.87,1-4.43-.92-.45-.34-2.71-1.92-2.92-2.43-1-2.4.75-1,.26-2.47-1.4-4.29-9.24-3.48-9.86-9.9-3.82,2.42-5.28-1-7.54-3.46s-6.2-3.47-6-7.44L574,72.06c.63-3.67-4.82-3.43-6.79-5.29a25.71,25.71,0,0,1,3.27.25Zm3.11,227.1c1.9-1.69,1.32.56,2.54.31,1-.22,1.25-1,2.25-1.25,4.12-1,10.28.25,14.62,0,5-.25,13.62.79,16,6.66,1.44,3.54-.76,2.34-3.18,2.07-1.88-.2-3.55.18-5.41.16a8.13,8.13,0,0,1-2.74,0,1.72,1.72,0,0,1-.79-1.24c-2.59-.39-5.34,1.14-8.2,1.22-3.82.1-7.22-.64-10.12-3.22-1.16,1.72-2,2.58-4,2.77-.06,0-2.09-.81-2.4-.89s-1.47.76-2.27.51c1.42-2.26,1.63-5.24,3.71-7.1Zm261.07,20.44c.67-2.35,1.23-4.72,1.85-7.09,9.44,10.74,17.69,25.12,21.41,38.9,2.41,8.95,6.17,25.17-5.34,29.79-9.37,3.76-14.6-9.72-17-16.36-5.24-14.66-5.24-30.33-.95-45.24ZM412.55,146.25c.12,0-6.11,3.6-4.06.67.83-1.18,3.95-2,5.34-2Zm-6,1.54q-1.08.92-2.19,1.8l-2.11-3.35c1.39-.58,7.29-1,4.3,1.55Zm-4.39,112.64c-1.31-.89-2.34-.42-2.73,1.07,0-1.48.77-4.91,1.95-5.3.76-.26-2.54-4.16-1.61-5.19,2.36,1.35.94,2.65,1.63,4.39.32.79,1.25,1.53,1.46,2.14.34,1,1.75,4.55-.7,2.89Zm-6.39-8.78c-1.33.34,1,2.54,1,3.52,0,.73-.88,1.3-1.25,2.31-.79,2.18.57,3.65-1.67,5.32,0-4.78-3.21-17.46,3-19.79-3-2.37-.54-5.11,1.82-2.27s.82,10-2.86,10.91Zm-3.21-18.88c-1.22-4.3-4.87-5.8-9-5.55.16-2.2,1.83-5.38,3-1.41.5-1.17.84-2.7,2-3.48,1.91,6,11.39,9.26,5.49,15.73-.49-1.77-1-3.53-1.45-5.29Zm-11-5.23c-22,1.59-52.8,6.15-70.38-10.69-11.46-11-10.85-28.07-1.59-40.27,5.29-7,12.5-11.86,19.75-16.53a34.89,34.89,0,0,1,8.23-4,2.21,2.21,0,0,1,1.41.33,2.42,2.42,0,0,1,1.25-1.65c1.19-.63,2.88-.86,3.56-2.17a42.29,42.29,0,0,0-1.37,7.58L340.62,158c-.49,4.66-5.35,1.84-8.25,2.42,1.91,2.64,3.28,3.61,3.44,7.1-1.42-2.63-4.39-4.35-7.16-5.2,1.5,4.44,2.56,7.08,1.05,11.95-1.82-1-1.95-3.55-4.16-4.15-.59,2.91-.69,6.13-1.44,9-5.67-2.59-5.12,4.38-2.84,7.83,1.21,1.84,1.8,4,2.88,5.72,2.66,4.32.64-2.14,3.59-1.83-.66,4.56-.89,5,2.44,8.35s4.94,7.76,8.43,10.82c1-1.29-.58-2.63-.72-3.87,3.24.55,4.76,3.79,7.87.92,1.36,2.64,2.83,5.56,6.08,6.1-2.15-4.08,4.13-1.31,5.74-.73,1.22.44,3.41.79,3.88,1,2.65,1,.83-.77,2.44,2.38,2.37-.72,3.26-2.68,6.09-1,2.3,1.35,2.3,3.65,2.83,6,.54-1.55,1.1-3.09,1.7-4.62.62.26,3.21,3.11,2.93,3.12,6.06-.3,5.84,3.47,4.1,8.28ZM350.7,150.42c1.22-.85,2.7.28,4.07,0,1.89-.42,3-2,5.08-2.22-.59,1.88-1.69,1.7-2.63,3.18-.32.5-.15,1.71-.43,2-2.37,2.42-3.19.44-5.61-1.39.21,2.21.64,2.91-1.45,3.51-1.88.53-5-1.45-6-3,.8-1.61,5.46-1.07,6.92-2.09ZM365.77,147c2.05.2-.42,6.25-3.36.38a16.56,16.56,0,0,1,3.36-.38Zm10.55-1.17c3.23-.66,14-3.73,15.23,1.3.21-.12,1-3,1.39-2.62,1.49,1.39,1.66,3.23,1.54,5.16-1.8-3.76-1.16-.46-2.38-.71-.32-.07-.81.53-1.62.28-1.06-.32-1.82-2.58-2.49-3.35-1.12,1.6-2.5,3.65-4.73,3.51-1.58-.1-4.13-4.17-2.08.29-1.2-.4-2.6-1.3-3.93-1.12-1.5.2-2.28,1.68-3.69,1.92-3.11.53-3.58-2.47-5.6-4.1,2.78-.16,5.61,0,8.36-.56Zm19.57,0c.23-1,3.06-1.45,3.78-1.12,1.76.8,1.11,1.85.79,3.61l-3.92-1.85c1.95,3.13-1.58,3.59-.65-.64Zm547.94,183.8c-.23-7.52-.45-15.17-2.36-22.49-1.33-5.13-4.61-14.31-10.81-15.2-9.35-1.34-14.52,17.13-17.14,23.48-.53-7.47-.07-15.42-2.89-22.51-2.26-5.68-8-11.05-12.87-4.68-4.38,5.68-5.22,14.06-6.37,20.89-1.49,8.85-2.38,17.77-3.47,26.67-4.27-8.25-5-17.7-8.4-26.27-3.18-8.1-8.19-15.83-13-23-3.94-5.88-8.74-11.41-14.91-15-5.38-3.12-14.78-6.51-19.9-1.31-4.28,4.33-3.61,10.13-3.38,15.6.09,2.44.48,4.11-1.67,5.34-1,.6-2.69.29-3.85.61a14.31,14.31,0,0,0-4.87,2.58c-11.06,8.21-16.15,23-17.73,36.22-2,16.73,4.52,31.07,10.14,46.38.89,2.44,3.73,7.61,3.34,10.33-.43,3-4.18,3.06-6.7,3.13a199.93,199.93,0,0,1-23.21-1.09c-18.08-1.7-36.14-10.4-52.33-18.17-2.95-1.42-7.13-2.23-9.54-4.46s-2.87-5.47-4.82-7.87c-4.81-5.91-7.86-10.95-14.93-14.52s-14.55-7-21.57-11c-8.69-4.92-16.72-11.16-25-16.67-15.47-10.25-30.84-21.48-47.24-30.19-7.62-4.05-16.13-4.71-24-8-7.7-3.23-17.16-3.23-25.2-1.2-3.92,1-6.58,3.35-10.19,4.89-4.22,1.8-7.66-.19-11.38-2.34-5.67-3.28-11.3-8.63-3.22-12.18,2.75-1.2,6.18-1.65,8.58-3.54s4.6-5.73,6.68-8.26c4.61-5.61,7.37-12.06,14.12-15.55,7.47-3.86,16.33-4.91,24.29-7.43,8.63-2.73,17.08-6,25.55-9.16,15.26-5.75,31.12-11.95,42.09-24.59,9.46-10.91,13.58-25,13.2-39.29-.78-29.23-16.44-58.9-38.91-77.18C602.3,60.07,567.25,52.6,532.45,53c-16.34.18-35.83,2.32-49.46,12.24-11.77,8.57-13.73,23.57-12,37.1.71,5.49,3.13,12.74-.74,17.58-2.17,2.7-6.06,3.37-9,5.06-3.67,2.12-6.9,4.16-11.06,5.28-17.65,4.77-36.25,3.11-54.3,2.84-30.06-.44-60.88,7.7-83.32,28.89-18.11,17.11-23.54,49.37-1.45,66.05C329,241.5,357,240,378.06,237.67c6.53-.73,11-1.79,11,6.19,0,8.73-1.43,17.84.8,26.4,3.5,13.49,16.46,13.81,27.92,10.91a126.91,126.91,0,0,0,17.63-6.25c8.42-3.54,16.13-8.75,24.45-12.28,5.64-2.39,9.86,5.35,14.86,0,.92-1,1.09-2.47,2.48-3,2.19-.79,5.85,2,7.77,2.88,2.87,1.32,5.76,2.29,6.9,5.47,1.07,3,.61,7.7-.42,10.64-2.23,6.38-8.24,5.12-13.73,4.69-9.56-.74-19.06-2.32-28.63-3-8.58-.59-16.61,2-24,6.2-15.55,8.89-28.26,23-41.74,34.65-6.94,6-13.64,12.44-21.19,17.65-3.28,2.27-6.83,4.35-9.68,7.17s-3.14,5.33-4.11,9c-1.72,6.62-10.27,9.85-15.62,13.34a112.26,112.26,0,0,1-24.06,11.45A334.08,334.08,0,0,1,253.88,394c-9.19,1.62-18.3,2.69-27.58,3.57-8,.75-16.51,3.21-24.5,1.24,2.3-3.73,6.38-6,9.56-8.85A70.54,70.54,0,0,0,222,377.29c6-8.89,10.26-18.43,11.24-29.22.87-9.7-.13-21.31-6-29.51-2-2.84-6-3.61-7.84-6.16s-1.11-6.9-2.09-9.86c-2.51-7.52-10-16.84-16.51-21.21-7.11-4.74-17.52-6.48-25.73-4-15.22,4.57-24.56,20.84-31.52,34-3.81-8,2.56-19.88-4.87-26.43-6.27-5.53-11.24,5.18-13.34,9.76C115.54,316.14,113.31,339,109.19,362c-1.68-1.66-.82-5.91-.66-7.89.29-3.67.26-7.28.27-11,0-9.33,1.76-18.7,1-28-.46-5.39-2.18-16.75-10-15C93.12,301.65,89,311,86.87,316.69c-3,8.23-3.7,16.38-3.51,25.08.2,9.61-1.63,19.06-2.07,28.65-.86,18.64,0,37.11,5.34,55.1A118.15,118.15,0,0,0,190.5,508.63c9.16.6,18-.49,27.06-1.44s18-1.36,26.89-2.46c19.91-2.44,39.3-8.74,57.39-17.22,9.53-4.46,18.48-9.94,27.85-14.7,3.76-1.91,6.3-4.3,9.51-7s4.06-2.83,7.67-2.83c-1.06-2.84,2-3.72,3.42-5.51l-.24,2.61q1.57-3.42,2.94.07c.89-2.6,1.55-5.28,2.63-7.81,4.13,2.09,3.78,7.05,9.31,3.43,4.54-3,8.72-6.51,13.36-9.43,10.56-6.67,19.66-15.34,30.25-21.93,0,6.42.45,12.89-.4,19.27-.82,6.07-3.09,11.75-4.89,17.56-3.32,10.72-3.55,22.18-7.24,32.8-1.52,4.39-5.49,8.07-6.63,12.35s1.52,7.86-3,10.73c-3.17,2-7.13,2.87-10.64,4.09-5.35,1.87-10.43,4.5-15.63,6.73-24.43,10.47-48.26,21.13-70.9,35.21-21.48,13.35-43.28,27.15-63,43-17.12,13.77-34.43,31.57-38.6,54-4.05,21.79,6.73,45.17,28.37,52.34,11.25,3.73,24,3.27,35.69,3.43,12.61.18,26-2.86,38.37-5.06,13.09-2.32,26-6,39.09-8,12.6-2,24.15-6.44,36.55-9.18,13.19-2.92,26.73-4.5,40-7.13,6-1.18,11.83-2.92,17.82-4,6.56-1.2,13.19-1.64,19.69-3.23,12.59-3.08,24.65-8,37.31-10.91,5.69-1.29,11.29-3,17-4.21,5.24-1.11,9.32-4.06,14.57-1.64,4.24,1.95,7.63,5.31,11.64,7.64,5.21,3,10.7,5.74,16.13,8.34,10.91,5.24,22.22,8.85,33.62,12.78,12,4.13,23.75,8.84,36.16,11.57,12.73,2.79,25.71,3.57,38.52,5.78A477,477,0,0,0,727,715.41c13.46.09,26.92-1.51,40.35-1.32,11.89.17,22.23,2.85,33.1-3.47,17.38-10.1,37.53-25.32,37.1-47.42-.39-20-12.39-39.14-23.65-54.92-13.68-19.17-33.18-32.67-52.29-45.9-20.37-14.09-43.24-23.83-64.65-36.13-11-6.29-21-13.06-32.93-17.53-5.68-2.13-11.21-4.61-16.82-6.91-4.51-1.84-11-2.87-14.89-5.93-2.41-1.92-2.64-4.81-3.28-7.66a159.15,159.15,0,0,0-5.77-18.34,188.44,188.44,0,0,1-8.68-36c-1.7-11.72-5.47-23.91-3.51-35.83,12.83,12.42,26,24.36,39.16,36.45,4.93,4.53,9.76,9.16,14.71,13.66,3.71,3.38,8.36,8.4,13.54,9.41,6.61,1.28,4.2-6,8.74-7.17,2.77-.69,11.14,6.36,13.34,7.75,13.91,8.83,29.31,14.43,44.6,20.44,16,6.3,32.54,11.9,49.8,13.48a132,132,0,0,0,47.64-4.75c30.64-8.66,53.19-29.18,69.73-55.79,18.86-30.31,32.58-65.83,31.47-102Z" transform="translate(-81 -52.97)" fill-rule="evenodd"/><path id="react-path-277" d="M475.52,263.45l0,.1c.06,0,.07-.07,0-.1" transform="translate(-81 -52.97)" fill-rule="evenodd"/><path id="react-path-278" d="M477,263.84a10.63,10.63,0,0,0-.74-2.84c-1,1.61-1.92,2.3-.59,4,.44-.39.88-.78,1.33-1.16" transform="translate(-81 -52.97)" fill-rule="evenodd"/><path id="react-path-279" d="M547.66,493.68c1.13-1.21-.85-1.66-1.61-1.68.08,1.3-.56,4.4,1.21,5a3.52,3.52,0,0,1,.4-3.32" transform="translate(-81 -52.97)" fill-rule="evenodd"/><path id="react-path-280" d="M517.73,241c-2,3.77,2.35,4.94,4.85,3.12,1.87-1.37,3-4.86,3.29-7.09,1-7.24-4.07-14.13-6.59-20.56-.65-1.66-1.55-7.35-3.65-7.51-2.41-.18-2.59,5.07-2.62,6.42a36.55,36.55,0,0,0,2.25,12.09c1.36,4.15,4.74,9.14,2.47,13.53" transform="translate(-81 -52.97)" fill-rule="evenodd"/><path id="react-path-281" d="M527,225.94c7.5,6.67,13.49-4.44,13-11-.13-1.63-1.23-7.63-4.32-5.45-1.55,1.1-.23,4.67-1,6.24-3.59,7.59-7-4.19-9.45-5.12-2.94-1.12-3.23,2.74-3.23,4.8a14.27,14.27,0,0,0,5,10.55" transform="translate(-81 -52.97)" fill-rule="evenodd"/><path id="react-path-282" d="M499.79,227c1.77-2.78,3.94-6.51,4.18-9.84.37-5.18-2.65-4.75-5.13-1.14-1.75,2.56-3.07,6.88-6.94,5.81-4.78-1.33-3.32-7.76-6-10.81-6.76,9.08,6,28.35,13.88,16" transform="translate(-81 -52.97)" fill-rule="evenodd"/><path id="react-path-283" d="M509.92,254.75c2.8.61,10.08.38,7.56-3.9-3.19-5.39-13.78,2.56-7.56,3.9" transform="translate(-81 -52.97)" fill-rule="evenodd"/><path id="react-path-284" d="M607.83,94c.51-1.52-.19-1.8-1.41-3-1.16,1.07.32,2.19,1.41,3" transform="translate(-81 -52.97)" fill-rule="evenodd"/><path id="react-path-285" d="M660,370c1.85.29,2.44-.68,1.78-2.93q-4.37-.28-1.78,2.93" transform="translate(-81 -52.97)" fill-rule="evenodd"/><path id="react-path-286" d="M559.28,134.55c2,.93,1.25,2.84,1.22,4.45,1-1.14,3.16-3.22,2.3-4.86-1.33-2.52-4.8-.17-3.52.41" transform="translate(-81 -52.97)" fill-rule="evenodd"/><path id="react-path-287" d="M490,102.81l-.93-1.81c-1.26,1-3.21,3.69-1.21,5a18.72,18.72,0,0,0,2.14-3.19" transform="translate(-81 -52.97)" fill-rule="evenodd"/><path id="react-path-288" d="M514.4,120.6c2.53,2,1.32-4.1,1.24-4.6-.37.71-2.52,3.6-1.24,4.6" transform="translate(-81 -52.97)" fill-rule="evenodd"/><path id="react-path-289" d="M513,117.51l-.58-1.51c-1,1-2.28,2.89-.59,4a13.5,13.5,0,0,0,1.17-2.49" transform="translate(-81 -52.97)" fill-rule="evenodd"/><path id="react-path-290" d="M529.07,138.43l.62.57a1.91,1.91,0,0,0-1.69-3,4.32,4.32,0,0,0,1.07,2.43" transform="translate(-81 -52.97)" fill-rule="evenodd"/><path id="react-path-291" d="M461.26,327.83A16.15,16.15,0,0,0,464,325.5c-3-1.82-1.19,2.12-4.77-.3-.77,1.06.49,3.45,2,2.63" transform="translate(-81 -52.97)" fill-rule="evenodd"/><path id="react-path-292" d="M586.1,493c1.13-1.73,1.34-1.68-.21-3-1.28,2.14-1.15,1.59.21,3" transform="translate(-81 -52.97)" fill-rule="evenodd"/><path id="react-path-293" d="M350,217.08l1.84,1.92c.29-.84,1.86-3.21.79-4L350,217.08" transform="translate(-81 -52.97)" fill-rule="evenodd"/><path id="react-path-294" d="M371.87,223.42c-1-.16-3.33-.88-3.87,0,1.44,1.18,4.68.11,3.87,0" transform="translate(-81 -52.97)" fill-rule="evenodd"/></g></g></g></svg>