<svg id="Layer_1" data-name="Layer 1" xmlns="http://www.w3.org/2000/svg" viewBox="0 0 968 768"><path d="M527.89,337.57c-1.14-1.65-3.16-2.48-4.76-3.57.72,1.65.78,2.14,0,3.71-.56,1.22-.94,2.51-1.48,3.73a20.2,20.2,0,0,0-1.2,2.54c-.27,1-.13,2-.5,3,4.38-1.18,8.27-3.95,12-6.52-.7-.1-2.53-.07-3.12-.58s-.58-1.72-1-2.33" transform="translate(0 0)" fill-rule="evenodd"/><path d="M633.29,322.8c1.91,1.52,1.91,1.52,2,4.1a3.81,3.81,0,0,1-2-4.1m-92.56,6.78c-.88.08-1.09-2.48-1.29-3.22l.87-.12c.4.42,2,3.22.42,3.34M673.51,355.7a185.07,185.07,0,0,1,4.8-20.55c1-3.31,2.11-6.58,3.31-9.81,1-2.8,3-5.84,3.38-8.77-3.16,2.85-5.73,6.43-8.46,9.7s-5.34,6.19-7.79,9.44a8.14,8.14,0,0,0-2,4.53c-.07,1.86,1,3,1.76,4.56a25.85,25.85,0,0,1,1.74,5.43c.43,1.94-.25,2.88-.91,4.64-1.43-.7-2.65-1.09-3.69-2.36s-2-2.86-3.08-4.25c-2.27-3-4.56-6.07-6.82-9.12a127.75,127.75,0,0,1-11.9-19.1c-3.44-6.89-6.52-14-9.88-20.91-.7-1.46-1-3.06-2.88-3.06-1.39,0-2.57.87-3.88,1.21a4.11,4.11,0,0,1-1,.17,2.44,2.44,0,0,1-.16,1c-.35.42-.47.25-1,.22s-.95-.38-1.56-.34a11.55,11.55,0,0,0-2.45.87v-1.92c-2.51,1.29-8.59,5.6-9.91.71-.12.89.12,2.5-.75,3.07-.58.38-1.31,0-1.94.06a10.64,10.64,0,0,0-2.2.94c-.05-1.32-1.06-1.17-2-1.35-1.27-.23-2.37-.93-3.67-.7s-2.24.8-3.54.1c-.87-.47-1.69-1.12-2.57-1.62a2.76,2.76,0,0,1-1.43-1.74c-.43-1-.35-.77-1.36-.49-2.16.6-3-2-3.38-3.77a14.67,14.67,0,0,1,3-12.4c3.67-4.34,7.55-8.59,12.34-11.72,4.42-2.89,9.13-6.47,14.29-7.87-4.12-9.23-10-17.83-15.24-26.47-1.5.34-2.4,1.16-4,.9-1.26-.2-1.21-.1-1.67,1.21s-.65,1.35-1.77,1.71-.24-.35-1.11.56a7.17,7.17,0,0,1-1.08,1.19c-1.76,1.23-4.06.52-6,1.29-1.32.53-.67,1.21-1.35,2.12s-1.93.47-2.92.31c-2.07-.32-2.69.37-3.13,2.32-.32,1.44-.53,2.19-2.08,2.49-.88.17-2.24-.53-2.8,0-.22.21-.13.82-.23,1.1a4,4,0,0,1-.86,1.32,7.88,7.88,0,0,1-2.73,1.87c-.95.4-2,.18-2.86.53-1.42.54-1.07,2-1,3.25-.81-.2-1-.17-1.48-.78-.22-.28-.1-.74-.53-.86a7.32,7.32,0,0,0-2.68,1.49c-.83,1,0,2.51-.2,3.71a6.74,6.74,0,0,1-2,3l-.76-2.19c-.37.49-.9.84-1.06,1.45-.08.32.18.75,0,1.07-.4.9-.81.33-1.57.36s-2.46.54-2.15,1.58c.22.71,1.61.54,1.44,1.5-.2,1.16-1.71.4-2.32.64-.8.32-.48,1-.75,1.69-.48,1.22-1.45,1.33-2.46,1.92a4.43,4.43,0,0,0-1.83,2.32c-.56,1.26-.5.92-1.73.81a1.18,1.18,0,0,0-1.44.78c-.24.57.17,1.27,0,1.79s-1.63,1.37-2.1,2c-1.27,1.78-1.82,4-2.87,5.87a20.13,20.13,0,0,1-1.57,2.43c-.77,1-1.25.84-2.3,1.39-1.69.9-1.2,3.27-1.38,4.83a3.64,3.64,0,0,1-.88,2.17c-.34.36-1.56.78-1.32,1.5.29.88,1.27-.06,1.08,1.31-.15,1.09-1.39,2-1.67,3.08-.19.75.06,1.47-.13,2.23a19.75,19.75,0,0,1-1.17,2.23c-.32.78.18,1.77-.09,2.37s-1.46.51-1.77,1.41.45,2.53.59,3.53c.09.64.43,1.34-.11,1.87s-1.56.37-1.08,1.48c.22.52,1,.41,1.12,1.19.07.6-.62,1.51-1,1.91-1,1.08-2.9,2-1.53,3.36.23.24.52.12.74.45a6,6,0,0,1,.44,1.47,11.58,11.58,0,0,0,1.49,2.88c2.4,3.37,6.36,5,9,8,3.22-3.2,6.52-6.33,9.55-9.71a85.41,85.41,0,0,1,8-8.36,31.25,31.25,0,0,0,4.52-3.91c1.21-1.5,1.65-3.39,2.57-5.05,1.8-3.28,4.4-6,6.34-9.21,3.79,2.47,2.2,8.78,1.11,12.31a31.54,31.54,0,0,1-2.72,6.22c-.94,1.67-2.26,3.33-2.71,5.23a4.83,4.83,0,0,0,1.07,4.08c1.27,1.8,2.77,3.47,4.11,5.22l9.83,12.76c1.19-1.71,3.15-.59,4.72-.26,2.31.48,4.7.31,7,.53s4.93.64,7.36,1c2.18.35.73,1.36,1.78,2.56,2.23-4,6.48-1.48,10-1.12,2.18.22,4.49.1,6.63.38s4.3,1,6.53,1.22c4.22.41,8,1.86,12.16,2.62,2.19.4,4.39.68,6.58,1.08.77.14,2.14.21,2.58,1s-.54,2.95-.82,3.8c-.42,1.28-.72,3.23-1.57,4.29-.67.82-.84.32-1.69.28s-.59.17-1.27.94c-.84.94-2,.95-3.2,1.05-.53.05-1.6,0-2,.33-.58.52-.08.56-.13,1.36-.07,1.39-2,2.44-3.14,3a4.6,4.6,0,0,1-2.32.58c-.51,0-1.12-.53-1.64-.33-.73.29-.67,1.67-1.1,2.26-.78,1.08-1.83.28-2.86.82-1.23.66-1.93,2.21-3.1,3-2.32,1.53-5,1.69-6.15-1.17-.46,1-1.55,2.45-1.14,3.41a5,5,0,0,0,2.28,1.91c2.26,1.23,4.49,2.46,6.66,3.86,5,3.22,9.79,6.74,15.12,9.4s10.78,5.42,16.58,6.57a29.15,29.15,0,0,0,17.57-2,9.22,9.22,0,0,1-1-4.59c-.05-1.78-.09-3.55-.11-5.33,0-3.55,0-7.1.1-10.65a147.39,147.39,0,0,1,2.29-21.15" transform="translate(0 0)" fill-rule="evenodd"/><path d="M736.41,350.62a29,29,0,0,1-1.26-5.89c-.09-1.43.44-3.56-.41-4.8-.36-.54-1-.72-1.22-1.36a14.8,14.8,0,0,1,0-2.1,17.25,17.25,0,0,0-1.3-4.19c-1.21-3.09-1.25-6.34-2.27-9.47-.55-1.72-1.6-3.18-2.21-4.87a20.56,20.56,0,0,1-1-4.78,40.25,40.25,0,0,0-.6-5.14c-.39-1.59-.87-3.14-1.22-4.73a88,88,0,0,0-3.13-11.16c-.5-1.38-.87-3.7-2.09-4.63a4.47,4.47,0,0,0-3.1-.43c-1.18.08-2.14.14-2.93,1.12a42,42,0,0,1-2.79,3.8c-1.18,1.2-2.66,2.23-3.72,3.53-.83,1-.35,1.38.54,2.25-1.16.15-2.11-.17-3,.71a14.56,14.56,0,0,0-2,3.47c-1.23,2.47-1.37,4.7-1.74,7.37-.33-.51-.65-1-1-1.52a4.22,4.22,0,0,1-2.21,2.75c-1.46.57-1.41.39-1.42,2,0,2.35-2,3.83-3.19,5.61a17.34,17.34,0,0,0-1.81,3.26c-.58,1.44-.22,2.39-.08,3.86.21,2.2-1.91,3.89-3.19,5.45a4,4,0,0,0-.85,1.32c-.16.44.07.72-.27,1.19-.6.85-1.85.62-2.33,1.67s.17,2,.27,2.93c.16,1.55-.77,3-1.28,4.38a22.14,22.14,0,0,0-1.18,4.73,16.58,16.58,0,0,0-.13,2.81c0,.44.35,1.53.06,1.92s-1.17-.07-1.51.49c-.69,1.17,1.89,1.54,2.39,1.72a8.4,8.4,0,0,0-1.87,1.17c-.64.71-.24,1.13-.51,1.92s-1.33,1.1-1.65,1.87.31.95.65,1.6c.83,1.59.09,4-.24,5.59-.13.66-.07,2.36-.48,2.86-.26.33-.85.21-1.08.49-.47.59,0,.83.23,1.52a5,5,0,0,1,0,2.64c-.22.82-.75,1.57-.9,2.4s.29,1.22.6,2.07c.7,1.88.21,4.22,0,6.14-.27,2.23.51,4.35-.07,6.42L676,389.8c.2,1,.39,2,.59,3,.1.48.2,1,.29,1.45-.12.63.09.88.64.75,1.07.31,2.72-1.37,3.6-1.87,2.65-1.5,5.51-2.57,8.26-3.87a64.76,64.76,0,0,0,7.87-4.86c2.7-1.77,5.55-3.28,8.18-5.15C716.8,371.14,729.14,364.33,741,357c-3.32.37-3.93-4-4.59-6.37" transform="translate(0 0)" fill-rule="evenodd"/><path d="M750.48,258.76c1.79.52,1.38,2,.7,3.34-.68-.65-1.89-1.41-2.21-2.33-.4-1.15.49-1.3,1.51-1m49.77,44.62c-.09.45-.19,2.32-.55,2.61s-2-.11-2.39-.13a12,12,0,0,0-3.72.53c-2.24.55-2.65-.84-2.66-2.92-1.72,3.39-4.58,5.09-8.24,5.75a39.33,39.33,0,0,1-5.05.71,17.83,17.83,0,0,1-3.86-.27c-.78-.13-1.49-.61-2.22-.75-1.6-.3-.16.86-1.32,1.17a16.73,16.73,0,0,1-1.86-.44c-.71,0-1.42.08-2.13,0-1.61-.08-2.13-1-3.4-1.67a2.51,2.51,0,0,0-1.84-.2c-.79.11-.19.37-1.11.2a6.24,6.24,0,0,1-1.08-.49,13.41,13.41,0,0,1-4.44-2.83c-1-1-2.22-1.66-3.2-2.64-.35-.35-.54-.79-.85-1.15s-.43-.36-.94-.71a3.69,3.69,0,0,1-1.39-1.27,9.77,9.77,0,0,1-.67-3.8,20,20,0,0,1,2.37-11.41c2.12-3.94,3.88-8.1,6.37-11.84a75.88,75.88,0,0,1,7.84-9.51,16.74,16.74,0,0,1,2.58-2.47c.61-.43,1.42-.62,2-1.08,1.38-1.11.71-3.13.71-4.67.44.77,1.12,1.93,2.16,1.67.69-.16.71-.94,1.21-1.24s.83-.11,1.26-.16A200,200,0,0,0,767.31,230c-7.35,7.22-14.72,14.49-21.86,21.93-3.68,3.83-7.09,7.92-10.75,11.78-3.86,4-7.8,8-11.7,12,1.06,1,2.27,1.72,3,3a17.19,17.19,0,0,0,2.34,3.17c2.07,2.35,3.06,5.85,4.34,8.67a1.79,1.79,0,0,1,.25,1.23c0,.31-.35.58-.36,1a1.73,1.73,0,0,0,.5,1.15c.26.34,1,.72,1.11,1.16s-.47.88-.65,1.37c-.79,2.16,1.81,3.69,2.69,5.39a2.58,2.58,0,0,1,.08,2.8c-.5.76-1.62,1-1,2.21.37.73,1.41.33,1.25,1.34-.08.54-1.12,1.05-.15,1.64.79.48,1.73-.38,1.36,1.11-.16.66-1.05,1.33-.79,2.07s1.54.84,2,1.4a5.58,5.58,0,0,1,1.07,2.84c.44,3.16,1.16,6,1.89,9.14.49,2.08-.76,2.12-2.62,2.14,1.25,1.74,2.48,3.5,3.81,5.18s1.64,4.21,2.25,6.21q1.1,3.6,2.16,7.21a4.81,4.81,0,0,1,.12,3.26,3.23,3.23,0,0,0-.26,2.59c5.77-3.31,11.21-7,16.69-10.77,2.62-1.81,5.25-3.62,7.85-5.47a18.55,18.55,0,0,0,5.37-5.22c3-5.06,7.53-9,11.61-13.29,2.07-2.17,4-4.87,6.54-6.51s5.06-3,7.53-4.6l-2.75-3.76" transform="translate(0 0)" fill-rule="evenodd"/><path d="M617.67,371.32c2.35-1.12,4.52-2.62,6.81-3.87,2-1.08,3.78-1.6,5.49-3.1a8.91,8.91,0,0,1,2.22-1.28,19.44,19.44,0,0,0,2.81-2.16c-2.41-.93-4.77-2.38-7.43-2.41-1.18,0-2.27.4-3.45.18a7.33,7.33,0,0,1-3.09-1.54c-1.73-1.29-2.5-1.1-4.38,0-.45.26-1.06.83-1.61.81-.88,0-.75-.57-1.13-1.18s.1-.61-.54-.63c-.38,0-.56.52-1,.61-.81.15-2.34-.64-3.16-.79a14,14,0,0,0-3.77.14,10.61,10.61,0,0,1-4.09-.69c-1.2-.41-2.36-1-3.57-1.35-1.58-.48-1.91.14-3.37.48-2.22.51-4.38-2.69-6.42-1,3,4.35,7.08,8,10.86,11.73a81.26,81.26,0,0,0,6.32,5.7c1,.8,2,1.58,3.05,2.36l1.4,1.06c.83.64.75.83,1.54.46,1.06-.49,1.88-1.54,3-2.05s2.33-.9,3.46-1.44" transform="translate(0 0)" fill-rule="evenodd"/><path d="M619.16,275.91c.08,2,1.3,3.56-.42,5.22l-.15-2.92c-.05-1-.56-2.11.57-2.3m-1.92-8.54a3,3,0,0,1-1.47,1.9c-1.16.62-2.76-.38-3.57.5s-.72,3-1.78,3.7c-.34.23-.71.07-1.12.37s-.36.88-.71,1.15c-.58.45-1.07,0-1.62.25s-.71,1-.88,1.6-.15,1.38-.59,1.85a13.24,13.24,0,0,1-2.44,1.38l-7.06,4.4c.7.71,2.25,1.52,2.43,2.56.12.72-.37.8.22,1.36a9.27,9.27,0,0,0,1.54.69,17.38,17.38,0,0,0,4.15,1.57c1.74.38,3.48.21,5.21.62A21.67,21.67,0,0,0,615,292c1.6,0,3.11-.49,4.7-.62,3-.26,6.83,0,9.26-2.09a21.07,21.07,0,0,0-1.28-5.84c-.74-1.89-1.49-3.76-2.25-5.63a102.24,102.24,0,0,0-5.06-11c-.4,2.5-1.35-.79-2.29-.82-.7,0-.7.87-.88,1.37" transform="translate(0 0)" fill-rule="evenodd"/><path d="M782,294.56a18.49,18.49,0,0,1,3.59,1.05c.91.42,1.25.64,2-.07.43-.39.51-1,1.07-1.25a4.53,4.53,0,0,1,1.87-.23c1.47-.07,2.95-.11,4.43-.16l-5.1-4.9c-.26.45-1,2.12-1.49,2.23-.16,0-.64-.49-.9-.51a1.44,1.44,0,0,0-.73.21c-.63.28-.91.93-1.61,1.1a8.41,8.41,0,0,1-2.17-.17c-.19.66-.68,1.85-1,2.7" transform="translate(0 0)" fill-rule="evenodd"/><path d="M779.92,273.36c.3-1.22-.34-2.48-.15-3.73l-.42-.63a15.31,15.31,0,0,1-1,2.14,9.88,9.88,0,0,0-1.2,1.68c-.46,1.18.11,2.14.69,3.18.76-.86,1.78-1.47,2.06-2.64" transform="translate(0 0)" fill-rule="evenodd"/><path d="M769.81,276c-1,0-.64.51-.78,1.28a3.49,3.49,0,0,1-.59,1.32c-.53.83-1.8,1.65-1.08,2.77.62.94.66-.24,1.17.22s-3,4.13-3.56,4.33c-.29.1-.61-.23-.88,0s.09,2.3.08,2.73c0,1.12-.1,2.33.81,3.13s2.8,1,4.06,1.49a20.24,20.24,0,0,0,2.57,1.13c.95.25,1.78-.28,2.6-.16a15.31,15.31,0,0,1,2.45,1.4,1.71,1.71,0,0,0,1.82.15,4.35,4.35,0,0,0,1.64-.89c.46-.6.11-.59.17-1.4.11-1.47,1.65-1.3,2.71-1.71-2.09-.63-3.25-2.88-4.28-4.71a14.24,14.24,0,0,1-1.62-2.69c-.31-1.13.54-1.86,1-2.81-.7.28-3.42,1.53-2.11.05.41-.46,2.93-1.2,1.91-2.4-.62-.72-1.43.75-2.14.61s-1.82-1.56-2.51-2-2.47-1.85-3.49-1.83" transform="translate(0 0)" fill-rule="evenodd"/><path d="M518.76,318.05a37.35,37.35,0,0,1,1.64-10.34c2.08-6.89,6.51-12.92,7.93-20,.69-3.41.47-6.88,1.13-10.3a71.7,71.7,0,0,0,.79-11c.13-3.61.26-7.22.22-10.83,0-1.29-.38-3.09-.06-4.34.28-1,.7-.66,1.59-1-.62-.38-1.89-.57-2-1.36-.1-.55.43-1.14.41-1.74a6.12,6.12,0,0,0-.4-1.45c-.78-2.53-1.89-6.41-.46-8.84-.86-.14-1.21-.41-2-.05a14.4,14.4,0,0,0-2.48,1.87,48,48,0,0,0-4.31,3.75,90.67,90.67,0,0,0-6.79,8.33c-2.19,2.83-4.46,5.62-6.71,8.39-1.75,2.15-4.53,5.43-7,2.53-.73,1-1.2,2-2.4,2.43a7,7,0,0,0-3.14,2.41c-.21.25-.84,1.31-1.12,1.41-.55.21-.24-.17-.67-.45-.69-.44-1-.74-1.25.48-.11.54.18,1.05-.09,1.58a3.94,3.94,0,0,1-1.47,1.27c-1.07.63-2.29.57-3.44,1-1.9.64-3.12,3.52-5.2,2.14-.76-.5-1.36-1.29-2.35-.75-.73.39-.86,1.38-1.92,1-.56-.21-1-.93-1.66-1.17a5.69,5.69,0,0,0-1.42-.29,16.11,16.11,0,0,1-3.17-.42c-2.24-.71-3.78-2.7-5.3-4.37-1.14-1.25-.78-2-.47-3.62.27-1.35.55-2.69.88-4a34.31,34.31,0,0,1,2.78-7.69c1.48-2.82,3.65-5.18,5.62-7.66,4.11-5.14,8-10.56,12.45-15.4.84-.91,2.28-1.9,2.12-3.28s-1.89-.78-3-.52a67,67,0,0,0-8.18,3.15c-1.5.59-3.5,1.74-5.11,1s-3.92-2.62-3.07-4.37a16.75,16.75,0,0,0,1.7-3.84c.31-1.36.5-2.75.78-4.11.67-3.23,1.53-6.43,2.49-9.59,1.84-6,4.08-11.92,6.11-17.89-8.3.75-15.86,3.16-23.65,5.95.37.76,1.06,1.84.78,2.73-.34,1.1-1.82.73-2.19,1.48s.88,1.4.49,2.54a16,16,0,0,1-1.81,2.93c2.55,1.64,1.56-1.77,3.35-2,.5,2.72-.65,4-1.7,6.29-.95,2,1.22,1.84,1.66,3.37-1.24.21-2.1-.37-2.64,1.1-.23.63.12,2.92-.63,3-.55,0-.37-1-.82-1.05s-2,1.88-2.32,2.25a8.53,8.53,0,0,1,3.77.74c-.93.9-1.86,1.79-2.83,2.66.88.36,2.38.44,2.83,1.42s-.22,2.56-.3,3.51c.37-.57.92-1.9,1.5-2.27.77-.48,1,0,.94,1-.08,1.93-2.6,1.8-2.95,3.34s1.83.46,1.88,2c0,.86-1,1.6-.47,2.51-1.12-.63-1.26-1-1.86-2.21-.43,1.54-1.35,4-.84,5.58.41,1.31,1.28,1,.29,2.26-.37.47-.88.83-.89,1.47,0,1.48,2.08,2.63.44,3.94-.64.51-1.32.57-1.65,1.46s0,1.79-.22,2.62a9.18,9.18,0,0,1-2.86,4,41.29,41.29,0,0,1-3.22,3.13,4.91,4.91,0,0,0-1.31,1.42c-.18.27,0,.52-.2.78s-1,.26-1.42.34c-1.28.25-2.84.76-3.27,2.19-1.56-1.19-3.15.25-4.67.72a2.63,2.63,0,0,1-2.16-.1c-1.14-.64-1.09-.73-2.45-.54-3.81.55-6.94-3.41-9.06-6.08a14.68,14.68,0,0,1-2.79-6.77c-.48-2.85-1-5.68-1.23-8.55a142.56,142.56,0,0,1-.12-18,143.77,143.77,0,0,0-19.92,13.37C390,239.37,384.64,245.4,379,251c1.44.09,2.82.6,4.26.63a4.71,4.71,0,0,0,2.06-.37,4.09,4.09,0,0,0,1-.63.64.64,0,0,1,1.09-.27c1.41-.12,2.72-.41,4.14-.62a18.38,18.38,0,0,1,5.46.59c3.29.57,6.79.19,10,1.22,2.79.89,5.69,2.17,8.37,3.33s4.84,3.56,7,5.31a36.49,36.49,0,0,0,4,2.25c1.28.8,2.26,2.53,3.17,3.71,2.19,2.83,4.63,5.45,6.83,8.27a15.88,15.88,0,0,1,2.42,4.13c.28.77.31,1.63.58,2.38a7,7,0,0,0,1.12,1.63c1.34-3.62,2.65-7.26,4-10.86.53-1.38,2.92-8,4.79-5.48,1.61,2.19.7,6.7.2,9.15-.68,3.28-1.42,6.54-2.16,9.81-1.45,6.49-2.79,13-4.64,19.41a7.39,7.39,0,0,0-.39,1.35c-.06.74-.31.32.19.84.27.26.88.18,1.13.5.45.57.3,2.58.26,3.28-.06,1.34-.8,1.92-1.15,3.11s.21,2.1.22,3.15c0,2.59-1.32,5.41-1.79,8-.29,1.63.64,4.21-1.64,4.52.57,1-.11,1.37-.61,2.07a11.32,11.32,0,0,0-1.05,2.78,9.65,9.65,0,0,0-1,2.39c-.08.8.27,1.57,0,2.39-.33,1-.94,1.08-1.76,1.5s-.55-.07-.82.72c-.12.35,0,1.15,0,1.55-.35,1.9-1.87,3.17-3.13,4.5-.47.5-1.08,1.65-1.66,2-.84.45-2.11-.33-2.89.08s-1.45,3.42-1.72,4.16c-.55,1.57-1.08,3.15-1.61,4.73q-2.91,8.69-5.78,17.38c.92,0,2.45-1,3.34-.62s.37,1.88.75,2.64c.28.54,1.87.46,2.62.5a7.44,7.44,0,0,0,2.94-.61c1.94-.57,4.37-.37,6.39-.59,4.47-.49,9.07-.62,13.47-1.6,4.21-.94,8.24-2.5,12.37-3.71-1.93-1-2.29-3.52-2.84-5.42a9.93,9.93,0,0,0-1-2.84,17.22,17.22,0,0,1-1.71-3.47C452.1,355,452,349,452.59,344A65,65,0,0,1,463,315.72a73.86,73.86,0,0,1,9.2-11.36c3.5-3.56,7.1-7.45,11.2-10.31,1.86-1.3,4-1.76,5.66-3.31,1.25-1.18,3.25-1.45,4.79-2.28a21.51,21.51,0,0,1,6.36-2.59c1.77-.36,3.76-1.27,5.6-1,1.26.16.79.75,1.53,1.33,1,.77.63-.31,1.35-.58s1,.35,1.51.54a4.69,4.69,0,0,0,1.22,0c.56.34.47,1.54.79,2.11a9.52,9.52,0,0,1,1.07,1.72,3,3,0,0,1-.3,2.43c-.43.87-1.08,1.3,0,2.15-2.6,1.7-1,5.14-3,7.21-.66.7-2.16,1.68-2.14,2.77s2.14,1.65,1.06,2.83-3.13.56-4.28,1.51-.77,2.61-.87,3.93c-.08,1-1.07,2.24-.66,3.21.27.64.74.55.76,1.25a8.26,8.26,0,0,1-.61,1.86l-1.3-.57a17,17,0,0,0-.65,2.29,5.22,5.22,0,0,0,.45,2.2c.2.83-.25,2.27-.33,3.26a5.14,5.14,0,0,1-1,3.21c-.48.52-1.14.6-1.65,1a5,5,0,0,0-1,1.38l2.24-.66a6.17,6.17,0,0,1-1.79,3.13c-.15-.83-.31-1.65-.47-2.47a6.85,6.85,0,0,0-.71,2.48c0,.79.4,1.56.4,2.38,0,1.6-1.17,2.64-.69,4.18a6.62,6.62,0,0,1,.13,4.74,24.08,24.08,0,0,0-1.34,5.08c-.13,2,.76,3.69.57,5.7-.08.93-.47,1.59.57,1.69s1.93-.67,2.73-1c4-1.89,7.9-3.8,11.85-5.7-.74-1-.56-1.06-.1-2.32.35-.95.69-1.9,1-2.85.74-2,1.47-4,2.22-6,1.41-3.74,3.28-7.44,4-11.4.62-3.58.3-7.14.35-10.74" transform="translate(0 0)" fill-rule="evenodd"/><path d="M277.3,605.62l-3.91-2.47,2.28-1.74c.82-.63,1.2-1.22,1.68,0s-.1,2.84-.05,4.19m-1.66-9.49c1.84,2.15-1.59,2.77-2.92,3,.22-1,1-5.31,2.92-3m40.28-7.56c-.6-1.82-1.56-6.87-4.32-6.56-.66.08-1.25.74-2,.79a13.25,13.25,0,0,1-2-.18,11,11,0,0,0-4.39.42c-1.62.54-2.81,1.3-4.56,1.41a18,18,0,0,0-3.8.34c-2.09.6-1.95,2.46-1.65,4.31a6.76,6.76,0,0,1-1-1.19c-.29-.53-.29-1.13-.74-1.6-.9-.92-1.93-.49-3-.41s-2.85-.74-4.05-.27c-.54.21-.85.8-1.41,1a5.16,5.16,0,0,1-1.56.32,28.67,28.67,0,0,1-3.46.51,14.09,14.09,0,0,0-4.29.28c-1.4.38-2.75,1-4.15,1.34-1.55.42-3.16.46-4.74.77-3.14.62-6.24,2-9.46,2.22a46.51,46.51,0,0,0-5,.36,6.91,6.91,0,0,0-2.11.34c-.47.32-.79,1.67-1.06,2.22-2.88,6-5,12.29-7.27,18.48-2.4,6.44-4.78,12.89-7.19,19.33-1.13,3-2.57,6-3.51,9.13-.87,2.86,2.5,4.87,4.3,6.66a128.48,128.48,0,0,0,13.8,12.48c5,3.76,10.69,6.29,16.4,8.81a69,69,0,0,0,18.35,5c3.25.45,6.52.77,9.8,1a42.5,42.5,0,0,0,9.29-.6c-.32-.75-1.36-2.06-1.24-2.89,0-.23.52-.62.63-.89a3.31,3.31,0,0,0,.15-1.17c0-1.88-.69-3.71,1.72-4.38l.24,3.09c1.17-1.76.43-3.64-.28-5.41l-2.46,2.05c.17-.5,1.55-3.67,1.17-4s-1.07.5-1.47.12,0-1-.07-1.45c-.17-.64-.86-1.13-.85-1.83,0-.93,1.2-1.65,1.77-2.25a3.42,3.42,0,0,0,1.16-2.71c0-1.66.77-1.57,2-2.67,2-1.79,2.08-4.26,1.07-6.62l2.6-.2c-.8-2-1.63-4-2.41-6.07s.28-3.05.81-4.92l3.56,3.53c.34-3.81,1.35-7.65.87-11.48-.14-1.19-.37-1.12.18-2,.39-.64,1-1.14,1.29-1.83a12.29,12.29,0,0,0,1-4.39,23.45,23.45,0,0,1,.46-4.27c.3-1,1.27-1.59,1.51-2.72.41-2-2.72-5.38-.9-6.83.92-.74,2.08,0,2.75-1.24a18.59,18.59,0,0,0,1.13-3.6,7.2,7.2,0,0,0,.14-5c-.56-1.58-1.17-3.14-1.69-4.75" transform="translate(0 0)" fill-rule="evenodd"/><path d="M344.65,496.76c-.46-1.05-1.17-1.24-2.25-1.45-4.66-.89-9.36-.9-14.07-1.33a25.65,25.65,0,0,1-4-.64c-1.09-.27-2.12-.88-3.19-1.13-2.14-.51-4.26.9-6.39.8-1.1-.05-2-.71-3.06-1a7.49,7.49,0,0,0-2.5,0,30.57,30.57,0,0,1-5.06-.15,38.47,38.47,0,0,1-6.13-1.13c-1.33-.36-3.34-.75-4.32-1.76A71.4,71.4,0,0,0,288,499.78c-1.58,3.66-3.67,7.11-5.6,10.59-3.91,7.1-6.72,14.72-9.37,22.36,1.46-.67,2.52-1.36,3.62.16s2.26,1,3.94,1.23c2.68.44,3,3.41,3.56,5.63l2.61-3.24c.7.78,1.82,1.18,2.39,2.07.36.57.16,1.1.37,1.65s.72.71,1.1,1.07c2.66-3.4,5.16,3,5.48,5.19.34-.85.67-1.7,1-2.55a12.08,12.08,0,0,1,1.49,1.55c.23.38.22,1,.47,1.35.36.47.6.26,1.13.39.85.2.69.16,1.18.81,1.48,2,3.69,3.5,4.94,5.62,1.57,2.68,3.7,5.43,4.65,8.39a24.33,24.33,0,0,0,1.65,4.85c.47.83,1.27,1.54,1.69,2.35.52,1-.4,1.43-.3,2.33s1.61,1.79,2.36,2.07a12.16,12.16,0,0,0,3.81.34,17.1,17.1,0,0,0,5-.48c1.35-.4,1.25-1.09,1.62-2.28a36.68,36.68,0,0,1,1.82-4.11c.91-2,1.35-3.33-1.38-3.93,1.57-.26,4.13-.72,3.63-2.82-.24-1-1.15-1.68-1-2.79s1-1.52,1.85-2.11a10,10,0,0,0,3.29-5,4,4,0,0,0,.07-2.78,17.61,17.61,0,0,1-.94-4.57l2.16.23a7.76,7.76,0,0,0-.47-1.73c-.1-.19-.6-.34-.57-.61.05-.47.68-.46,1-.79.72-.84.93-2.82,1.22-3.84a12.45,12.45,0,0,1,1-3c1-1.63,2.21.67,2-1.64-.12-1.17-.21-2.9-1.67-3.07-1.74-.21-2.24.48-2.07-1.6.11-1.47-.29-4.63,1.29-5.43a8.89,8.89,0,0,1,2.83-.4c1-.08,1.8.45,2.72.42,1.55,0,1.46-2.26,1.64-3.39a60.33,60.33,0,0,0,.7-15.12,21.83,21.83,0,0,0-1.14-6.37" transform="translate(0 0)" fill-rule="evenodd"/><path d="M385.05,299.57c-.11-3.65-.11-3.65,1.92-5,.53,2.32-.8,3.49-1.92,5m36.75,9.3c.44-.86,2.24-.61,3-.6a24.83,24.83,0,0,0-2,3.89c-.42-.79-1.45-2.44-1-3.29m-4.72,25.83c.79-.63.6-.6,1-1.35.29-.59.22-.9.85-1.28,1.27-.79,1.46-.79,1.79-2.47.28-1.46.17-3.54.81-4.9.46-1,2-1.05,2-2.27.05-2.37-4.22-3.57-3.41-6,.25-.71,1-.93,1.34-1.54.2-.38.07-.86.13-1.26.15-.89.39-1.09,1.22-1.32a1.57,1.57,0,0,0,0,1c.54,1.05,2.69-.21,3.18-.93,1-1.49.08-4-.25-5.51a18.13,18.13,0,0,1-.22-5.83l2.75,3c.5-1.52.59-2.34,2-3.3a7.84,7.84,0,0,0,2.63-2.77c.31-.5.53-1.05,1.15-1.23s1.63.49,2.14.23c.32-.15.66-1.8.77-2.1.35-.94.69-1.87,1-2.81-2-5-3.56-10.2-6.5-14.71-2.68-4.13-6.57-7.46-10.5-10.4-2-1.46-3.95-2.95-6-4.27s-4.3-1.82-6.5-2.81a21,21,0,0,0-7.21-2.15c-1.24-.06-2.45.23-3.7.06s-2.71-.65-4.08-.88c0,7.18-2.62,14.46-5.06,21.14-1.11,3-2.71,5.85-3.88,8.87s-2.33,6.06-3.61,9.05c-2.64,6.17-5,12.61-8.44,18.41-.3.52-.64.89-.46,1.34.05.13.48.39.6.51a5.33,5.33,0,0,1,.85,1.2,24.55,24.55,0,0,1,1.23,3.22,56.84,56.84,0,0,0,3.93,7.17,30.56,30.56,0,0,0,5.67,7c1,1,2.55,1.88,3.17,3.17a24.54,24.54,0,0,1,.85,3.27l.36-2.54c.9,1.91,3.22,2.09,4.9,3a65.09,65.09,0,0,0,6.25,3.67,30.46,30.46,0,0,0,7.13,2.17,18.8,18.8,0,0,0,3.75.3,10.08,10.08,0,0,0,3.34-1.13c-3.62-3.11-2.3-8.52-.24-12.11.63,1.39,1.27,2.79,1.9,4.19.42-1,1.85-1.94,1.21-3.1-.38-.71-.88-.53-1-1.34a3.75,3.75,0,0,1,.63-2,9.11,9.11,0,0,1,.49,2.2" transform="translate(0 0)" fill-rule="evenodd"/><path d="M406.54,358c-.82-1.79-4.16-2.21-5.84-2.55-2.78-.57-5.44-2.21-7.93-3.52a26,26,0,0,1-6.35-4.28,8,8,0,0,0-2.76-1.56,7.63,7.63,0,0,1-2.58-2.08c-1.61-1.8-3.72-3.15-4.95-5.26s-3-3.51-4.49-5.43c-1.79-2.26-3.06-4.86-4.61-7.27-2.79,3-3.54,7.68-5.23,11.33-2.11,4.53-4.12,9.12-6.1,13.71-3.54,8.25-7,16.54-10.07,25-.11.31-.72,1.34-.62,1.67s.89.69,1.14.95a16.17,16.17,0,0,1,1.58,2.33A30.28,30.28,0,0,0,351,385a39.82,39.82,0,0,0,9.19,7.47c1.48.84,3.59,2.51,5.28,2.36a18.24,18.24,0,0,1,6,.16,24,24,0,0,0,6.19.85,6,6,0,0,1,2.57.2c.59.24,1,.91,1.67.94.84,0,1.33-.75,2.1-1a5.19,5.19,0,0,1,2.1-.25c1,0,3.46,1,4.28.18s.56-3.36,2.24-3.69c1.24-.24,3.76,2,4.78,2.68-.44-1.33-2-3.92-1.13-5.31a1.26,1.26,0,0,1,1.56-.56c.83.17.9.76,1.56,1.13,3.57,2,3.25-7.53,3.13-9l-2.72-.16c0,.84.26,2.71-.3,3.05s-2.15,0-2.73,0c1.24,1.18,1.82,2.19,0,3.2a2,2,0,0,1-3-1.65c-.14-1.64,2.42-1.89,1.95-3.51-.63-2.18-2.55,1.51-2.9,2.15a5.33,5.33,0,0,1,1.08-5.11c1.5-1.78,3.21-1.88,5.33-1.32.21-.9.67-1.51.91-2.33.3-1-.15-.74-.58-1.59-.7-1.38.7-1.86,1-3a2.63,2.63,0,0,0-.47-1.92c-.39-.65-1.13-1.11,0-1.47.82-.27,1.78.52,2.55-.19s.53-2.36,1-3.31c.68-1.43,1.44-.55,2.55-.14.83.3,1.08.27,1.18-.65a1.37,1.37,0,0,0-.37-1.24c-.57-.53-1.37-.15-2-.33-.89-.24-.93-.8-1.26-1.59,1.53-.14,1.55.35,2.95.94a4.67,4.67,0,0,0,3.43,0,10.26,10.26,0,0,1-2.41-.83c-.87-.61-.67-1.32-1-2.16" transform="translate(0 0)" fill-rule="evenodd"/><path d="M502.24,306c1.52-2.8,2.9-5.68,4.26-8.56.83-1.75,2.63-4.17.5-5.62-1.44-1-4.06-2.34-5.87-1.6-1.54.62-2.39,4.26-4.51,1.88-.38,1.1-1.7.92-2.48,1.51-.59.45-.53.9-.89,1.46a12.81,12.81,0,0,1-1.44,1.51,11.7,11.7,0,0,0-1.37-2.13,8.05,8.05,0,0,0-.64,2.12c-.15.47-.28.8-.78,1-1.13.42-2.24-1-2.82-1.73a4,4,0,0,1-.3,3.62c-.63.81-1.66,1-2.26,1.81s-.71,1.66-1.9,2.05a7.14,7.14,0,0,1-1.28.28c-.27,0-.4-.46-.51-.46a5.23,5.23,0,0,0-1.32.61c.75.94.46,1.34-.35,1.95a3.16,3.16,0,0,0-1.4,1.95,2.48,2.48,0,0,1-1,1.33c-.53.3-1.25,0-1.69.35-.91.63-.8,2.26-1.52,3.06-.95,1.07-2.16,1.81-3.05,3a27.45,27.45,0,0,0-2.29,3.88c-1.33,2.59-3.1,5-3.28,7.95a10.73,10.73,0,0,1-.53,4c-.56,1.14-1.78,1.6-2.26,2.92a18.65,18.65,0,0,0-.78,3.69c-.17,1.43.72,2.5.1,3.88a9.74,9.74,0,0,0-.82,3.71c-.11,1.34-1.17,2.26-.52,3.41a8.56,8.56,0,0,1,1.46,3.27c.2,1.46,0,2-1.3,2.6a16.18,16.18,0,0,1,2,3.78,11.14,11.14,0,0,0,1.83,3.8c1.77,2.32,4,3.55,4,6.78L491.25,361c-3.1-.59-1.51-6-1.31-8,.37-3.71.77-7.44,1.3-11.13.47-3.18,1.37-6.26,1.86-9.44a47.74,47.74,0,0,1,.93-4.91c.38-1.41,1.17-2.72,1.48-4.1.72-3.12,1.16-6,2.46-9s2.79-5.58,4.27-8.32" transform="translate(0 0)" fill-rule="evenodd"/><path d="M268.54,582.62a3.67,3.67,0,0,1,2-.44,28.82,28.82,0,0,0,5.39-1.17,63.71,63.71,0,0,1,6.86-1.42c2.18-.38,4.39-.28,6.52-.92a23.13,23.13,0,0,1,6.08-1.33c2.45-.1,3.89-1.24,5.9.81,1.8-2.51,4.4-2.5,7.27-2.89,1-.14,2.22,0,2.45-1.23s-.7-2.66-1.19-3.59c-2.64-4.92-4.86-10.12-8.37-14.51s-7.88-9.07-12.74-11.76c-2.63-1.45-5.67-2.25-8.46-3.35-3-1.19-6-2.54-9-3.82-1.56,1.66-1.68,3.67-2.46,5.78s-2,3.69-2.63,5.68c-1.32,4-2.45,7.94-4.1,11.82-3.5,8.21-6.89,16.38-10.06,24.72,5-.78,9.86-1.26,14.91-1.58,1-.06.92-.31,1.63-.8" transform="translate(0 0)" fill-rule="evenodd"/><path d="M533,276.25c1.43.15,3.12.52,4,1.75a109.87,109.87,0,0,1,13.39-15.43,197.72,197.72,0,0,1,14.66-13.41c10.45-8.41,22-15.16,33.92-21.21-3.78-4.35-7.5-8.77-11.31-13.1A99.47,99.47,0,0,0,575.79,204a97.22,97.22,0,0,0-.89,10.21c0,3.42.5,6.82.54,10.24a31.84,31.84,0,0,1-.76,8.43c-.55,2.08-1.8,5.13-4.08,5.8-3.1.91-8.37-.63-10.7-2.82-2-1.88-3.06-4.68-4.65-6.88-1.09-1.51-2.23-2.15-4.07-1.55a59.87,59.87,0,0,0-8,3.81c-2.92,1.46-5.82,2.94-8.74,4.4.2.14,1.39.75,1.44,1,0,.08-.67,1.49-.69,1.76a8.54,8.54,0,0,0,.78,3.16,9.71,9.71,0,0,1,.59,3.34c-.05,1.21-.72,2-1,3.15s.61,1.59,1.06,2.61A5.77,5.77,0,0,1,537,254a15.14,15.14,0,0,0-.71,2.74c0,.5.42,1,.28,1.55s-.75.78-1.09,1.12c1.57,1,1.87.88,1.24,2.57a7.09,7.09,0,0,0-.09,3.66c.11.67.81,2.48.34,3.16s-1.85.14-2.51.12c.24,1.26.59,1.13,1.18,2.17a4.31,4.31,0,0,1,.31,2.33c-.11,2-1.32,2.19-2.93,2.86" transform="translate(0 0)" fill-rule="evenodd"/><path d="M301.56,484.61a29.35,29.35,0,0,0,6.35,1.23,16,16,0,0,1,5.65,1c.65.3,1.35,1.1,2.06,1.09s.58-.59,1.17-1,1,.05,1.55.2a11,11,0,0,0,2.51.24c2.37.08,4.74.13,7.11.19,2.13.05,4.2.4,6.32.41s4.48,0,6.72,0c-1.76-3.39-3.25-6.94-6-9.66-1.4-1.37-2.57-2.91-3.89-4.35a47,47,0,0,0-4.38-3.72,28.67,28.67,0,0,0-4.56-3.73,12.08,12.08,0,0,0-2.37-1.22,8.12,8.12,0,0,1-1.94-.49c-.72-.42-1.36-1.3-2.06-1.81a21.76,21.76,0,0,0-2.29-1.42c-1.58-.88-3.21-1.63-4.74-2.59-4.7,8.68-8.91,17.45-12.77,26.54a5.71,5.71,0,0,1,5.56-.93" transform="translate(0 0)" fill-rule="evenodd"/><path d="M424.32,218.85a8.3,8.3,0,0,1,1.23,1.66c.34.72.14,1.4.34,2.09.26.84,1.23,1.21.64,2.27-.4.72-1.36.89-1.64,1.73-.5,1.51,1.23,2.9,1.91,4.09a3.26,3.26,0,0,1,.53,2.28c-.1.5-.53.87-.65,1.32-.2.77,0,0,.09.78s.43,1.68.49,2.54a25,25,0,0,0-.08,2.73,19.28,19.28,0,0,0,2.84,6.14c1,1.38,1.75,1.88,3.32,1.25,8.4-3.31,10.1-12.41,11.8-20.18a66.49,66.49,0,0,0,1.63-13.76c.06-4.93.44-9.86.08-14.79-1.39.4-3.13.54-4.1,1.74-.51.64-.52,1.44-1,2a19.77,19.77,0,0,1-3,2.13l-13.21,9.87-1.84,1.38c-.63.48-.8.4-.7,1.09s1,1.22,1.29,1.62" transform="translate(0 0)" fill-rule="evenodd"/><path d="M483.3,246.31c-.79,1-2.29,1.26-3.25,2.21a8.64,8.64,0,0,0-1.92,3.3,12.85,12.85,0,0,0-1.27,4.48,36.41,36.41,0,0,1-.79,4.65c-.16,1.06-.11,1.39,1,1.7a13.08,13.08,0,0,0,4.83.24c7.34-.75,13.13-6.43,17.58-11.75,5.11-6.09,9.16-12.92,13.55-19.5-2.1-1.19-4.38-2.08-6.38-3.43s-3.58-2.87-5.43-4.21c-.26.77-.26,1.66-.58,2.4s-.86,1-1.64,1.48a11.27,11.27,0,0,0-3.41,3.43c-.82,1.25-1.23,2.84-2.21,3.94s-2.27,1.45-3.32,2.28c-1.54,1.21-2.82,3.39-4.06,4.91-1,1.24-1.72,2.63-2.67,3.87" transform="translate(0 0)" fill-rule="evenodd"/><path d="M346.46,313.17c.28.77.87,1.85.44,2.67-.78,1.49-1.56-.71-2.34-1.07a34.86,34.86,0,0,0,.66,3.81,6.06,6.06,0,0,1,.36,2.59c-.17.95-.95,1.48-1,2.45a17.07,17.07,0,0,0,.6,2.69c-1.47-.17-1.79-.36-2.69.75a6.48,6.48,0,0,1,1.57.43c.42.35.2.18.3.83a21.79,21.79,0,0,1-.06,3.22c0,1.08-.65.88-1.12,1.62a3.64,3.64,0,0,0-.16,2.07c.12.78.77,1.64.67,2.43-.11.95-1,1-1.46,1.72-.59.94-.07,1.62.19,2.58a28.92,28.92,0,0,1,.48,4c6.43-13,11.48-26.59,18.68-39.15.18-.31.36-.61.53-.92l-.64-.38c-.1-.63-.07-1.41-.13-2.11-.12-1.52-.54-3-.73-4.5-.22-1.68.16-3.3,0-5-.06-.57-.19-1.15-.21-1.73,0-.88.46-1.52.53-2.3s-.39-1.85-.4-2.7a13.38,13.38,0,0,1,.17-2c.25-1.78.78-3.5,1.05-5.27.55-3.64.59-7.34,1.21-11-1,1.43-2.07,2.77-3,4.21s-1.58,3-2.45,4.49a23,23,0,0,1-2.58,3.48c-.79.91-.78.85-.46,2a4,4,0,0,1,.24,1.56c-.34,2.2-3.63,1.46-3.15,3.86.24,1.21,1.15,2.33.66,3.63s-1.78,1.75-2.29,2.91.19,2.15.24,3.38a3.47,3.47,0,0,1-1.17,2.65c-1,1-1,1.67-1.23,3.1a11.24,11.24,0,0,1-1.33,3.6c-.64,1.1-1.43,1.43-1.09,2.67.24.89.78,1.77,1.1,2.65" transform="translate(0 0)" fill-rule="evenodd"/><path d="M331.13,333a42.46,42.46,0,0,0,5.14,12,48.21,48.21,0,0,0,1.14-6.4c.1-2.18.17-4.33.41-6.49.45-4.05,1.2-8.05,2-12,1.74-8.36,3.38-16.73,5.15-25.08-2.62,4.17-5.25,8.33-7.84,12.52q-1.91,3.06-3.79,6.13c-1,1.67-2.91,3.76-3.19,5.74a42.78,42.78,0,0,0,0,7.16,30,30,0,0,0,1,6.47" transform="translate(0 0)" fill-rule="evenodd"/><path d="M368,283a16,16,0,0,0,.56,1.79,13.78,13.78,0,0,1,.14,2.13c0,1.71.11,3.42.17,5.13,3.46-4.76,5.31-10.41,8.42-15.37a47.48,47.48,0,0,0,3.83-6.57c1.08-2.58,2.08-5.14,3.34-7.64.68-1.37,1.39-2.73,2.06-4.1.33-.66.67-1,.32-1.61a1.73,1.73,0,0,0-.91-.69c-.9-.19-1.42.87-2.13,1.23-1,.49-2.19.32-3.21.67-2.34.78-4.59,2.25-6.88,3.2-.73.31-1.26.43-1.2,1.31s.85.62,0,1.29c-.45.37-1,.2-1.55.15,0,1.68.35,2.69-.47,4.19-.66,1.2-.39,2.12-.47,3.39a14.08,14.08,0,0,1-1.2,4.29c-.51,1.25-1.27,2.23-.52,3.54.4.72,1.28,1.25.77,2.08s-1.19.46-1.1,1.59" transform="translate(0 0)" fill-rule="evenodd"/><path d="M358.06,505.44c-2.49-1.47-.13-3,0-4.36ZM354.25,497c-.37,0-1.66.15-1.89.54a14.15,14.15,0,0,0,.1,2c0,1.23-.13,2.46-.06,3.68s.7,2.42.75,3.63-.67,1.74-1,2.75c-.44,1.33.15,5,1.64,5.37a13.59,13.59,0,0,1,.31-2.85c.71-.33,1.06,1.5,1.26,2,2-1.94,2.55-4.61,3.47-7.22l3.18-9c-1.3-.13-2.61-.21-3.9-.38a21.88,21.88,0,0,0-3.85-.53Z" transform="translate(0 0)" fill-rule="evenodd"/><path d="M319.82,582.21c-1.1.47-.79,1.8-.75,3a4.35,4.35,0,0,0,2,3.82c.52-1.38,2.38-4.42,1.84-5.86-.44-1.17-2.06-1.36-3.08-.93" transform="translate(0 0)" fill-rule="evenodd"/><path d="M533,249c.73-.66,1.85-1.1,2-2.17s-.88-2.85-1.19-3.83c-.27,2-.53,4-.8,6" transform="translate(0 0)" fill-rule="evenodd"/><path d="M371.61,454.55c-1.89,0,.16-3.94.46-4.84.6,1,2,4.85-.46,4.84m15.75-49.73c.75-.44,2.16-1,2.56-1.8s-.49-1-1.34-1a13.9,13.9,0,0,0-3.29.06c-1,.19-1.43.42-2.37-.17-.54-.34-1-1.17-1.65-1.29s-1.37.55-1.92.8c-1.92.89-4,.31-6,.41a4.11,4.11,0,0,1-2.12-.11c-.91-.42-1.12-1-2.24-.91-1.82.12-3.21.67-5.07.18-1.15-.31-2.74-1.53-4-1.15s-1.76,2.16-2.67,2.93c-.31-1.58-.48-3.33-1.69-4.52s-3.56-1.81-5.14-2.9c-3.55-2.47-6.12-6-8.83-9.32a40.16,40.16,0,0,0-4.09,7.89c-1.1,2.78-2.17,5.58-3.26,8.36-2.21,5.6-4.57,11.14-7,16.66C322.35,430.1,316.83,441,312,452.23c3.31.08,6.54,1.7,9.39,3.26a3,3,0,0,1,1.25,1.21c.23.31.55,1.07,1,1.18.24.06,1-.38,1.42-.32a3,3,0,0,1,1.43.81c2.78,2.19,5.56,4.5,8.2,6.87a13.86,13.86,0,0,1,2.86,3.52,13,13,0,0,0,3.27,3.65c2.23,1.82,3.52,5,5.08,7.44a34.87,34.87,0,0,1,2.45,4.33c.62,1.38.84,3,2,4.09,2.39,2.27,6.12,1,9,1.34,1.14.15,1.41.47,2.44,0,0-.4.16-.54.46-.43a2.57,2.57,0,0,1,.92.46c.75.41,1.46.9,2.19,1.35l1.28-3.15c-.48,0-2.21.2-2.47-.52s.72-.77,1.07-1.14.63-1.77,1.4-1.75.6.58.59,1.12c1.36,0,1.35-1.15,1.58-2.17.16-.68.38-1.35.56-2,.11-.46.88-2.33.69-2.72-.49-1-3.61-.92-1.62-2.11.63-.38,2.12-.26,2.61-.79s.43-2.19.54-2.78c-.92.06-2,.62-2.61-.2-.82-1.2.38-3,1-4,.78.62,1.27,1.3,2.17.58a7.79,7.79,0,0,0,2.19-3.29c-1,0-.86.17-1.38-.64a7.2,7.2,0,0,1-.54-1.78c-.3-1.06-.92-1.87.37-2.15.8-.18,1,0,1.23.77a24.74,24.74,0,0,1,.32,3.79c1.25-1.58,2.54-3.28,2.07-5.43-.8.79-.88.58-1.85,0s-1.91-1.26-2.86-1.89c1.21-1.09,3.12,0,4.31-.93.8-.61.39-2.48.45-3.33a25,25,0,0,0,.46-3.19c-.06-1.14-1.38-1.65-.68-2.7.49-.74,1.62-.63,1.84-1.73s-.91-1.77-1.74-2.26c1.23-.4,3.6-.83,2.48-2.48-.52-.78-1.16-.85-1.15-1.95a6.25,6.25,0,0,1,.88-2.37c.46,1.06,1.14,3.54,2.58,3.46,1.2-.07,2.26-1.15,1.91-2.23-1.06-3.34-4.08-3.58-7-4.21.55-2,2-1.9,3.46-.88.86.61,1.41,1.12,2.51.5s.59-.9.09-1.83c-1-1.91.39-3,1.8-4.12a23.43,23.43,0,0,0,1.89-2.13c.7-.71,1.85-.87,2.74-1.28-1.07-.53-2-1.07-3.23-.66-.79.27-1.36.8-2.27.34-2-1,.61-1.28.88-2.13.15-.48-.37-1.45-.17-2.13a7.47,7.47,0,0,1,1-1.89c.82-1.27,1.72-2.56,1.23-4.15,1,1.13,1.32,1.38,1.4,3a27.5,27.5,0,0,0,.37,4.25c.06-2.06,1.95-3.44,2.27-5.42.1-.62-.41-2.13.18-2.46s1.4.4,1.89.4a37.7,37.7,0,0,0-1-5.69c-.62-1.78-2.25-2.46-3.61-3.63" transform="translate(0 0)" fill-rule="evenodd"/><path d="M905.69,204.51c-2.51.52-4.92,1.33-7.45,1.81-3,.57-6,1.1-9,1.53-2,.3-3.86.76-5.19,2.45-2.47,3.15-5,8.59-1.56,11.94,1.61,1.57,4.42,1.07,6.48,1.73a38.86,38.86,0,0,0,6.84,1.85c11.22,1.46,22.38,4.17,33.36,6.87a111.83,111.83,0,0,1,14.8,4.86,37.13,37.13,0,0,1,7,3.61,28.52,28.52,0,0,1,5.52,4.22,57.83,57.83,0,0,1-18.75.12c-3-.51-6-.37-9.08-.6s-6.08-.44-9.12-.71-5.89-.59-8.82-1a12,12,0,0,0-3.28-.18,4.37,4.37,0,0,1-1.62.15c-.49-.12-1-.5-1.5-.66-2.25-.75-4.65-.61-7-.74-1.75-.1-3.61-.63-5.36-.24-3.08.68-4.48,5-5.18,7.64a10.15,10.15,0,0,0,.45,5.39c.62,1.89,1.76,1.86,3.28,2.72a58,58,0,0,0,6.44,3.52c2,.8,4,1.5,5.93,2.35,4.28,1.88,8.93,3.51,13,5.88,2.19,1.29,4.26,2.57,6.56,3.68a43.51,43.51,0,0,1,16,13.16,10.1,10.1,0,0,1-3.68-.27c-1.56-.55-3-1.36-4.59-1.86-3-.95-6-1.85-8.94-2.93s-6-2.15-9-3c-1.55-.46-3.12-.66-4.7-1a25.52,25.52,0,0,1-3.94-1.45c-6.31-2.54-13.06-3.75-19.59-5.58-6.35-1.78-12.64-3.63-19.13-4.89-3-.58-6.05-1.13-9.09-1.55a20.57,20.57,0,0,0-8.47.77,55.46,55.46,0,0,0-8.69,2.83c-2.08.91-5.15,1.71-6.76,3.28a13.56,13.56,0,0,1-2.83,2.56,20.07,20.07,0,0,1-3,1.25c-2.28.83-4.44,1.91-6.7,2.77a15.68,15.68,0,0,1-4.42,1.06,7.09,7.09,0,0,0-3.28,1.08,45,45,0,0,1-6.44,2.14c-2.14.68-4.58,2.47-6.91,1.65s-3.7-3.7-5-5.5a56.25,56.25,0,0,1-8.57-15.06c-2.09-5.95-4.09-11.94-6.11-17.92q-1.58-4.65-3.18-9.31c-.6-1.72-1.84-3.57-.49-5.16,1.57-1.85,2.12-4.75,3.74-6.81s3.42-3.94,5.12-5.91c1-1.15,2-2.32,2.85-3.56.73-1,1.27-2.26,2.07-3.2s1.81-1.36,2.62-2.15,1.65-1.88,2.45-2.8c2.1-2.44,4.1-5,6.34-7.33,1.85-1.9,4-3.6,5.86-5.48,4.12-4.06,8.49-7.86,12.76-11.76s8.41-7.48,12.45-11.37c3.8-3.65,8.36-6.61,12.62-9.67,4.67-3.35,9.14-6.88,14.17-9.71,4.8-2.7,9.64-3.51,15-4.31a20.48,20.48,0,0,1-1.61,3.08,52.8,52.8,0,0,1-3.58,3.91c-2.38,2.6-4.79,5.19-7.2,7.76-4.71,5-9.63,9.81-14.19,15-3.64,4.09-6.47,8.27-8,13.59-.79,2.8-1.19,5.81.51,8.39,1.31,2,3.45,1.82,5.6,1.62,5.56-.49,11.08-2.39,16.58-3.37,6.12-1.09,12.38-1.36,18.55-2,3.1-.33,6.17-1.18,9.27-1.42,1.39-.1,2.77.18,4.17.07s2.78-.46,4.15-.71a25.59,25.59,0,0,1,8.41-.45,39.52,39.52,0,0,0,8.56-.16c6.12-.5,12.4.16,18.48.82a132.48,132.48,0,0,1,17.3,2.72c-6,1.52-11.91,3.07-17.9,4.46s-12.44,2.36-18.45,4.18c-2.61.79-5.3.9-8,1.46ZM433.87,330.8c.66-2.37,1.32-4.92,2.15-7.29a4.82,4.82,0,0,1,.79-1.37,13.2,13.2,0,0,0-1.34,3.12c-.55,1.84-1.06,3.69-1.6,5.54Zm-1.3,2.43a7.29,7.29,0,0,1,.45-.88,7.29,7.29,0,0,0-.45.88Zm-.48,1.17c.1-.29.22-.58.34-.86-.12.28-.24.57-.34.86Zm1.65-3.15c-.22.29-.42.6-.61.91.19-.31.39-.62.61-.91Zm364.85-22.12c-2.38,1.51-4.69,2.47-6.64,4.57-4.39,4.72-9.11,9.2-13.34,14.07-1.7,2-2.55,4.38-4.45,6.2a60.22,60.22,0,0,1-7.22,5.39c-5.42,3.79-10.79,7.88-16.5,11.2-1.29.75-2.58,1.52-3.91,2.19a13.85,13.85,0,0,0-2.72,1.29c-.73.59-1,1.47-1.81,2-.59.42-1.29.77-1.9,1.16Q732.59,362,725,366.6c-5,3-9.92,6-14.78,9.21-2.58,1.68-5,3.57-7.62,5.23-2.11,1.36-4.32,2.56-6.39,4a53.59,53.59,0,0,1-6.65,4.21c-2.33,1.14-4.75,2.08-7.06,3.24-1.37.68-2.6,1.51-3.9,2.3a10.55,10.55,0,0,1-2.49.75c-2.7.93-5.11,2.53-7.86,3.38-11.43,3.54-22.48-1.51-32.44-6.88-5-2.71-9.59-6.18-14.39-9.23-2.11-1.33-4.73-2.3-6.65-3.87-1-.79-1.34-1.62-2.48-2.24a20.67,20.67,0,0,1-2.88-1.84,131.77,131.77,0,0,1-12.89-11.3c-2.22-2.25-4.44-4.5-6.61-6.79-1.69-1.8-3-4-4.58-5.92-3.77-4.64-7.43-9.34-11.06-14.09-1.76-2.3-3.51-4.62-5.28-6.92-1.18-1.53-3-3.05-3.36-5s.69-3.58,1.58-5.08a42.76,42.76,0,0,0,3.48-7C572,309,574,301.81,570,299.13c-1.51,2.49-3.41,4.71-5,7.13s-2.33,5.51-4.29,7.68-4.8,3.93-7,6.14-4.12,4.6-6.2,6.87-4.5,4.64-6.79,6.91a65.29,65.29,0,0,1-7.06,5.66,85.92,85.92,0,0,1-7.89,5.2,22.45,22.45,0,0,1-3.69,2,31.49,31.49,0,0,0-3.92,1.48c-5.39,2.8-10.84,5.47-16.32,8.1a25.93,25.93,0,0,1-4.6,2.07c-.6.15-.95,0-1.62.23s-1.4.62-2.08.92c-2.81,1.24-5.68,2.2-8.59,3.17-6.06,2-12.22,3.89-18.21,6.1-5.61,2.08-11.07,4.33-16.85,5.93s-11.71,1.85-17.58,2.43a27.84,27.84,0,0,0-4.94.43,8.37,8.37,0,0,1-3.59.57,32.55,32.55,0,0,0-7.67.68c4-7.78,6-16.66,8.88-24.91.76-2.18,1.68-4.21,2.3-6.43a27.89,27.89,0,0,1,2.37-5.7c1.2-2.21,1.56-4.76,2.37-7.13-.63,1.86-1,3.84-1.56,5.71.83-1.57,1.71-3.11,2.49-4.7a8.42,8.42,0,0,0,.82-4.43c2.13.24,2.21-1.94,2.54-3.5.5-2.37,1-4.74,1.53-7.1a11.41,11.41,0,0,0,.31-2,18.34,18.34,0,0,1,.67-2.06c1.85-5.26,3.89-10.42,5.24-15.84,1.48-6,2.79-12,4.12-18a80.49,80.49,0,0,0,2-9.7c.15-1.56.95-6.6-1.27-7.3-1.71-.55-3.54,4.66-4,5.81-1.09,2.79-2.11,5.59-3.14,8.4-.93,2.51-1.64,5-2.67,7.52s-1.41,5.1-2.33,7.64c-.54,1.49-1.41,2.59-2,4-.44,1-.6,2.17-1,3.24-.73,2.21-1.88,4.37-2.71,6.57-1.07,2.81-2.38,5.52-3.55,8.29-1.07,2.53-1.68,5.2-2.69,7.74s-2.46,4.61-3.42,7.07c-1.06,2.7-2,5.44-3.06,8.15-2.15,5.59-4.34,11.13-6,16.88-.43,1.44-1.15,2.85-1.5,4.13a33.08,33.08,0,0,1-1.34,3.24A37,37,0,0,0,407.9,371h0l.13-.71c-.86,0-1.79.23-2.39-.54s-.49-2.58-.62-3.64c-1,.14-.62.59-.51,1.51.06.47.11.95.17,1.42l.43,3.54c.32-.19,1-1.29,1.28-1.32s.88,1.1,1.08,1.67a4.27,4.27,0,0,1-.27.63,10.47,10.47,0,0,0-.73,1.46,22.72,22.72,0,0,1-1.21,3.15,7.54,7.54,0,0,1-.92,1.38c-.27.32-1.15.84-1.3,1.17-.37.84.19,2.92.14,3.89a10.12,10.12,0,0,1-.82,3.76c-.23.48-.65.78-.87,1.19a3.57,3.57,0,0,0-.39,1.66,30.83,30.83,0,0,1-2.23,7.79c-1.06,2.84-1.88,5.76-2.84,8.64-.9,2.72-2.06,5.34-3,8-1.11,3.14-2.11,6.33-3.15,9.49-.78,2.38-2,4.48-2.82,6.81s-2.07,4.54-2.48,7c-.47,2.75-1.91,5.49-3,8.07-.87,2.14-2.67,4.43-3,6.71a18.51,18.51,0,0,1-.26,3.15c-.31.92-.89,1.71-1.28,2.6-.54,1.22-.14,2.35-.51,3.59a11.16,11.16,0,0,1-1.65,2.78c-1,1.63-.69,3.53-1.76,5.23-1.51,2.41-2.05,5.1-2.86,7.83-.4,1.34-.69,2.73-1.05,4.08a9.89,9.89,0,0,1-.5,2.1c-.36.63-1,.39-1.28.74a6.75,6.75,0,0,0-.44,1.73,34.33,34.33,0,0,1-1.43,3.72c-1.1,2.62-2.38,5.17-3.34,7.85s-2,5.61-3,8.41c-.47,1.34-.94,2.67-1.46,4a7.82,7.82,0,0,1-1.88,2.69c-.84,1-1.19,2.34-2,3.37a7.64,7.64,0,0,0-1.55,2.89,46.55,46.55,0,0,1-2,6.71c-2.4,5.48-5.38,10.7-7.78,16.18-2.52,5.76-4.91,11.57-7.09,17.45-2,5.53-3.36,11.26-5.45,16.77s-3.85,11-5.89,16.45c-2.12,5.68-4.25,11.35-6.15,17.1a58.68,58.68,0,0,0-1.59,6.23c.14-.94.27-1.86.43-2.73-2,3.38-3.88,7.06-3,11.11a10.93,10.93,0,0,0,1.31-2.6,8.29,8.29,0,0,1-.47,1.38,20.84,20.84,0,0,0-1.48,3.45c-.85,3-1.72,5.9-2.55,8.85-.41,1.43-.79,2.86-1.26,4.27-.42,1.24-1.34,2.32-1.72,3.54s-.29,3-.62,4.45a13.16,13.16,0,0,1-1.36,3.58,24,24,0,0,0-1.6,2.54c-.48,1.13-.19,2.24-.32,3.43-.17,1.47-.7,2.88-.9,4.34s.47,2.29.72,3.64-.27,2.35-.69,3.64c-.36,1.09-.57,2.26-.83,3.38-.11.48-.18,2-.53,2.31a7.56,7.56,0,0,1-2,.33,24.2,24.2,0,0,1-4.06.49,81.63,81.63,0,0,1-8.7-.72,85.74,85.74,0,0,1-17.17-3.33A98.85,98.85,0,0,1,254.1,666,67.91,67.91,0,0,1,240.68,656c-2.23-2-4.36-4.17-6.49-6.31-1-1-2-2.06-3.08-3.08-.83-.81-1.9-1.58-2-2.83-.1-1.41.92-3,1.42-4.31s.88-2.28,1.31-3.42c1.06-2.79,2.1-5.59,3.14-8.39q3.23-8.7,6.44-17.39c2.17-5.83,4.4-11.53,7-17.17,2.51-5.4,4.79-10.85,6.88-16.43,2-5.26,4.31-10.34,6.54-15.5,1.2-2.77,2.33-5.57,3.25-8.44a42.58,42.58,0,0,1,2.51-6.94,24.91,24.91,0,0,0,1.82-4.45,9.55,9.55,0,0,1,1.5-3.64,24.86,24.86,0,0,0,3.86-7.76,126.1,126.1,0,0,1,6.64-16.14c2.65-5.22,5.58-10.23,8-15.57s5.73-10.2,8-15.66c4.68-11.25,11.15-21.62,15.9-32.84,4.67-11.06,10.24-21.68,15-32.69,2.5-5.75,4.91-11.54,7.18-17.39,1.09-2.79,2.16-5.58,3.29-8.36,1-2.5,2.76-4.42,3.49-7a34.8,34.8,0,0,1,3.17-7.07c1.29-2.46,2-5.42,3-8,2.23-5.66,4.57-11.29,7-16.89,2.46-5.76,5.08-11.44,7.63-17.16,1-2.16,1.51-4.48,2.5-6.63.49-1.07,1.5-2,1.94-3,.2-.47.15-1.13.32-1.64a17.74,17.74,0,0,1,1-2c2.56-5.24,5.39-10.27,7.73-15.62s4.82-10.94,6.92-16.53,4.7-10.73,6.48-16.37c.85-2.68,1.7-5.39,2.34-8.13.57-2.39,1.64-5.92,1.1-8.38-.34-1.52-2.09-4.6-3.87-3.2s-2.63,3.83-3.53,5.63c-1.34,2.72-2.77,5.4-3.92,8.21a43.38,43.38,0,0,1-3,6.48c-3.07,5-5.51,10.22-8.27,15.39a17.75,17.75,0,0,1-2.21,3.14c-.83,1-.6,1.44-.93,2.68-.61,2.21-2.44,4-3.38,6.08a75.87,75.87,0,0,1-3.86,8c-1.33,2.27-2.56,4.57-3.66,7-2.53,5.47-4.95,11-7.39,16.47-1.3,2.92-2.56,5.86-4,8.71-.62,1.26-1.23,2.53-1.91,3.76-.44.8-1.24,1.45-1.61,2.26s0,1.7-.32,2.59-.87,1.47-1.78.86c-2-1.36-2.43-4.26-3.52-6.33-2.57-4.9-5-9.5-6-15a52.51,52.51,0,0,1-.3-9.3c0-2.75,1.65-4.61,3.09-6.89q5.06-8,10.18-16c1.51-2.33,2.82-4.78,4.37-7.09s3.48-3.88,5.12-5.94c.91-1.16,1.58-2.42,2.56-3.53a25,25,0,0,0,2.27-3c1.28-2,2.16-4.16,3.56-6.1,3.31-4.57,6.69-9.12,10.18-13.57,1.86-2.37,4.05-3.83,6.35-5.72s4.27-4,6.35-6c4-3.94,7.77-8.05,12.22-11.46s9.26-6.84,14.09-10c2.37-1.54,5.32-2.7,7.23-4.78a11.78,11.78,0,0,1,2.62-2.26c1-.57,2.1-.72,3-1.25,2.67-1.48,5.13-3.93,7.56-5.79l7.25-5.55c1-.78,2.94-1.7,3.68-2.71.42-.56.37-1.35.84-1.94,1.07-1.34,3.18-1.46,4.68-2a51.61,51.61,0,0,1,8.83-2.29,56.78,56.78,0,0,0,7.76-2.55,71.45,71.45,0,0,1,17.29-3.67c-2.65,7.82-5.67,15.53-7.69,23.55-.82,3.25-1,7-2.33,10.1-.49,1.11-1.81,2.16-1.15,3.4a8.73,8.73,0,0,0,2.73,2.5c1.82,1.18,4.06-.13,5.85-.84,3-1.2,5.92-2.75,9.15-3.31s6.16-3.74,9.64-3.69a6,6,0,0,1,3.73,1.62c1.12.93,2.39,1.68,3.47,2.66a27.34,27.34,0,0,0,8.19,5.2c1.05.42,1.94.2,2.91,1,.73.6,1.3,1.46,2.27,1.68a142.75,142.75,0,0,0-12.93,15.27,31.1,31.1,0,0,0-4.37,8.47c-.49,1.48-1,2.61,0,4.05a2.47,2.47,0,0,0,2.33,1.29c2.37-.36,4.47-3.55,5.78-5.3,1.52-2,3.19-3.91,4.77-5.89,3.29-4.11,6.21-8.42,10.31-11.8a35.08,35.08,0,0,1,3.8-3c1.08-.66,1.84-.16,3-.37,3-.52,5.67-2.09,8.34-3.44,2.9-1.46,5.79-2.92,8.71-4.34,1.52-.75,3.77-2.32,5.56-1.57,2,.84,3.14,4,4.24,5.66a10.31,10.31,0,0,0,3.74,3.93c2.84,1.51,8.36,3.33,10.84.44,3.53-4.11,3.17-10.83,2.87-15.87a66.91,66.91,0,0,1-.33-9.28c.2-2.72.52-5.44.79-8.15a99.55,99.55,0,0,1,13.89,13.26c2.21,2.66,4.5,5.24,6.77,7.84a19.15,19.15,0,0,1,3,4,16.24,16.24,0,0,0,2.62,3.54c2.09,2.26,3.51,5.26,5.1,7.89s3.06,5.11,4.55,7.68a129.5,129.5,0,0,1,7.87,15.38c1.16,2.79,2.74,5.33,3.92,8.11s2.33,5.53,3.46,8.31c.65,1.61,1.43,3.23,1.94,4.88.35,1.15,0,2.61.46,3.67s1.38,1.93,1.81,3,.69,2.29,1.13,3.4c2.17,5.45,5.15,10.65,7.58,16,2.52,5.55,5,11.1,8.06,16.4s6.92,10.31,10.61,15.26c1.94,2.59,3.94,5.14,5.79,7.79A14.81,14.81,0,0,0,666,353.4a13,13,0,0,0,2.89,1.5c.54-1.44,1.28-2.39,1-4a25.15,25.15,0,0,0-1.12-4c-.82-2.51-2.95-4.76-2.41-7.54.49-2.59,2.62-4.65,4.23-6.61,2.12-2.59,4.26-5.17,6.39-7.75,7.19-8.66,14.82-17,22.25-25.43,3.79-4.3,7.5-8.68,11.42-12.87,1.76-1.88,3.79-3.41,5.66-5.16,1.54-1.44,2.55-3.25,4-4.74,1.08-1.11,2.35-1.92,3.44-3,.89-.91,1.78-1.81,2.66-2.72q2.92-3,5.84-6c3.86-4,7.48-8.28,11.29-12.36,7.35-7.89,15.14-15.45,22.82-23,2.21,6.56,4.05,13.38,5.64,20.12a41.64,41.64,0,0,0,1.14,5c.58,1.57,1.33,3.07,1.94,4.63,1.35,3.46,2.38,7.15,4.06,10.45,3.19,6.26,6,13.52,10.6,18.91,2.28,2.68,5.42,5,8.08,7.28l8.62,7.45c-2.59,1.94-5.15,3.9-7.88,5.64ZM560.83,350.72a2.43,2.43,0,0,0-.73-1.05,1.71,1.71,0,0,1,.6.75,23.3,23.3,0,0,1,1.15,3.05c-.32-.92-.64-1.85-1-2.75Zm-69.39,49.63c2,2.22,4.08,4.34,6.09,6.54,1.85,2,3.34,4.25,5,6.43,3.58,4.69,7.34,9.25,11.23,13.7,3.74,4.28,7.78,8.31,11.36,12.74a89.15,89.15,0,0,1,9,14.16,38.78,38.78,0,0,0,4.33,6.56,13.25,13.25,0,0,1,2.33,2.91,24,24,0,0,1,1,4.11c2.79,11.89,5.64,23.77,8.33,35.69,1.3,5.78,2.17,11.63,3.43,17.41s3.18,11.55,4.38,17.42c2.44,11.9,4.11,24,6.73,35.82,2.55,11.54,7,22.52,9.39,34.11.34,1.63.83,3.12.45,4.77a19,19,0,0,0-.58,4,10.68,10.68,0,0,1-1.69,6.45,27.85,27.85,0,0,1-11.2,9.73c-2.42,1.1-4.72,2.59-7.34,3.2-1.26.3-2.48.1-3.73.29s-2.31,1.07-3.47,1.55c-4.66,1.91-10.6,1.34-15.54,1.34-5.45,0-10.92-.36-15.95-2.64-.41-.19-.81-.38-1.22-.59-.68-.1-.79-.41-.35-.91,0-.56.31-1.19.33-1.77a12,12,0,0,0-.62-3.61c-.74-2.81-1.44-5.64-2.08-8.47-2.66-11.75-3.93-23.68-5.57-35.6-.84-6.15-2.07-12.24-3.13-18.35-1-5.87-1.62-11.77-2.39-17.67s-1.58-11.75-2.38-17.63c-.43-3.22-1.36-6.38-1.77-9.58-.31-2.43.33-4.72-.22-7.15-1.29-5.73-1.35-11.67-2.81-17.36-1.5-5.86-3.67-11.62-5.7-17.32-1-2.95-2.09-5.91-3.14-8.86-.61-1.75-1.32-3.62-3.12-4.46-1-.46-2-.41-2.87-1.1a34,34,0,0,1-3-3c-2.11-2.12-4.2-4.25-6.31-6.36-8.21-8.22-16.18-16.83-25.25-24.1-4.21-3.38-8.12-7.19-12.79-9.94-5-2.95-9.94-6-14.94-9a56.15,56.15,0,0,0-7.67-3.76c-2.35-.94-.91-3.18-.23-5,1.05-2.82,2-5.67,2.83-8.54.67-2.17,1-5,3.25-6.16,1.45-.77,2.09.12,3.48.56a8.77,8.77,0,0,0,3.06.31c2.32-.1,5-1.14,7.29-.78a9.6,9.6,0,0,0,3.85,0c1.39-.25,2.84-.25,4.24-.36a78.34,78.34,0,0,0,7.81-.67,107.72,107.72,0,0,0,16.62-4.15c5.74-2,11.22-4.81,16.72-7.38a34.43,34.43,0,0,0,1.67,7.51c.75,1.92,2,4.49,3.82,5.5,4,2.23,6.11,6.07,9.09,9.4Zm83.95,241.46c1.75-.95,2.08.38,3.11,1.81q4.25,5.86,8.53,11.69l8.34,11.34c2.61,3.55,5.49,6.93,7.88,10.63a95.12,95.12,0,0,1,6.3,12.05c1.61,3.48,3.94,7.11,2.25,11-1.56,3.6-6,5.12-9.25,6.84-4.1,2.17-7.32,3.7-11.95,2.05a228.85,228.85,0,0,1-25.79-11.41c-7.65-3.85-13.44-9.53-19.78-15.12-3.33-2.93-6.78-5.63-9.9-8.8s-6.32-6.76-9.58-10c-5.08-5.11-10.4-9.63-9.52-17.54,4.84,1.62,9.6,3.66,14.63,4.63a66.49,66.49,0,0,0,16.1,1.37,46.51,46.51,0,0,0,6.73-1.2c2.22-.45,4.47,0,6.56-1.08,1.84-1,3-2.1,5.09-2.6a16.1,16.1,0,0,0,5.77-2.48,53,53,0,0,1,4.48-3.14ZM422.63,431.93l.14.05-.14-.05ZM417,428.74l.16.11-.16-.11ZM313.23,708.12c2.3,4.07,4.53,8.2,6.7,12.34,1.08,2.07,2.11,4.16,3.12,6.25.94,1.94,1.78,3.43,1.9,5.57-4.53-.51-9.12-3.19-13-5.56a67.36,67.36,0,0,1-10.89-8.82c-3.35-3.17-6.76-6.31-10.34-9.21a45,45,0,0,0-5.21-3.58A7.15,7.15,0,0,1,284,704c-.56-.58-.76-1.59-1.43-2-1.38-.89-3.53.44-4.77,1a20.55,20.55,0,0,0-4.58,3,45,45,0,0,0-4,4.72c-1.26,1.48-2.55,2.89-3.69,4.47a64.26,64.26,0,0,1-8.69,10.35c-1.5,1.35-3.39,2.43-4.68,4a30,30,0,0,1-4,4,75.7,75.7,0,0,0-8.9,8.55c-3.09,3.49-6.61,6.62-9.95,9.88-.51-2.06.41-3.79,1.32-5.56,1.06-2.08,1.8-4.32,2.69-6.47q2.88-7,6.44-13.74c2.22-4.17,4.49-8.3,6.63-12.5,1.78-3.48,4.54-7.79,3.68-11.86-.33-1.59-1.19-4-2.91-4.51s-3.42,1-4.8,1.78a100.09,100.09,0,0,1-12.55,6.08c-4.31,1.8-8.66,3.55-12.81,5.7s-7.83,4.59-11.86,6.67c-2,1-4.1,1.79-6.07,2.87s-3.73,2.17-5.62,3.23a34,34,0,0,1-11.85,4.14c3-3.9,7-6.76,10.86-9.76,4.49-3.5,9-7,13.6-10.33,4.18-3,8.42-5.83,12.51-8.92,1.91-1.45,3.79-2.93,5.62-4.48,1.53-1.3,3.18-2.61,3.55-4.71a5.36,5.36,0,0,0-2.13-5.16c-1.6-1.09-3.64-.84-5.43-.59a109,109,0,0,0-14.86,3.68c-1.12.33-2.27.86-3.4,1.12a20.89,20.89,0,0,1-3.63.22c-2.18.11-4.36.22-6.52.5s-4.58.21-6.83.57c-2,.32-3.47,1.43-5.56,1.38-9.3-.22-17.93,5-27.13,5q8.22-4.83,16.5-9.59c2.52-1.45,5.15-2.75,7.6-4.34,2.7-1.77,5.18-3.78,8-5.43,10-5.91,21.1-10.23,30.2-17.51,2.21-1.76,4.32-3.66,6.45-5.52a9.74,9.74,0,0,1,1.69-1.47c.92-.43.62-.55,1.43.27a24.65,24.65,0,0,1,2.22,3,47.43,47.43,0,0,0,10.48,10.59c4.68,3.44,10.06,5.52,15.3,7.94a155.87,155.87,0,0,0,16,6.86,88.53,88.53,0,0,0,17.31,3.48,73,73,0,0,0,18-.45c.35,4.6.82,8.5,3,12.67,2,3.93,4.65,7.58,6.82,11.45Zm23.18-350.5a9.79,9.79,0,0,1,1.45.29c-.37-.1-.84-.1-1.12-.18l-.33-.11Zm1.65,2.65a5.7,5.7,0,0,0,.49-1.38,4,4,0,0,1-.49,1.38Zm-52.67,77.86c-6.86,4.08-13,9.21-19.65,13.62a104.89,104.89,0,0,1-10.33,6c-1.71.87-3.43,1.74-5.22,2.45-1.55.62-3,1.61-4.62,2.08a12.8,12.8,0,0,1-5.23,0c-1.52-.18-3-.08-4.23-1.08-2.25-1.81-3.71-5.42-5.05-7.88-1.91-3.52-4.15-7.19-5.51-11-1.28-3.51-3-6.71-3.63-10.39a5.94,5.94,0,0,0,.09-6c-.46-.92-1-1.76-1.58-2.63s-.59-1.21-1.68-1.23l3.15,9.79c-1-3.21-2.44-6.49-3.15-9.79-.62-2.87-.86-5.66-1.89-8.46-.52-1.43-1.35-2.76-1.76-4.22a25.54,25.54,0,0,1-.49-3.69c-.44-3.43-1.32-6.82-1.86-10.24-1-6.52-1.7-13.12-2.94-19.6-1.29-6.68-2.94-13.31-4.4-19.95-.56-2.53-1.55-4.7.92-6.43s5-3,7.51-4.47a65.9,65.9,0,0,1,7.26-3.8,38.73,38.73,0,0,0,6.16-3c1.21-.8,2.46-.79,3.83-1.24s2.81-1,4.21-1.48l7.71-2.74c1.41-.51,4.3-2.35,5.61-.95.69.72.77,2.23,1,3.13.31,1.48.61,3,.91,4.46,1.12,5.77,2.21,11.56,3.1,17.37s1.38,11.46,2.27,17.16c.21,1.4.92,3.12.78,4.53-.1,1-.82,1.58-1.53,2.25a68.29,68.29,0,0,0-5.09,5.4c-1.77,2.1-3.47,4.27-5.38,6.24a30,30,0,0,0-4.83,6c-1.12,2-2.63,3.82-2.11,6.17.41,1.83.94,3.65,3.12,2.9,2.51-.87,4.69-3.34,6.65-5.05s3.84-3.39,5.8-5c2.18-1.81,4.61-3.34,6.71-5.22,1.82-1.64,3.38-3.55,5.11-5.28,4.16-4.15,8.63-7.88,13-11.74a79,79,0,0,0,5.51-5.91c1.82-1.94,3.8-3.72,5.71-5.56,4.14-4,8.46-8,12.32-12.29,1.85-2.05,3.84-4,5.7-6,.77-.84,1.34-1.94,2.07-2.74s1.79-1.27,2.59-2c3.46-3.16,5.39-7.56,8.81-10.78a54.79,54.79,0,0,1,2.21,6.1c.62,1.92,1.08,4.16,2.16,5.88.5.8,1.36,1.38,1.79,2.21a17.39,17.39,0,0,1,.6,2.59,30.69,30.69,0,0,0,2.59,4.78,27.74,27.74,0,0,0,3.63,4.53,8.45,8.45,0,0,0,1,1l-.45-.25a10.32,10.32,0,0,0,3.63,3.71c-.05.1-.09.2-.14.29-.86,1.88-1.84,3.61-2.52,5.57-1.18,3.39-2.9,6.56-4,10a37.24,37.24,0,0,1-1.7,5.47c-.76,1.53-1.76,2.93-2.51,4.47-1.75,3.6-2.89,7.56-4.27,11.31s-3.07,7.63-4.83,11.36-3.38,7.48-4.93,11.27a23.36,23.36,0,0,1-2.35,5.13c-1.19,1.63-2.9,2.05-4.71,2.69-7.16,2.56-14.14,6.41-20.67,10.29Zm-85.82-110c-4.06-3.43-9.72-2.46-14.69-2.48-5.79,0-11.55,1.11-17.31,1.5s-11.56.66-17.33.54A84.1,84.1,0,0,1,134.9,326a62.76,62.76,0,0,0-7.48-1,4.42,4.42,0,0,1-3.86-2.11c-1-2-.78-5-.85-7.12s-.38-4.82.46-6.82,2.68-2.94,4.57-3.66l7-2.66c9.4-3.6,19.07-7.72,29.19-8.59,2.82-.24,5.64-.26,8.46-.35,2.42-.07,4.66-.66,7-.91,5-.52,9.88-.63,14.81-1.68,1.35-.28,2.2.44,3.58.66a14,14,0,0,0,3.24.06,41.6,41.6,0,0,1,6.6-.25c2.63.23,5.27.37,7.88.77,2.34.37,4.61,1,7,1.27a73,73,0,0,1,7.65,1c1.27.29,3.2.56,3.95,1.78,1,1.62.25,4.72.15,6.5-.14,2.52-.29,5-.27,7.55a43.82,43.82,0,0,0,1,8.06c.38,1.92,1.19,4.19.76,6.18a1.74,1.74,0,0,1-2.17,1.43c-.79-.12-1.43-.89-2.16-1-1.41-.18,0,.87-.85,1.77-.64.73-1.71.52-2.58.76a21.13,21.13,0,0,0-2.65,1.1c-2,.87-4,1.48-6,2.44-4.34,2.14-8.46,4.68-12.6,7.19-.69-2.06-1.18-5.18-2.57-6.88-1.2-1.46-3.13-2.19-4.56-3.4ZM484.11,198c.93-2.62,2.15-5.19,2.93-7.86.28-1,.28-2.32,1.26-2.86.81-.44,2.28-.16,3.14-.16,1.58,0,3.16,0,4.73,0,.79,0,1.94-.18,2.4.65s-.29,2.42-.3,3.37a15.34,15.34,0,0,0,.68,4.25c1.56,5.9,3.18,11.74,5,17.59-1.79-.81-3.18-2.72-5.22-2.94-1.29-.14-2.29.64-3.48.83-1,.17-2,.23-3,.46-4.54,1.06-8.67,3.42-13.29,4.25a26.61,26.61,0,0,1,.8-4.87c.46-1.43,1-2.83,1.44-4.25,1-2.82,2-5.63,3-8.45Zm15-39.63c2.18-1,4.37-3.77,2.32-6.08-1.1-1.25-3.89-.59-5.33-.3-2,.42-9.79,5.48-10.74,2-.63-2.26.49-5.67,1.52-7.65a12.63,12.63,0,0,1,2.57-3.45c1.12-1,1.58-.72,3-.57,2.28.26,4.39-.45,5.89,1.77.29.43.35,1,1,1.11s.75-.51,1.22-.51c.77,0,.86.53,1.16,1.12.78,1.55,1.93,4.61,4.26,3.34s2.5-5.45,2.5-7.7c0-3.48.24-7,.43-10.43.15-2.75.39-5.26,2.4-7.34s3.35-4.67,5.65-6.17c2.6-1.69,6-1.5,9-1.73a59.29,59.29,0,0,1,10.4-.29,69.6,69.6,0,0,0,10.41.37c3.46-.16,6.92-.37,10.38-.46,3.29-.08,6.73.19,10-.16,1.32-.14,3.09-.63,4,.69,1,1.49.92,4.19,1.2,5.9-3.59-.66-9.43-2.31-10.8,2.75-.42,1.53.87,2.9,2,3.79,1.65,1.3,4,1.26,6,1.54,1.11.16,2.92.13,3.57,1.25s.3,3.09.38,4.27c.3,4.93,1,9.81,1.52,14.72a57,57,0,0,1,.15,14.18c-.37,2.4-1.35,4.66-1.52,7.08-.11,1.5.12,3.2-1.25,4.19-1.59,1.15-4.32,1.16-6.18,1.57-2.46.54-4.9,1.19-7.32,1.89-3.83,1.11-8.51,1.66-9.89,5.95-1.48,4.58-2.57,9.3-4,13.9a53.74,53.74,0,0,1-2.77,6.66,6.18,6.18,0,0,0-.94,2.83,10.62,10.62,0,0,0,1.21,3,11.13,11.13,0,0,0,2.54-1.38,17.24,17.24,0,0,0,2-2.53c1.3-1.74,2.23-3.24,4.1-4.37a4.1,4.1,0,0,1-.15,2.49,15.77,15.77,0,0,1-1.45,1.64c-1.15,1.44-2.26,2.92-3.51,4.29-2.48,2.71-5.49,4.95-8.08,7.58s-5,5.74-8.2,7.71-6.31,3.48-9.48,5.17c2.79-6.33.86-12.7-2.46-18.39-1.54-2.65-3.42-5.08-5.15-7.6-1.38-2-4-4.68-4-7.24,0-1.36,1-2.54,1.64-3.67a42.8,42.8,0,0,0,1.93-3.9c1.23-2.67,2.84-5.5,3.28-8.44.38-2.57-.2-6.14-1.94-8.2-.7-.83-1.73-.75-2.64-1.31a13.59,13.59,0,0,1-2.3-2.12c-.83-.83-1.85-1.41-2.68-2.24a15.42,15.42,0,0,1-2.14-3c-1.51-2.51-3.05-5-4.57-7.49Zm9.58-55.64c2.62.05,4,1.53,5.23,3.64-.82,1.28-3,5.15-4.81,3.61-.34-.29-.49-.91-.9-1.24a5.23,5.23,0,0,0-1.31-.67,6,6,0,0,1-2.77-1.83c-1.51-2.27,3-3.53,4.56-3.51Zm51.18,98.19c.47-.13,1.92.82,2.38,1a13.73,13.73,0,0,1,2.66,1.32,8.07,8.07,0,0,1,1.55,2.18c.15,5.7.51,11.44.47,17.15l-.48-17.16a22.28,22.28,0,0,0-.91,4.64c0,1.64.25,3.33.41,5,.29,3.11.63,6.22.95,9.32,0,1.79-.12,3.58-.28,5.36-2.27-3.16-4.5-6.36-6.78-9.52-2-2.82-4.7-3-7.91-3.24q3.15-6.37,6.31-12.74c.24-.49,1.21-3.18,1.63-3.29Zm371.46,9.65c3.4-.93,6.86-2.24,10.36-2.7,3.31-.44,6.25-1.88,9.45-2.81,2.81-.83,5.66-1.53,8.44-2.5,2.1-.73,4.38-1.45,6-3a7.7,7.7,0,0,0,2.33-6.48c-.38-2.75-2.4-3.08-4.71-3.87a183.23,183.23,0,0,0-36-8c-6.32-.82-12.71-1.83-19.1-1.7-3.31.07-6.58.25-9.89,0-3-.2-6,.93-9,.34s-5.82.21-8.85.62c-3.23.44-6.49.57-9.74.72-3,.13-6.09,0-9,.79s-5,1.29-7.85.36q4.5-5,9-9.95c6.18-6.78,12.59-14.08,16.33-22.56,1.6-3.64,2.38-8.88-.29-12.26-2.38-3-7.57-2.39-10.88-1.9a32,32,0,0,0-12,4.39c-3.53,2.17-7.43,3.93-10.64,6.54s-6.79,4.26-10,6.77-6.61,5.1-9.94,7.64c-7.19,5.47-13.16,12.43-20,18.35a124.52,124.52,0,0,0-10.22,10.07,54.54,54.54,0,0,0-4.43,5.18c-1.1,1.56-2,3.22-3.21,4.73-1.38,1.82-3.12,3.33-4.58,5.09s-2.58,3.32-3.76,5.05-2.46,3.68-3.7,5.51c-.65,1-1.27,2.59-2.58,2.42-1.86-.23-2.88-1.82-4.89-.73a9.53,9.53,0,0,0-1.67,1.5,11.3,11.3,0,0,1-2.63,1.46,37.65,37.65,0,0,0-5.18,3.59,64.89,64.89,0,0,0-5.29,3.9c-7,6.31-13.42,13.06-20.13,19.63-1.62,1.59-3.32,3.09-4.9,4.73-1.25,1.3-2.23,2.84-3.5,4.12a25.48,25.48,0,0,1-2.37,1.68,19.84,19.84,0,0,0-1.93,2.26c-1.47,1.69-2.93,3.39-4.44,5.05-3,3.25-6.24,6.08-9.09,9.45s-6.2,6.6-9.17,10c-6.26,7.16-12.15,14.47-17.9,22-2.86,3.76-6.07,7.24-8.8,11.09a83.86,83.86,0,0,0-6.73,11.61c-.55,1.14-1.26,4.53-3.29,3.33-.72-.43-1.21-1.69-1.66-2.39l-1.82-2.86a116.67,116.67,0,0,1-7.51-12.77c-4-8.59-8-17.11-11.25-26-1.66-4.5-3.55-8.88-5.45-13.29s-3.29-8.9-5.12-13.28c-3.63-8.72-8.41-17-13.16-25.11-4.36-7.47-9-15.17-15.09-21.39-3.2-3.28-5.72-7.06-9.11-10.21-1.71-1.59-3.48-3.13-5.2-4.73-1.24-1.15-2.29-2.87-3.82-3.65a6.6,6.6,0,0,0-3.41-.38c-.91,0-1.92-.23-2.79-.15s-1.11.76-1.87.91a2.29,2.29,0,0,1-1.9-.63c-3.87-2.66-9.16-3.82-13.57-5.42,2.79-1.73,6.22-1.79,9.34-2.52a19.43,19.43,0,0,0,7.27-3.34c4.77-3.6,5.57-9.3,6.44-14.88,1-6.41,1.76-13.24.91-19.69s-1.72-12.67-2.67-19a60.68,60.68,0,0,0-2-9c-.74-2.42-1.7-4.91-1.61-7.48,0-1.27.08-3.23,1-4.15.71-.67,1.75-1,2.5-1.69A19.09,19.09,0,0,0,584,103.5c.89-1.7,2.32-4.19,1.47-6.15-.92-2.13-3.84-2.52-5.81-3-5.81-1.51-11.68-1.26-17.58-2.09-2.84-.4-5.8-1.23-8.65-1.2s-5.61.08-8.42,0a160.66,160.66,0,0,0-18.36.38c-1.62.17-3.21.3-4.83.39-1.31.07-2.25.74-3.45,1a12,12,0,0,1-2.51-.33,14.12,14.12,0,0,0-3.73.18c-2.6.48-4.61,2.14-7.18,2.65a6.6,6.6,0,0,0-4.56,3.27c-2.59,4.5-2.73,10.7-3,15.73-.27,6,.18,12-.14,17.9-.07,1.45-.23,2-1.75,1.88-2.14-.21-4-.79-6.17-.22-4.12,1.09-6.7,4.84-8.3,8.54a27.27,27.27,0,0,0-2.31,12.5c.25,3.73,1.63,8.55,5.74,9.63,2.2.58,4.41-.34,6.5-1s3.74-2.38,4.8.09c2.15,5,4.32,9.55,7.76,13.86-3.23-.22-6.45-.53-9.68-.69-2.12-.11-5.13-.7-7.16.13-1.2.48-1.25,1.32-2.1,2.07s-2.76.47-3.93.43c-3.48-.11-6.68-.74-10.2-.37-2.6.26-4.94,1.55-7.52,2a51.65,51.65,0,0,0-9.21,3c-2.79,1.11-5.52,2.3-8.38,3.2a70.48,70.48,0,0,0-8.63,3.13c-5,2.28-9.17,6-13.61,9.09-1.17.82-2.44,1.53-3.53,2.46-.89.76-1.48,1.76-2.35,2.55-1.37,1.26-3,1.2-4.48,1.86a32.77,32.77,0,0,0-4.39,3q-1.87,1.29-3.76,2.57a66.82,66.82,0,0,1-7.32,4.86c-4.78,2.42-8.53,6.24-12.42,9.89-4.2,3.93-8.83,7.35-12.87,11.44a95.43,95.43,0,0,0-11,13.13c-3.38,4.93-6.23,10.16-9.44,15.19a66.17,66.17,0,0,1-5,6.28,37.07,37.07,0,0,0-2.39,3.31c-.65,1-1.11,2.31-2.09,3.05-1.94,1.49-3.88,2.37-5.45,4.35a75.12,75.12,0,0,0-4.76,7.1c-3,4.84-5.78,9.85-8.44,14.87a9.28,9.28,0,0,0-.91,4.2,36.19,36.19,0,0,1-.75,3.7c-.38,2-.14,4.13-.67,6.12-.34,1.31-1.18,1.49-2.24,2.22a24.07,24.07,0,0,0-2.78,2.36c-1.79,1.71-3.52,3.4-5.47,4.93a49.11,49.11,0,0,0-5.76,4.91,53.52,53.52,0,0,1-5.42,5.44c-4.38,3.55-8.51,7.48-12.81,11.14-4.46,3.81-8.52,8-12.63,12.15s-8.73,8.37-13.16,12.49c-.35-4.89-.64-9.79-1.05-14.67a135.2,135.2,0,0,0-2.67-15.6c-.94-4.62-1.56-9.57-3.14-14-1.07-3.05-3.18-5.56-6.44-6.32-1.63-.37-4.09.4-4.88-1.42s-.86-4.55-1.18-6.49c-1.4-8.57,1.38-18.13-2.2-26.32-1.55-3.56-4.44-5.44-7.87-7-4.5-2-9.47-1.5-14.24-2.49-2.18-.45-4-1.64-6.21-1.75s-4.56,0-6.84.06-4.68-.38-7-.38c-2.06,0-3.68,1.38-5.7,1.06-2.27-.36-4.12-.92-6.41-.26a23.43,23.43,0,0,1-6.07.81c-2.59.08-5.19-.17-7.78,0-2.39.11-4.66.84-7,1.13a99.87,99.87,0,0,0-14.68,2.52c-4.83,1.33-9.42,3.25-14.1,5-7.52,2.79-16.14,4.92-18.21,13.78a44.39,44.39,0,0,0-.76,15.2c.5,4,1.42,8.52,3.8,11.92,2.54,3.64,6.76,4.74,10.79,6,4.63,1.44,9.37,1.66,14.11,2.51a71.73,71.73,0,0,0,14.83,1.47c5-.13,9.83-1.43,14.79-1.85s10.16-1,15.26-1.47c3.42-.3,10-1.27,11.68,2.61.54,1.23,1.32,2.7.33,3.8a51,51,0,0,0-3.3,4.1,14.7,14.7,0,0,0-3,6.3,45,45,0,0,0-.52,7.24c-.14,10,2.43,20.09,4.86,29.74a308.71,308.71,0,0,0,8.88,29.79c3.37,9.28,5.87,18.95,9.86,28a82.52,82.52,0,0,0,7.37,12.67c2.32,3.46,4.44,7.63,7.85,10.14A15.23,15.23,0,0,0,244,473.7c4.24-.34,8.28-2.92,12-4.8,9-4.53,17.23-10.65,25.26-16.65,3.85-2.88,7.35-6.18,11.45-8.72a50.65,50.65,0,0,1,12.57-6c-3.77,7.93-7.19,16-11.19,23.81s-7.21,15.73-10.77,23.62c-1.46,3.25-3.61,6.06-5,9.3q-2.48,5.56-4.94,11.13c-3,6.78-6.21,13.53-8.92,20.43-.62,1.56-.34,3.45-1.14,4.83a31.64,31.64,0,0,0-2.3,4.1c-1.32,3.24-2.36,6.51-3.86,9.69-3.33,7-5.44,14.58-8.62,21.69s-6.06,14.31-8.9,21.58c-1.4,3.56-3,7-4.26,10.65a44.82,44.82,0,0,1-4.29,9.68,150,150,0,0,0-10.86,20.66,29.29,29.29,0,0,0-3.1,10.41c-.21,3.36,1.87,6.08,3.55,8.78-3.06,1.55-5.87,3.55-8.94,5.11-3.29,1.67-6.72,3-10.15,4.36s-6.91,2.79-10.36,4.21c-3,1.25-5.84,2.79-8.79,4.23a91.42,91.42,0,0,0-8,4.76c-2.86,1.75-5.75,3.43-8.6,5.17-5.6,3.43-11,6.86-16.91,9.81-3.06,1.53-6.14,3-9.2,4.56-2.52,1.26-5.28,2.37-7.12,4.59-2.72,3.3-2.48,8.59.1,11.94,1.7,2.21,5.89,2,8.43,2.07a22.67,22.67,0,0,0,5.2-.39c1.41-.29,2.6-1,4-1.39a43.78,43.78,0,0,1,4.89-.52c1.56-.21,3.11-.49,4.66-.81,3.34-.68,6.66-1.5,10-2.21S176.4,702,179.6,701c1.32-.39,2.72-1.14,4.08-1.12a19.69,19.69,0,0,0,4.27-.13c1.53-.27,3-.7,4.56-.9s2.87,0,4.28-.2a39.6,39.6,0,0,0,4.61-1.43,15.1,15.1,0,0,1,4.45-.31c-3.82,3-7.82,5.68-11.72,8.54s-7.6,6.08-11.38,9.15c-3.06,2.49-6.89,4.88-8.78,8.45a15,15,0,0,0-1.18,9.62c.76,4,3.7,4.47,7.28,4.72,4.62.32,8.18-1.63,12.21-3.62,7.9-3.89,15.53-8.39,23-13A119.68,119.68,0,0,1,227,714.84l6.23-3c1.7-.8,3.93-2.41,5.8-2.22-5.16,10.69-10.56,21.28-15.11,32.26a46.52,46.52,0,0,0-3.8,14.36c-.26,3.5-.08,10.44,4.3,11.6,2,.52,3.71-.77,5-2.07C231.29,764,233,762,234.8,760c3.51-3.77,7.16-7.35,11-10.79A144.69,144.69,0,0,0,257,738.45c3.31-3.72,7.45-6.53,10.61-10.38s6.15-8.19,9.41-12.13c2.14-2.6,3.87-6.67,7.55-7.24.55,3.06,3.2,5.79,5,8.29,4.08,5.53,9,10.06,14.1,14.63a50,50,0,0,0,15.37,9.84c3.83,1.48,11.82,4.89,14.83.25,1.42-2.2.67-6.51.14-8.93-.74-3.35-2.37-6.49-3.84-9.57-3-6.28-6.3-12.3-9.66-18.38-1.68-3.05-3.34-6.12-5.16-9.1-1.58-2.58-3.77-5.07-4.55-8.05a8,8,0,0,1-.12-4.12c.42-1.32,1-1.07,2.14-1.24,2.59-.37,1.81-5.14,1.47-7a27.35,27.35,0,0,0-1.52-4.83c-.5-1.33-1.62-3.15-1.56-4.59s1.38-2.75,1.92-4a38.49,38.49,0,0,0,1.47-4.4c2-6.82,4.66-13.4,6.34-20.32a183.17,183.17,0,0,1,5.9-20.29c2.55-6.91,5.32-13.74,7.63-20.73,2.25-6.78,4.46-13.55,6.92-20.26,4.95-13.45,10.22-26.81,16.06-39.9,5.75-12.93,12.29-25.51,17.26-38.77,2.39-6.37,4.76-12.71,7-19.13,2.34-6.67,4.84-13.19,7.54-19.71s5-13.52,7.4-20.33,4.31-13.62,7.17-20.1a12,12,0,0,1,1.95,2.33,13.36,13.36,0,0,0,1.7,2.64,25.81,25.81,0,0,0,4.57,3.62c1,.7,1.82,1.54,3,1.7h.09a3.79,3.79,0,0,0-.64.07l4.35,3c-.12-.28-.24-.56-.38-.82.47.82,1,1.6,2,1.77l-.24,0c.68.51,3.13,2.94,2.91.32.1.42-.06.74.12,1.17a4.62,4.62,0,0,0,.95,1.22,15.08,15.08,0,0,0,2.32,2c1.94,1.39,4,2.56,5.9,4,.54.42,2.39,2.56,3,2.56l3.56,3.1c-.45-1.59-.91-3.17-1.36-4.76l1,3.45a5.09,5.09,0,0,0,2,2.73c1.77,1.58,3.52,3.17,5.35,4.68,3.34,2.73,7.18,4.86,10.76,7.27,1.95,1.31,3.85,2.66,5.71,4.09,1.52,1.18,3.38,1.6,4.89,2.75a47.78,47.78,0,0,1,5.23,5,24.33,24.33,0,0,1,4.25,5c1.16,2.15,1.18,4.95,1.54,7.33l1.08,7.2c.72,4.93,1.4,9.87,2,14.81s1.3,9.73,1.72,14.61.32,9.88.87,14.81a297.16,297.16,0,0,0,4.5,29.72c2.13,9.81,3.5,19.76,5.35,29.64,1,5.07,2,10.14,3,15.21.49,2.49,1,5,1.51,7.47.41,2.06.2,4.13.56,6.21a20,20,0,0,1,.46,3.36c0,1.1-.69,2.07-.73,3.06-.05,1.39,1.22,3.58,2,4.69a56,56,0,0,0,4.14,4.73c1.36,1.54,1.91,2.1,1.43,4.19-2.08,9,3.24,16.47,8.93,22.81a197.26,197.26,0,0,0,19.69,19.74c3.76,3.16,7.3,6.57,10.9,9.92a67.09,67.09,0,0,0,11.2,8.15c4.09,2.48,8.42,4.28,12.66,6.46a101,101,0,0,0,12.67,5.75c4.22,1.49,8.5,2.75,12.55,4.64a13.34,13.34,0,0,0,10.5,0c2.17-.93,4-2.62,6-3.95s3.67-2.42,5.57-3.52c3.15-1.81,6.22-3.93,7.56-7.47,1.6-4.19.22-9.22-.69-13.43a38.76,38.76,0,0,0-5.15-12c-2.4-3.88-5.38-7.24-8.13-10.86S605,662.56,602,658.91a129.14,129.14,0,0,0-9.36-10.34c-3.31-3.27-6.2-6.91-9.26-10.41-.73-.85-1.86-1.75-2-2.95-.12-1,.6-1.79.94-2.71.67-1.78.47-3.73.5-5.59a5.6,5.6,0,0,1,.46-2.65c.42-.77,1.2-1.07,1.5-1.89a17.74,17.74,0,0,0,.31-2.43,19.56,19.56,0,0,1,.95-2.59c.77-2.31-.19-5-.62-7.28s-.8-4.32-1.19-6.47a109.14,109.14,0,0,0-3-13.88c-3-9.19-5.9-18.34-6.09-28.1-.1-4.89-1.47-9.57-2.6-14.3q-1.8-7.52-3.65-15c-2.37-9.59-5.21-19-7.64-28.6s-4.62-19.12-7.49-28.53a191.21,191.21,0,0,0-11.28-27.37,55.15,55.15,0,0,0-7.41-11.67c-3.18-3.8-6.43-7.54-9.69-11.27-6.58-7.53-13.16-15.05-19.83-22.49A92.35,92.35,0,0,0,495,392c-3.45-2.79-8.18-5.15-9.27-9.72-.31-1.28-.52-2.6-.85-3.88a8.33,8.33,0,0,1-.71-2.66c.19-1.6,3.15-2.21,4.35-2.76,4.14-1.87,8.33-3.73,12.39-5.77a62,62,0,0,0,6.33-3.88c1.76-1.15,3.77-1.5,5.75-2.12a72.57,72.57,0,0,0,12.53-5.46c4.2-2.22,8.43-4.44,12.49-6.89s7.33-5.54,10.84-8.78c1.56-1.45,2.67-.73,3.78.87,1.35,1.94,2.77,3.84,4.17,5.74a8.15,8.15,0,0,0,2.13,2.47l.1.06-.52-.19c.34,2.4,2.14,4,3.74,5.69-.15-.4-.29-.82-.44-1.23a9.92,9.92,0,0,0,1.69,2.89,49.1,49.1,0,0,0,4.84,5.36l2.71,2.62,1.08,1.05a4.52,4.52,0,0,0,1.52,1c1.24.56,1.53,1.53,2.6,2.3,1.6,1.16,3.6,1.93,5.26,3.07,1.36.94,2.54,2.83,4.11,3.18.57.13,1,0,1.44.48.61.59,0,.58.93.79.48.11,1-.16,1.45,0a5.25,5.25,0,0,1,1.39.92l2.94,2.14c1.76,1.3,3.51,2.6,5.25,3.92,3.45,2.64,6.63,5.63,10.1,8.25a59.51,59.51,0,0,0,5.64,3.5c1.59,1,2.94,2.26,4.44,3.35,1.78,1.31,3.87,1.95,5.72,3.14s3.57,2.36,5.46,3.41a117.4,117.4,0,0,0,12.71,6.19,42.16,42.16,0,0,0,13.76,3.46c4.88.23,9.5-1,14-2.83a125.27,125.27,0,0,0,13-6c4.1-2.2,7.92-4.84,12-7.17s7.86-4.78,11.71-7.43c3.66-2.52,7.14-5.33,11.08-7.39s7.52-4.77,11.27-7.22,7.69-5.06,11.51-7.62c8-5.35,16-10.79,23.54-16.7A94.88,94.88,0,0,0,775.41,343c3.4-3.57,7.46-6.61,11.19-9.82l10.76-10.44h0L786.6,333.22c1.71-.32,2.82-1.43,4.19-2.49s2.87-2.25,4.29-3.4c2.06-1.68,4.45-3.41,4.21-6.39.9-.84,1.82-1.66,2.78-2.43,1.57-1.25,3.44-2,5.11-3.13,3.43-2.27,6.37-5.17,9.59-7.71,1.41-1.12,2.68-2,2.9-3.89a55.38,55.38,0,0,0,0-6.44c0-1.62-.48-3.88.14-5.42s2.69-2.2,4-2.93c3.79-2.08,7.52-4.25,11.3-6.32a27,27,0,0,1,11.23-3.77c1.86-.15,3.64-.43,5.47-.72s3.67.26,5.52.61c4.22.77,8.48,1.23,12.69,2s8.44,1.84,12.63,2.87,8.38,2.13,12.63,2.88a48.67,48.67,0,0,1,6.55,1.31c1.59.52,3.13,1.24,4.77,1.6,4,.88,8,1,11.9,2.31a66.11,66.11,0,0,0,11.88,2.6c2.12.32,4.23.66,6.32,1.12a7.85,7.85,0,0,0,3.67.12,8.17,8.17,0,0,0,5.66-5.36c2.34-7.11-2.19-14.73-6.8-19.76-5-5.4-11.21-9.18-17.15-13.36a55.94,55.94,0,0,1,7.09.13c2,0,4-.05,6,.06,4.5.24,9-1.06,13.48-1.15,6.1-.13,13.62-1.38,15.21-8.32,1.48-6.47-5.37-12.3-10.27-15.23-3.14-1.89-6.32-3.61-9.4-5.6-3.29-2.14-7.36-3.39-11-4.82A102.13,102.13,0,0,0,922,218.29c-3.7-1-7.44-1.5-11-2.95,3.23-1.41,6.72-1.72,10.17-2.36s6.82-1.49,10.19-2.43Z" transform="translate(0 0)" fill-rule="evenodd"/><path d="M952,463.71a3.3,3.3,0,0,1-2.75,2.64,71.88,71.88,0,0,1-7.76,1c-4.64.56-9.44.8-14,1.9a50.26,50.26,0,0,0-12.37,4.67c1.26-6,2.69-11.85,2.16-18.05-.39-4.55-.5-11.4-5.09-14-1.07-.61-2.75-.38-3.94-.44l-4.61-.24c-3-.17-6.08-.49-9.11-.79-6-.58-11.92-1.31-17.87-2.18-1-.15-2.75,0-3.41-.89-.48-.63-.25-1.62-.21-2.32a42.27,42.27,0,0,0-.28-7.29A85.15,85.15,0,0,0,869,412.12c-.83-2.56-1.71-5.11-2.55-7.67-.4-1.23-1.33-2.92,0-3.81.84-.55,2.29-.55,3.27-.79,1.15-.29,2.28-.66,3.4-1l8-2.66c10.12-3.37,20.33-6.52,30.43-10l4.22-1.46c.61-.21,1.68-.74,2.34-.46s.62,1.19,1.17,1.7,1.58.47,2.2.83c1.58.91,2.57,2.5,3.81,3.78,1.59,1.65,3.37,3.1,4.95,4.78,6.35,6.78,11.05,14.94,15,23.29a42.94,42.94,0,0,1,2.43,7,57.41,57.41,0,0,1,1.81,6.81c.83,5.44.86,11,1.54,16.52.56,4.59,2,10.15.94,14.75m-40.35-12.29a49.77,49.77,0,0,1-1,10.82,80.54,80.54,0,0,1-3.61,10.66c-1.25,3.3-2.25,6.7-3.7,9.92s-3.24,6.08-4.38,9.38c-2.35,6.76-6.36,12.7-9.2,19.23a198.42,198.42,0,0,1-9.74,19.39c-1.71,3-3.3,6.34-5.47,9a40.82,40.82,0,0,1-3.55,3.88c-1.08,1-1.61.25-2.92.48-1.91.34-2.9,2.83-4.13,4.1-2.35,2.42-4.75,4.81-7.32,7s-5.54,4.1-8.24,6.25a47.7,47.7,0,0,1-8.09,5.4c-5.82,2.95-12.5,6.57-19.21,6.26-3.09-.14-4.75-2.15-6-4.83-1.37-2.84-.91-6.25-.68-9.29a21,21,0,0,1,3.11-10c1.92-3.06,0-5-1.89-7.5-4.27-5.69-10-10.12-15.15-14.92q-4-3.74-8-7.5l-4.4-4.17c-1.07-1-2.11-1.7-2.49-3.13a73.71,73.71,0,0,0,8.66-4.89c5.49-4,10.54-8.92,15.72-13.35a47.83,47.83,0,0,0,6.45-7.32,91.52,91.52,0,0,0,5.81-7.5c3.58-5.75,7.66-11.45,10.5-17.62a46.13,46.13,0,0,0,2.89-9.5c.45-2,1-3.94,1.46-5.9.32-1.27.42-3.45,1.23-4.49,1.49-1.93,6.18,1.18,7.9,1.73a65,65,0,0,0,9.95,2c7.1,1.1,14.25,2,21.3,3.4,3.69.71,7.4,1.5,11.15,1.88a102,102,0,0,0,10.92.14c.78,0,1.74.13,2.26-.58.3-.41.1-.92.58-1.3s1.44-.23,2.16-.16c1.46.16,2.92.25,4.38.43a7.63,7.63,0,0,1,2.41.3c.57.35.37,1.4.37,2.21M809.53,548.75a30.26,30.26,0,0,0-2.73,12,27.51,27.51,0,0,0,.66,6.06c.36,1.73,1.36,3.73,1,5.48-4.3-2-8.54-4.14-12.93-5.94-3.8-1.55-6.65-4.25-9.77-6.82-3.36-2.76-6.39-5.83-9.62-8.74-3.46-3.12-7.06-6.06-10.58-9.11a131.05,131.05,0,0,1-16.67-18c-4.52-5.7-11-13-10.69-20.68.14-3.58.4-7.65,2.16-10.86a24.66,24.66,0,0,1,6.56-7.42c2.37-1.71,4.7,2.59,6,4.1,2.87,3.25,5.8,6.45,8.71,9.66,5.54,6.12,10.8,12.53,16.79,18.22S790.7,528,797.21,533.22c3.25,2.59,6.84,5,9.79,8,1.09,1.08,3.19,2.27,3.92,3.62s-.78,2.73-1.39,4m148.21-84.41c-.91-.12-.87,0-1-.89a25.56,25.56,0,0,1,.49-4.42,107.78,107.78,0,0,0-.22-20.16c-1.13-13-3.81-25.77-10.6-37a66.19,66.19,0,0,0-11.13-14.28,72.11,72.11,0,0,0-6.32-5.66c-1.14-.84-2.79-1.26-3.83-2.12-.55-.46-.8-1.41-1.27-2-1.89-2.36-4-3-7-2.72a54.26,54.26,0,0,0-9.4,2.08c-6.4,1.78-12.54,4.8-18.74,7.18s-12.39,4.94-18.54,7.55c-2.67,1.13-5.89,2-8.27,3.73a4,4,0,0,0-1.7,4c.55,6.07,2.8,12.09,4.51,17.89a90.58,90.58,0,0,1,3.81,19.06c-6.35-.46-12.66-.94-19-1.74-3.16-.4-6.34-.73-9.49-1.16a8.17,8.17,0,0,1-3.71-1.68c-1.15-.75-1.74-.12-2.23,1-2.56,5.87-3.56,12.28-6.33,18.11-1.24,2.62-2.8,5.06-4.09,7.65a72.75,72.75,0,0,1-4.86,8.2c-.82,1.21-1.87,2.19-2.77,3.33s-1.45,2.26-2.22,3.36a48.71,48.71,0,0,1-5.54,6.3c-2,2-3.91,4-5.81,6.08s-4.09,3.69-6.06,5.62-3.47,3.78-5.37,5.55-2.7,4.08-4.67,5.62c-1.06.83-2.24,1.5-3.3,2.33-.87.69-1.78,1.9-3,1.67s-2.48-2.11-3.34-3.07q-1.66-1.85-3.36-3.67c-4.41-4.78-8.95-9.47-13.4-14.22-2.18-2.33-4.58-4.44-6.7-6.81-1.55-1.73-4.08-3-6.25-1.78s-4.81,2.25-6.58,4a52.09,52.09,0,0,0-5,6.7,18,18,0,0,0-2.7,7.83,38.7,38.7,0,0,0-.7,8.85c.42,5.65,1.47,12,4.74,16.73,1.56,2.27,3.7,4,5.61,5.92a57.79,57.79,0,0,1,5.25,7.07,91.88,91.88,0,0,0,11.9,13.19c2.05,1.93,4.36,3.56,6.42,5.5a59.2,59.2,0,0,0,6.88,5.67,74,74,0,0,1,6.91,6.1,78.44,78.44,0,0,0,7.36,5.89A53.89,53.89,0,0,0,803,578.22c6.37,1.92,12.53,4.44,18.87,6.45,3,1,6-.37,8.93-1.35a49.5,49.5,0,0,0,8.56-3.7c5.5-3.1,10.79-6.7,16.21-10a59.68,59.68,0,0,0,14.64-12.27c4.1-4.75,8.44-9.46,12.17-14.5,7.59-10.23,12.17-22.33,17.8-33.66,3-6,6-12,8.51-18.21,1.22-3.07,2.32-6.21,3.57-9.28.53-1.3,1-1.8,2.38-2,1.64-.26,3.31-.37,5-.57,6.51-.77,12.86-1.92,19.31-3,6-1,12-2.1,17.36-5.14a7.36,7.36,0,0,0,3.09-2.59c.28-.54,1-3.31.57-3.75-.22-.26-1.75-.23-2.14-.28" transform="translate(0 0)" fill-rule="evenodd"/><path d="M691.24,53.31c2.08-1.09,4.2-2.1,6.31-3.12C702,48,706.43,45.69,711,43.62c2-.94,4.19-1.54,6.29-2.32s4.37-1.94,6.52-3c4.51-2.18,9.12-4.06,13.8-5.83,1.43-.55,2.87-1.08,4.31-1.61a18.11,18.11,0,0,1,3.59-1.33c1.82-.21,3.19,1.65,4.43,2.76,6.7,6,11.43,15,14.3,23.42a93.52,93.52,0,0,1,3.12,14.15,88.57,88.57,0,0,1,1.81,14.68c0,5.06.55,10.06.33,15.13-.09,1.9.25,5.3-.79,7s-3.7,2.14-5.41,2.76c-9.32,3.38-18.62,7-28.08,10q-14.74,4.64-29.45,9.41c.39-2.79.86-5.58,1.18-8.38a69,69,0,0,0,.05-8,89.94,89.94,0,0,0-1.41-17.34c-2.13-10.39-5.56-20.62-11.31-29.59a58.1,58.1,0,0,0-4.57-5.93c-.57-.68-2.49-2.3-2.42-3.35.09-1.38,3-2.36,4-2.89M803,52.19c2.16.09,3.55.59,3.7,2.89.19,2.93.15,5.91.25,8.85.2,5.62.4,11.25.26,16.88-.26,9.86-1.31,19.71-4.33,29.13-1.46,4.56-3.21,9-5.09,13.43s-4.42,8.1-6.71,12.11a27.28,27.28,0,0,1-4,5.24c-.74.79-1.07,1.21-2.12,1.34a19,19,0,0,1-3.44-.21c-5-.36-10-.86-15-1.1s-9.93,0-14.88-.26c-2.32-.11-4.51-.86-6.8-1.23s-4.63-.53-6.94-.79c-1.19-.14-1.16.14-1.34-.94a8.87,8.87,0,0,1,.1-1.92c.06-1.14.11-2.28.18-3.42s-.14-2.81.27-3.77,1.16-1,2-1.23a121.89,121.89,0,0,0,13.49-4.62c4.52-1.82,9.09-3.54,13.57-5.49,1.92-.84,4.1-1.6,5.55-3.19a12.1,12.1,0,0,0,2.42-4.63c2.91-9.13,2-19.66,1.14-29.07-.87-9.68-2.26-19.61-5.8-28.7,11.15,0,22.33.18,33.46.7M678.61,60.55c3.1,1.16,5,3.86,6.85,6.47a81.59,81.59,0,0,1,6.13,10.08A86.73,86.73,0,0,1,699.11,101c1.33,7.82,2,16.54.46,24.38-.41,2.09-1.48,3.78-2.08,5.76a9.49,9.49,0,0,0,.24,4.61c.52,1.9,2.32,1.25,3.81.94,2.19-.45,4.37-.89,6.55-1.35,8.22-1.74,16.36-4.75,24.72-5.36-.71,2.22-1.11,4.24-2.55,6.15s-3.13,3.33-3.91,5.48a9.82,9.82,0,0,0-.11,6.11c.69,1.91,2.37,1.94,4.14,2.15,5,.61,9.87,1.42,14.89,1.7a12.85,12.85,0,0,0,3.22,0,5.73,5.73,0,0,1,2.32-.26c1.15.21,2.16.77,3.36.89a24.28,24.28,0,0,0,3.41,0c4.2-.16,8.31.28,12.51-.13,1.23-.12,3.53-.82,4.67-.12s.27,2.24.87,3.26c.79,1.35,3.52.66,4.84.59a12.48,12.48,0,0,0,5.23-1.31,29.79,29.79,0,0,0,9-7,53.79,53.79,0,0,0,6.41-10.15,96.14,96.14,0,0,0,5.4-11.2,81.91,81.91,0,0,0,3.85-12.33c.86-4.19,1.4-8.44,2.21-12.65a95.42,95.42,0,0,0,1.21-13.3,121.29,121.29,0,0,0,0-13.75c-.28-4.53-.78-9-1.31-13.48-.14-1.15-.07-2.34-.25-3.48-.12-.77-.52-1.49-.57-2.27-.08-1.55,1.33-2.54,1.3-4.16-.09-3.75-4.08-5.15-7-6a34.57,34.57,0,0,0-12.2-1.58c-8.68.62-17.55.7-25.78,3.87-4.27-7.31-8.24-15.24-15.22-20.37a6.81,6.81,0,0,1-2.15-1.83,12.83,12.83,0,0,0-1.21-2.13c-1.44-1.62-3.2-1.82-5.21-1.4a76.94,76.94,0,0,0-12.67,3.59c-1.83.73-3.78,1.08-5.63,1.8S722.4,28.13,720.7,29c-3.73,1.84-7.59,3.4-11.32,5.26a175.14,175.14,0,0,0-21.77,12.39c-3.33,2.3-7.15,4.67-10,7.59a5.66,5.66,0,0,0-1.6,4.68c.22,1.85,1.16,1.13,2.57,1.66" transform="translate(0 0)" fill-rule="evenodd"/><path d="M188.13,74.83c.37-4.76.22-9.53.56-14.28A113.27,113.27,0,0,1,190.82,47a61.35,61.35,0,0,1,4.39-12.72c1-2.32,2-4.65,3-7,.6-1.43,1-2.91,2.71-3.29,2.17-.49,4.78-.09,7-.17s4.5-.22,6.74-.42c4.88-.43,9.72-1.14,14.59-1.65A135.25,135.25,0,0,0,243.13,20c2.36-.49,4.71-1.07,7.06-1.65,1.76-.43,4.2-1.53,6-1.11A39.47,39.47,0,0,0,253.24,33c0,2.13-.27,3-2.49,2.86-2.76-.16-5.54-.44-8.29-.75-5.19-.6-10.33-1.55-15.48-2.44-2.43-.42-4.78-1-7.17-1.56-1.69-.37-2.41.3-3,1.85-.41,1.13-.54,1.63-1.59,2.27a21.42,21.42,0,0,0-2.5,1.63,18.62,18.62,0,0,0-3.66,3.91,44.81,44.81,0,0,0-5.14,10.77A95.66,95.66,0,0,0,198.52,81c-.16,5-1,10-1.05,15.07,0,2.23.54,5.11-1.32,6.73a51.16,51.16,0,0,1-6.21,4,49.52,49.52,0,0,1-2.29-15.91c-.06-5.36.07-10.71.48-16.06m75.49-27c2.22.59,4.46,1.12,6.71,1.64-3.82,9.15-3.69,19.29-4,29.05a104.05,104.05,0,0,0,.42,13.09,125.58,125.58,0,0,0,2.34,13.05c.2.95.67,2.51,0,3.38s-3,1.49-4,1.94c-3.91,1.76-7.77,3.68-11.77,5.26s-8.26,2.58-12.22,4.44-7.81,3.5-11.85,5-8.08,2.46-11.91,4.25a46.41,46.41,0,0,0-9.71,6.53,70.16,70.16,0,0,1-2.95-17.87c-.33-5.84-.81-11.93-.21-17.76a63.45,63.45,0,0,0,.22-7.8,70.57,70.57,0,0,1,.69-7.09c.42-5.23.41-10.45,1.11-15.66,1.34-9.85,4-20.28,9.37-28.72a8,8,0,0,1,1.15-1.8c.79-.67.51-.55,1.56,0s1.93,1,2.94,1.47a50.32,50.32,0,0,0,6.59,1.95c2.44.7,4.66,1.76,7.19,2.16s5,.42,7.41.81a40.38,40.38,0,0,1,3.93,1,23.08,23.08,0,0,0,3.26.32c2.19.23,4.32.84,6.51,1,2.47.23,4.67-.27,7.12.38M182.77,90.31a66.79,66.79,0,0,0,4.72,17.54c.75,1.8,1.6,4.32,3.76,4.82,2,.46,4.41-1,6.29-1.52,1.47,8.75,2.11,17.84,6,25.95.49,1,1.14,2.93,2.15,3.6s2.3,0,3.33-.37a120.43,120.43,0,0,1,13.31-3.84c2.19-.55,4.42-1,6.56-1.79a36.43,36.43,0,0,1,5.31-1.69,71.21,71.21,0,0,0,11.21-3.29c7.79-2.75,15.63-5.24,22.82-9.38a97.14,97.14,0,0,0,10.21-6.29c2.6-2,5.5-4.88,4.23-8.43-.38-1.07-1.44-2.85-2.65-3.17s-2.17.72-3.21,1c-1.58.36-1.22-.91-1.37-2.16l-.36-2.93c-.24-2.06-.49-4.11-.67-6.17-.76-8.55-.41-17.08-.41-25.64,0-4.28,1-8,2-12.16q.79-3.29,1.5-6.59a8.2,8.2,0,0,0,.2-3.81c-.8-2.78-4.75-3.54-7.1-4.34a48,48,0,0,0-6.14-1.68c-1.14-.23-4.2,0-4.94-1s.08-4,.16-5.17c.13-2.08.28-4.16.55-6.23.44-3.34.4-6.44-2.27-8.88,1.66-1.32,2.84-4.13.43-5.35a14.36,14.36,0,0,0-9.44-.87c-3.21.8-6.73.81-10,1.17-3.49.37-7,.82-10.47,1.27-6,.76-12.12.92-18.06,2.14-3,.61-5.94,1.07-8.94,1.55s-5,.9-6.82,3.52c-3.52,5-6.77,10.05-8.74,15.84a73,73,0,0,0-3.27,17A183.57,183.57,0,0,0,182,71.55c.07,6.26,0,12.53.75,18.76" transform="translate(0 0)" fill-rule="evenodd"/><path d="M56.61,335.59c.36-.6,1.44-.75,2-1a21.41,21.41,0,0,0,2.58-1.29,119.45,119.45,0,0,0,12.12-7.79c.94-.71,3.27-3.32,4.64-2.91.67.2,1,1.32,1.33,1.86.51,1,1,1.9,1.62,2.82a47.15,47.15,0,0,0,8.27,9.78c5.95,5.42,12.73,8.92,20.89,9.34-5.27,7.16-10.31,14.64-16.3,21.24-3,3.33-6.33,6.34-9.47,9.55a4.28,4.28,0,0,1-1.52,1.19,5.44,5.44,0,0,0-1.9,1,4.13,4.13,0,0,0-.83,3.72c-5.57.21-11.6-2.28-16.66-4.33a75.59,75.59,0,0,1-8.68-4.11,18.34,18.34,0,0,1-5.39-4c5.1-2.71,10.27-5.3,15.16-8.39,3.34-2.11,9.25-4.58,8.77-9.46a2.88,2.88,0,0,0-1-2.13c-1-.64-1.22.12-2.13.32-1.46.32-3.2-1.62-4.32-2.46-3-2.26-6-4.75-7.78-8.14-.54-1-2.06-3.63-1.37-4.81M25.5,378.77c.83-2.7-3-4.78-4.75-6.08a24.46,24.46,0,0,1-6.06-6.83c-6.73-10.62-9.11-23.57-8.56-36,.15-3.44.55-6.89.62-10.34a26.93,26.93,0,0,1,.32-5.23c.37-1.67.82-3.32,1.23-5,.82-3.31,1.24-6.71,2.22-10a51.07,51.07,0,0,1,3.59-8.78c1-1.88,1.87-4.52,4.4-4.16,3.15.45,6.24,2.08,9.31,2.93,3.4.94,6.85,1.72,10.28,2.53s6.58,1.89,9.92,2.56a23.84,23.84,0,0,0,5.26.47c.78,0,2.18-.09,2.25,1s-1.7,2.43-2.43,3.14a9.49,9.49,0,0,0-2.36,3.29,40.81,40.81,0,0,0-3.07,9.93,77.37,77.37,0,0,0-.44,10.21,52.48,52.48,0,0,0,3.32,19.66c2.21,5.76,5.67,9.73,10.41,13.58L46.11,363c-4.45,2.22-9,4.13-12.77,7.4a23.4,23.4,0,0,0-4.55,4.67c-1.4,2.19.57,3.68,2.66,2.81,2.3-1,4.56-2.07,6.81-3.15,1.46-.69,3.9-2.57,5.61-2.52,1.45,0,2,1.9,2.65,2.93a22.59,22.59,0,0,0,3.74,4.43,40.93,40.93,0,0,0,10.17,6.85,49.26,49.26,0,0,0,12.88,4,36,36,0,0,0,7.33.54c1.84-.07,4.45-.07,6.11-1,1.43-.78.68-2.35,2.09-3.16s3.07-1.49,4.51-2.44c3.4-2.26,5.42-5.17,7.42-8.65,4.58-8,10.15-15.3,13.58-23.92.8-2,1.26-4.39,2.58-6.16.87-1.17,2.82-1.86,3-3.4s-.4-4.82-1.89-5.52c-1.72-.8-4.23-.81-6.11-1.25-8.13-1.9-15.72-4.79-22.21-10.17A52.32,52.32,0,0,1,85.16,321c-1.07-1.14-2.19-2.34-2-4,.2-1.5,1.39-3.68-1-4.1a8.65,8.65,0,0,0-5.23,1.43c-4,2.53-7.73,5.57-11.55,8.37-3.49,2.54-7.07,5-10.61,7.44.41-5.87.22-12.22,1.62-17.94a26.71,26.71,0,0,1,3.4-7.87c1.57-2.49,2.82-5.1,4.2-7.7.76.44,2,1.43,2.71.25.44-.73.13-2.67,0-3.51-1.22-6.26-10.72-6.89-15.62-8-7.05-1.54-14.09-3.4-21.22-4.49-3.3-.5-6.57-.6-9.88-.8-1.7-.11-3.68-.48-4.71,1.24-.28.46-.32,1.12-.62,1.48a12.79,12.79,0,0,1-1.46,1,15.77,15.77,0,0,0-2.88,3.06,38.13,38.13,0,0,0-4,7.62,73.71,73.71,0,0,0-5.1,19.93,114.2,114.2,0,0,0-1,21.31c.85,13,4.38,26.2,12.56,36.58a20.47,20.47,0,0,0,6.63,5.75c1.3.69,5.41,3.12,6.15.71" transform="translate(0 0)" fill-rule="evenodd"/><path d="M118.72,531.62c-2.53,3.26-5.06,6.49-7.33,10s-4.45,7-6.68,10.55a98,98,0,0,0-6.29,10.32c-1,2.09-1.09,4.85-3.83,4.75a23.45,23.45,0,0,1-10.25-2.85,42.46,42.46,0,0,1-15.71-14.22,85.44,85.44,0,0,1-9.7-20.51c-1.28-4-2.32-8-3.25-12a28.15,28.15,0,0,1-1-6.18c0-.93.06-1.86.11-2.79s.53-2.42-.48-2.48c.3-2.53.59-5.05.9-7.58.23-1.83.21-3.88,1.81-5.08s3.94-1.2,5.74-1.61q3.28-.74,6.49-1.73c4.39-1.34,8.59-3.13,12.83-4.88a56.82,56.82,0,0,0,6.23-2.9c1.65-.94,2.83-2.3,4-.16,7.62,14.51,13.18,30.78,25.65,42,1,.91,2.66,2,2.81,3.5s-1.2,2.84-2,3.88m10-10.26c-1.76-1.21-3.94-1.41-5.72-2.52-2-1.27-3.4-4.15-4.79-6.07-3.34-4.57-6.68-9.17-9.68-14-2.74-4.35-5.21-8.86-7.83-13.28a71.66,71.66,0,0,0-4.32-6.58c-.67-.89-2.38-4.06-3.82-3.94-.75.06-.72.79-1.25,1-.27.12-.49,0-.76,0-1,.13-2-.35-3-.26a41.31,41.31,0,0,0-7.48,2c-4.93,1.48-9.64,3.58-14.49,5.3s-10.18,2.84-14.58,5.5c-1.73,1-3.69,2.72-2,4.77.65.78,1.54.76,2.21,1.36s.31.79.18,1.64c-.07.49-.15,1-.22,1.45-.79,5.1-1.43,10.2-.72,15.35a108.27,108.27,0,0,0,3.26,15.41c4.6,15.91,12.82,34.79,29,41.85,3.78,1.64,7.54,2,11.53,2.78a12.37,12.37,0,0,1,3.42,1.37,3.46,3.46,0,0,0,1.84.64c1.46-.18,2.66-2.45,3.35-3.52,2.58-4.06,5.51-7.87,8.18-11.87a62.64,62.64,0,0,0,3.84-6.4c.66-1.28,1.13-3.4,2.93-3.36l1.47,2a6.35,6.35,0,0,1,.63.84c.36.73.33.19.18,1.06a9.18,9.18,0,0,1-1.87,3.24c-3.8,5.14-7.77,10.16-11.76,15.15A130.89,130.89,0,0,1,94,586.39c-.93.87-1.94,1.93-3.3,2s-2.63-.61-3.87-.82c-2.71-.48-5.49-.58-8.13-1.4-1.37-.43-2.52-1.22-3.94-1.32a6,6,0,0,1-3-.91c-2.37-1.43-5-2.22-7.41-3.57a51.32,51.32,0,0,1-13.67-11.3c-1.88-2.27-3.42-4.79-5.26-7.09s-3.56-4.44-5.13-6.85a70.06,70.06,0,0,1-7.41-15.19c-1-2.77-1.46-4.58,1-6.6a47.4,47.4,0,0,0,6.3-6.21c.93-1.12,5.14-5.23,2-5.91-1.7-.37-4.43,2.51-5.71,3.55a36.69,36.69,0,0,1-6.56,4.57c-2.73,1.38-2.78,3.13-2.74,6,.08,5.9,2.28,11.65,4.55,17A79.65,79.65,0,0,0,40.39,568c6.75,9.31,14.3,18.75,24.79,24a49.08,49.08,0,0,0,16.53,4.58,75.69,75.69,0,0,0,10.21.43,18.83,18.83,0,0,0,4.69-.28c1.12-.36,1.3-1.19,1.7-2.2,1-2.4,3.47-3.71,5.16-5.63s3.71-4,5.57-6c4-4.35,6.7-9.47,9.94-14.38,1.79-2.71,3.73-5.37,5.3-8.23a29,29,0,0,0,3.28-8c.35-2.09-1.33-5.12-3.64-5.23-1.2-.06-2.16.88-3.35,1a10.2,10.2,0,0,0-2,0c1.94-4.71,4.82-9.14,7-13.72,1.23-2.58,2.4-5.2,3.48-7.85.82-2,1.8-3.67-.29-5.1" transform="translate(0 0)" fill-rule="evenodd"/><path d="M159.76,148.67c3.81,8.79,9.93,15.8,16.18,22.94a72,72,0,0,0,10.7,10.25c3.73,2.82,7.51,5.58,11.28,8.36-3.78,4.86-8,9.31-12.25,13.8-3.89,4.15-7.77,8.4-10.34,13.52-.27-2.45-1.86-4-4-5a36.62,36.62,0,0,1-7.48-4.44,115.36,115.36,0,0,1-13.74-13.24c-8.56-9.5-14-21.45-20-32.63l29.61-13.59m-31.63,22.18a110.18,110.18,0,0,0,5.46,11.84c1.88,3.8,3.84,7.58,6,11.21,4.19,6.9,9.31,13.34,15.85,18.18a72.84,72.84,0,0,0,10.18,6.54,10.83,10.83,0,0,0,5.44,1.39c1.17-.07,2.8-1.11,3.71-.18s.62,2.85,2.57,1.92a15.49,15.49,0,0,0,4.2-3.62c3-3.22,6-6.45,8.9-9.77A100.5,100.5,0,0,0,197.94,198c1.31-2,2.59-3.92,3.89-5.88.92-1.4,2.24-2.81,2.17-4.59-.13-3.46-4.39-5.81-6.8-7.74a66,66,0,0,1-8.24-7.62c-2.68-3-6.06-5.53-9-8.36-3.15-3.06-6-6.4-8.83-9.76a86.72,86.72,0,0,1-6.36-8.32c-1.49-2.29-3.16-4-6.13-3.62a51.24,51.24,0,0,0-6.89,1.78c-2.25.86-4.42,1.94-6.61,2.95-4,1.82-7.61,4.13-11.46,6.16a18.49,18.49,0,0,0-2.53,1.53c-.44.32-.88,1-1.35,1.18a5.5,5.5,0,0,1-1,.25c-1.56.43-2.15,1.3-2.93,2.67-1.26,2.21-1.22,3.39-.08,5.65,1,2.06,1.5,4.45,2.27,6.62" transform="translate(0 0)" fill-rule="evenodd"/><path d="M284.49,280.12c1,1.56,2.57.79,3.49-.32,2.77-3.39,5.36-7.05,7.85-10.65s4.84-7.35,7.7-10.76,5.83-6.82,8.82-10.16c11.15-12.48,22.6-24.66,34.9-36,3-2.77,6.1-5.48,9-8.38,1.27-1.27,2.82-2.69,2.76-4.65a5,5,0,0,0-2.18-3.83c-2.65-1.55-6.21,2.22-8.18,3.63a47.65,47.65,0,0,1-4.71,2.54,24,24,0,0,0-4,3c-2.66,2.38-5.54,4.4-8.24,6.72s-5.18,5.06-7.87,7.47c-2.89,2.58-6,4.79-8.55,7.73s-4.67,6.06-7.31,8.87c-5.63,6-10.23,12.78-15,19.45a54,54,0,0,0-5.62,10.35c-.78,1.81-1.55,3.63-2.28,5.46a25.28,25.28,0,0,0-1.08,5.31c.4.08.1,3.57.49,4.2" transform="translate(0 0)" fill-rule="evenodd"/><path d="M907.42,575.73c2.12-2.54,3.5-6.2,5-9.13,1.64-3.14,3.17-6,3.86-9.53.34-1.69.54-3.4.92-5.07a14,14,0,0,0,.73-4.62c-.15-1.72-1-6.91-3.57-6.34-1.52.34-1.21,2-1.22,3.15a14,14,0,0,1-.57,4c-1,3.09-3.2,5.81-4.63,8.7a34.63,34.63,0,0,1-5.09,7.7,55.78,55.78,0,0,1-6.55,6.31c-2.06,1.67-4.53,2.93-6,5.2-.89,1.35-1,1.76-2.68,2.13a10.06,10.06,0,0,0-3.68,1.58c-1.27.89-2.16,2-3.64,2.56-1.29.51-2.65.81-3.95,1.29-3,1.11-5.62,3-8.69,4-1.59.54-3.2,1-4.81,1.49a10.79,10.79,0,0,0-3.86,1.52c-1.79,1.45-2.79,5.18-1.23,7.12s5.63.78,7.81.51l.09.43c3.68-.74,7.52-1.18,11.1-2.33a30.5,30.5,0,0,0,5.32-2.45,24.24,24.24,0,0,1,4.53-1.63A6.49,6.49,0,0,0,890,590c1.12-1.55,1.59-1.09,3.32-1.47,2.77-.61,5.16-3.76,7.07-5.66,2.32-2.32,4.93-4.61,7-7.13" transform="translate(0 0)" fill-rule="evenodd"/><path d="M377.68,128.5c.65-1,2.9-2,3.94-2.62,1.42-.91,2.81-1.84,4.18-2.83,2.47-1.78,4.2-.61,6.4,1.1,4.06,3.16,5.68,7.41,5.38,12.43,0,1.47.4,3.92-.72,5.13s-3.33,1-4.75,1.33c-1.87.38-4.69,2.74-6.63,2.05-1.69-.61-1.09-3.63-1.23-5a13.73,13.73,0,0,0-2.62-6.92,14.46,14.46,0,0,0-2.77-2.7c-.79-.6-1.82-1-1.18-2M370.24,136a24.14,24.14,0,0,1,4.74,1.63,10.65,10.65,0,0,1,3.09,1.49c1.33,1.18.79,3.05,1.1,4.6.18.9.65,1.68.31,2.62-.39,1.1-1.54,1.29-2.12,2.18-.86,1.31.24,3.16,1,4.27,1.28,1.94,3,.95,5,.66a39.61,39.61,0,0,0,7.11-1.23c1.87-.64,3.42-2.11,4.84-.15.53.73.64,1.38,1.69,1.11.86-.23,1.75-1.41,2.35-2,3.71-3.76,4.6-8.9,4.66-14,.18-5.64-1.87-10.93-4.77-15.69a11.44,11.44,0,0,0-2.14-2.93c-.88-.76-2-1.06-2.84-1.94-1.2-1.32-.92-4-2.83-4.57s-4.9,1.82-6.42,2.87c-2.15,1.46-4.24,3-6.3,4.57-4.42,3.37-9.36,6.6-13.36,10.46a3.84,3.84,0,0,0-.55,5.18c1.36,1.57,3.69.55,5.46.86" transform="translate(0 0)" fill-rule="evenodd"/><path d="M607.4,539.65a83,83,0,0,0-4.06-14.58c-1.14-3.08-3.73-8.36-7.87-8.06-4.56.34-1.5,6.29-1.06,8.65,1.73,9.26,2.73,18.72,4.1,28,.68,4.62.88,9.37,2,13.92a37.06,37.06,0,0,0,2.22,6.46c.59,1.33,1.3,3,2.79,3.65,4.52,1.82,3.39-6.12,3.34-8.08q-.18-7.18-.35-14.37h.37c-.69-5.2-.57-10.43-1.46-15.62" transform="translate(0 0)" fill-rule="evenodd"/><path d="M70.5,626.81c-2.47.81-4.31,1.43-7,1.17-1.88-.18-3.75-.56-5.63-.8A48.06,48.06,0,0,1,44,623.24a44.08,44.08,0,0,1-11.16-6.9,60.48,60.48,0,0,1-4.92-5A6,6,0,0,0,24,609a21.86,21.86,0,0,0,2.17,6.75A40.62,40.62,0,0,0,29.46,621a38.38,38.38,0,0,0,9.11,8.69A36.59,36.59,0,0,0,49.92,635c2.26.57,4.58.91,6.86,1.35a20,20,0,0,0,6.48.53,45.31,45.31,0,0,0,6.25-.94A16.7,16.7,0,0,0,74,633.57c2.64-1.8-.24-7.81-3.47-6.76" transform="translate(0 0)" fill-rule="evenodd"/><path d="M151.14,63.84c1.23,1.65,3.87,1.66,3.69-.75a26,26,0,0,0-1.56-6.48c-.72-2.12-.57-4.44-.62-6.66a76,76,0,0,1,1.07-15.66c1-5,1.58-10.11,2.7-15.1s3.09-9.53,4.31-14.39c.38-1.51.69-4.44-1.51-4.78-1.83-.28-2.91,2.28-3.61,3.49-2.36,4-4.9,7.74-6.29,12.23a65.67,65.67,0,0,0-2.66,12.55c-.46,4.41-.39,8.86-.66,13.28.44,5.14.21,10.83,1.86,15.76a23.86,23.86,0,0,0,3.28,6.51" transform="translate(0 0)" fill-rule="evenodd"/><path d="M840.66,84.05c-.73,1.73-1.08,3.58.16,5.21,2.25,3,5.84-3.78,6.39-5.66,1.18-4.07,2.67-8.18,3.33-12.39s.35-8.9.46-13.25a91,91,0,0,0-2.28-15.34c-1.09-4.46-2.25-9-5.87-12-1.51-1.25-2.55-.3-2.76,1.48a9.84,9.84,0,0,0,1.17,5.63c2.08,4,2.09,8.72,2.56,13.21.92,8.93,1.45,17.83-.89,26.59a52,52,0,0,1-2.27,6.57" transform="translate(0 0)" fill-rule="evenodd"/><path d="M74.58,183.83a56.79,56.79,0,0,0,1.85,6,51.11,51.11,0,0,0,5.62,10.74,60.43,60.43,0,0,0,14.29,14.56c1.8,1.27,6.16,4.83,8.5,3.64,3.19-1.62-1.08-5.77-2.38-7-2.68-2.51-5.34-5-8-7.5s-4.74-5.66-6.88-8.64-4.27-6-6.22-9.15c-1-1.62-1.89-3.32-2.9-4.94A23.39,23.39,0,0,0,75.14,178c-.93.44-.83.37-1.07,1.21a6.37,6.37,0,0,0-.06,1.44,13.89,13.89,0,0,0,.57,3.18" transform="translate(0 0)" fill-rule="evenodd"/><path d="M304,215.27c5.07-4.59,10.64-8.47,15.43-13.36,1.2-1.23,2.13-1.95,1.09-3.63-.7-1.13-1.5-1.7-2.67-.93-2.82,1.84-5.5,4.1-8.21,6.11-5.55,4.11-11.31,8.15-16.33,12.91a44.16,44.16,0,0,0-6.13,7.11C285.36,226.19,284,229,286,232c6-5.55,11.94-11.23,18-16.73" transform="translate(0 0)" fill-rule="evenodd"/><path d="M921.6,593c-.91-.22-2.42.78-3.09,1.23-2.69,1.77-5.47,3.41-8.19,5.13-2.51,1.59-5,3.23-7.45,4.88-2,1.37-3.39,3.06-2.67,5.66.33,1.18.87,2.57,2.25,1.89a26.1,26.1,0,0,1,3-1.37,56.16,56.16,0,0,0,8.22-3.39c4.51-2.47,8.74-6.29,9.35-11.67-.34-.77-.43-2.12-1.4-2.36" transform="translate(0 0)" fill-rule="evenodd"/><path d="M624.71,538.73c-.91-1-2-1-2.52.2s.14,3.39.32,4.62q.43,3,1,6.07c.2,1.18.35,4.84,1.9,5.32,2.37.73,2.43-5,2.63-6.22-.5-1.7-1-3.41-1.48-5.12-.44-1.49-.71-3.67-1.81-4.87" transform="translate(0 0)" fill-rule="evenodd"/><path d="M225.21,439.19c-.57-.27-1-.16-1.13-.83s.78-1.15.91-1.63c.49-1.73-1.33.09-2,.64.62,1.54,1.25,3.09,1.88,4.63l2.12-.85c-.68-.92-.76-1.47-1.79-2" transform="translate(0 0)" fill-rule="evenodd"/><path d="M557,159.86c1.18.39,2.92-.14,4.12-.36a21.29,21.29,0,0,0,3.58-1c2.74-1.07,2.5-4.31,1.87-6.82-.85-3.39-2.74-6.64-4.25-9.77-.78-1.62-1.53-3.25-2.24-4.91-.54-1.26-1.24-3-2.87-3-2.5,0-1.28,5.88-.88,7.29,1,3.54,2.86,6.8,4.41,10.1a42.08,42.08,0,0,1-4.34.24c-1.49,0-1.9,0-2.26,1.66-.53,2.4.2,5.69,2.86,6.57" transform="translate(0 0)" fill-rule="evenodd"/><path d="M534.44,130.94c2.7-.17,5.39-.45,8.08-.75,2-.23,5.42-.27,6.82-1.83,1-1.07.8-3.35-.05-4.46-1-1.32-3.33-.8-4.82-.8A26.47,26.47,0,0,0,533,125.47c-1.32.65-4.28,1.83-4,3.6.4,2.22,3.77,2,5.42,1.87" transform="translate(0 0)" fill-rule="evenodd"/><path d="M545.68,162.06c-2.25.57-1.82,4.43-1.12,6.05,1,2.43,3.66,3,6.07,2.87,1.16-.12,2.83.3,3.7-.67a3.86,3.86,0,0,0,.24-4c-.81-1.42-2.89-2.22-4.3-2.88-1.22-.57-3.17-1.76-4.59-1.41" transform="translate(0 0)" fill-rule="evenodd"/><path d="M546,142c.18-2.21-1.08-7.18-4-7-1.41.08-2.6,2.09-2.86,3.32a8.33,8.33,0,0,0,.45,3.86c.56,2.05,1.4,5.22,4.12,4.77,2.27-.38,2.33-3.09,2.32-5" transform="translate(0 0)" fill-rule="evenodd"/><path d="M567.26,144.22a2.09,2.09,0,0,0,2.3.64c1.24-.56,1-2,1-3.1l.41-.13c-.7-1.94-1.16-6-3.59-6.56s-2.56,2.11-2.34,3.77.85,4.08,2.19,5.38" transform="translate(0 0)" fill-rule="evenodd"/><path d="M492.24,144c-1.19.12-3.42.67-3.23,2.16.28,2.16,3.68,2.55,5.41,2.76,2,.25,4.87,0,2.93-2.52a6.94,6.94,0,0,0-5.11-2.4" transform="translate(0 0)" fill-rule="evenodd"/><path d="M392.27,403,391,405.49l4,.51c.06-1.06-2-2.37-2.73-3" transform="translate(0 0)" fill-rule="evenodd"/></svg>