<svg id="Layer_1" data-name="Layer 1" xmlns="http://www.w3.org/2000/svg" viewBox="0 0 702.67 660.27"><g id="react-group-221"><g id="react-group-222"><path id="react-path-225" d="M525.32,94.76,516,119.33l-5.94,15.75c-.71,1.86-1.1,3.77-2.46,5.06-3.21,3-9,5-12.81,7.12l-7.75,4.3c-1.33.74-4.28,1.67-5.21,2.9s-.54,3.84-.54,5.71v46.59l40-5L468,263.25c-4.38,5.05-9.7,9.91-13,15.79-6.94,12.51-13.73,25.11-20.59,37.66l-19.16,35.06,57.47-2.45c14.88-.63,30.16.32,44.5-3.9L552.74,335c1.57-.47,6.47-1,7.58-2.25s1-5.67,1.32-7.18c5.58-28.67,12.68-60.27,29-84.94,11.67-17.7,27.42-33.18,41.84-48.61,5.63-6,11.36-12,16.79-18.18,1.39-1.58,3.4-3.39,4.32-5.32.6-1.24,1.42-3.62,1.06-4.73-.16-.48-3.88-2.2-4.41-2.54-3.76-2.42-7.49-4.89-11.22-7.34-10.5-6.9-21-13.82-31.55-20.63C599.2,128,591,122.33,582.31,117.76,573.31,113,563.4,109.7,554,106s-19.09-7.51-28.65-11.21" transform="translate(-161 -54)" fill-rule="evenodd"/><g id="react-group-223"><path id="react-path-226" d="M848.91,532.34c-4.58,4.32-12.92,10.11-19.51,7.47-3.31-1.32-6.13-4.22-9.15-6.09a55.22,55.22,0,0,1-9.87-7.34c-6-5.85-10.53-14.4-17.61-19-2.37-1.54-7-1.87-8.67-4.33a6.56,6.56,0,0,1-.67-4.05c.3-2.74,1.78-2.58-.7-4.6h3.85c.08-1.49-1.41-1.61-2.51-1.42.51-2.35,1-11.58-3.26-7.4-3.73,3.63-1.86,9.64-4.5,13.56-2,3-7.38.57-8.1-2.73-.32-1.49,1.31-3.81,1.51-5.26.42-3.23-1-6-3.11-8.47-4.6,3.06-2,9.4-4.61,13.42-2.37,3.64-7.64,1.94-11.25,1.3-4.33-.77-9.21,0-13.35-1-6.25-1.54-3.92-8.88-4.53-13.61-.67-5.07-5.79-12.11-4.25-17.23,1.65-5.49,11.32-6.68,15.94-8,10.57-3.05,25.63-3.63,33.49-12.16,6.24,7,11.27,14.94,17.82,21.65,7.07,7.24,14.63,13.93,21.42,21.46,7.07,7.84,14.37,15.53,21.19,23.6,3,3.52,5.58,7.32,8.65,10.75,2.74,3.06,5.62,5.87,1.78,9.48M535,396.87c3.24-1.73,3.66-.64,3.65,2.91-.93-1.71-1.86-2.16-3.65-2.91M507.43,466v-6.27c3.13-.08,1.2,5.28,0,6.27m-.77,9.33a27.71,27.71,0,0,1,.73-8.12c.42,2.94,1.22,5.49-.73,8.12m13.46,190.62c2.87.27,7.3-1.71,9.72.54s2.28,9.06,2.87,12.19c1,5.18,1.83,10.37,2.65,15.57.54,3.4,1.2,6.86-2.65,8.17-5.7,1.92-13.83-.82-19.77-1.07-11.72-.5-23.44-1.18-35.17-1.42a275.23,275.23,0,0,0-34.1,1.13c-5.11.54-10.11,1.48-15.17,2.34-2.67.45-9.82,2.33-12.23.08-4.54-4.23,3-14.12,6.24-16.91,6-5.18,14.58-8.92,22.12-11.17,4-1.2,10.76-4.58,13.93-.8,2.44,2.9,2.34,6.77,5.84,9,8.09,5.09,3.35-9.5-1.7-11.3,3.39-7.94,9.86,3.27,12.55,6,.95,1,4.06,4.12,5.41,2.53,1-1.19-1-5.45-1.38-6.61-.57-1.77-2-4.45-1.6-6.36.75-3.45,5.6-4.4,8.51-4.68,4.5-.45,8.92,1,13.37,1.45,6.83.74,13.72.75,20.56,1.39M474.88,340.22c-8.89.71-17.84-.65-26.71.46-8.39,1.05-16.3,4.14-24.22,7a334.13,334.13,0,0,1,45.54-76.24c9.24-11.72,19.17-23.36,29.15-34.45,4.65-5.16,9.45-10.15,14.25-15.16,4.28-4.48,7.34-12.07,12.48-15.42,4.38-2.85,12-.81,16.89-.64,5.49.2,12.17.7,17.52-1.12,3.88-1.33,5-4.86.09-5-5.72-.14-11.36.46-17.16-.08-15-1.39-29.52-3.67-44.68-2.37-3.47.29-8,1.77-11.45,1.33-2.45-.32-.84.91-2.54-1.06a9.7,9.7,0,0,1-1.63-3.52c-1.08-5.61,2-13.63,2.73-19.28.69-5.22.08-11,1.36-16.06,1.16-4.63,4.7-5.25,9.06-5.75,11.94-1.35,24.11-2.07,36.1-3.09,27.36-2.33,55.58-5.85,82.75-.09,9.81,2.08,21.78,5.29,30.54,10.44,2.74,1.61,5.51,3.51,4.51,6.84s-6.1,7.12-8.62,9.4c-18.55,16.84-36.48,34-49.52,55.65-16.62,27.56-26.16,57.34-31.76,88.93-1.21,6.79-2.32,10.35-9.32,12.31a117.87,117.87,0,0,1-22.53,4.1c-17.59,1.45-35.24,1.48-52.83,2.88m6-182.56c-1.35,10-3.17,20.05-3.35,30.16-.07,3.82-.43,5.73-4.49,6.59-4.79,1-9.66,1.75-14.47,2.79-23.22,5-46,11.21-68.72,18.17-22.07,6.76-43.79,14.37-66.36,19.38-9.71,2.15-21.07,3.6-29.92,8.37-9.51,5.14-8.26,13.56-9.11,22.8-1.14,12.35-4.81,24.31-6.09,36.66a148.71,148.71,0,0,0-1.09,17.77c.08,5.06.81,10.66-2.6,14.92-6.82-9.13-10.06-20.6-11.4-31.79-.66-5.43-.4-10.91-.58-16.37-.15-4.4-.06-11.39-2.92-15.07-6.23-8-14.32,24-15.09,27.42-1.3,5.75-2.37,11.54-3.66,17.29-.57,2.55-1.3,11.81-4.72,12.74-7.07,1.91-5.52-18-5.63-21-.22-6.11-.38-12.22-.23-18.34.1-4.41,1-9.2.45-13.62-1.25-10.84-7.34.58-9.06,4.62-4.33,10.19-6.29,21.09-10.17,31.44-.65,1.73-2.17,7.52-4.57,7.63-2.68.12-2.66-5.87-2.81-7.62-.89-10.13-3.89-20.2-3-30.45a75.49,75.49,0,0,1,9.67-30c10.85-19,30.44-30,49.2-39.89a403,403,0,0,1,67.3-27.71,669,669,0,0,1,85.21-21c14.63-2.58,29.5-4.42,44.28-5.9,5.2-.52,10.39-.83,15.52-1.82,1.94-.37,8.92-2.15,8.39,1.82m15-32.48c-7.34.06-14.83-3.5-22-5-8.51-1.75-16.82-4.28-25.31-6.11-16.64-3.58-33.28-7.07-49.9-10.73-7.22-1.59-14.47-3-21.66-4.68-7.68-1.83-16-3.87-23.86-1.9-11.93,3-17,16-21.35,26.22-3.09,7.19-5.52,15.21-10.34,21.47-1.72,2.23-4.16,4.9-7.28,4.17-5.78-1.34-4.87-9-4.13-13.23,1.07-6.14,2.58-12.21,3.79-18.33.49-2.47,4.27-18.62-2.48-16.12-5,1.86-7.66,14.07-9.55,18.44-1.41,3.24-2.91,6.46-4.49,9.63-2.11,4.22-8.13,18.31-14.79,16.49-9.54-2.6-.39-27.67,1.23-33,.9-2.9,10.59-24.9,2.41-23.1-3.49.77-6.88,7.24-8.66,9.92-3.15,4.76-6.29,9.55-9.26,14.43s-4.61,10.72-7.63,15.66c-1.59,2.61-4.84,6.07-8,3.66-5-3.75-2-16.8-1.15-21.73a64.19,64.19,0,0,1,11.1-26.08c8.25-11.26,23.82-14.9,36.91-17.09,16.9-2.83,34-2.06,51-.38,19.08,1.88,37.88,3.89,56.69,7.74S445,83.32,463.7,88.44c8.8,2.42,17.72,4.56,26.39,7.39,9.21,3,18.21,6.77,27.68,8.94l-10,24.94a16.64,16.64,0,0,0-12-4.53M659.12,148.1c2.93-1.6,6.15-2.36,7.22-5.89.94-3.12-.67-6.65-1.44-9.65a54.44,54.44,0,0,1-.81-25.56c1.82,2.78,8.64,13.47,12.79,7,2.5-3.91-4.2-9.53-6.16-12.27,4.29-2.65,10.43-9.77,15.37-5.48,3.2,2.78,4.56,5.45,8.86,6.79,5.24,1.64,10.16,1.27,15.5.81,3.74-.31,4.64-.81,6.1,2.07a40.74,40.74,0,0,1,2.41,7.5c1.32,4.79,4.38,14.23.76,18.72-3.17,3.94-15.48.56-17.18,5.64-.94,2.77,3.51,2.87,5.21,4.24a19.89,19.89,0,0,1,5,6.81c.85,1.78,2.14,4.72.69,6.55-2,2.52-5.68.61-7.29-1.23-2.13-2.43-2.82-5.76-4.6-8.41-3.26-4.87-3.46-1-4.35,2.5s-3.1,3.38-6.45,3.84a138.9,138.9,0,0,0-17.51,3.55,66.41,66.41,0,0,0-8.56,3c-1.79.77-4.91,3.11-6.86,3.14-3.61,0-6.12-6-8-8.53,3.09-1.73,6.18-3.47,9.29-5.17m194,370c-9-10.83-16.84-22.6-25.74-33.53-8.78-10.77-18.94-20.2-28.79-30C794,450,789.51,445,784.38,440.89c-3.83-3.05-6.78-3.09-11.39-1.75a284,284,0,0,0-38.81,14.17c-11.53,5.33-22,12.17-34.55,15.14a135.83,135.83,0,0,1-39.13,3.26A154.17,154.17,0,0,1,621.65,464c-12.09-3.89-24.7-7.28-35-15-10.84-8.08-19.21-19.7-27-30.62-3.93-5.54-7.83-11.35-10.48-17.62-2.3-5.44-3.8-11.86-7.92-16.29-1,1.43-2.27,2.66-2.78,4.34-.24.77,1.14.74,1,1.35-.27,1.15-1.79,2.31-2.68,2.94-3.18,2.24-3.2.45-2.36,4.64.48,2.44-.44,7.95-4.42,6.15,1.47,1.76-.86,4-1.62,5.42a1.87,1.87,0,0,0-2-.63c1.45,2.9.59,3-.82,5.28a18.26,18.26,0,0,0-1,2.44c-1.44,2.05-3.11,2.57-4,5.13-.69,2.1-.51,4.41-1.28,6.51q-1.4-1.93-2.8-3.86a15.34,15.34,0,0,0,1,3.42c.27.58,1.47,1.92,1.45,2.23-.06,1.17-1.52.89-1.94,1.9-.78,1.89.35,2.17-.08,4-.49,2.12-1.8,1.27-2.42,3.08-.12.34.8,1.69.66,2.43-.21,1.05-1.16,1.63-1.49,2.56-.85,2.37-.54,4.1-1.73,6.37a15.7,15.7,0,0,0-1.44,2.46c-.29.88.32,2.76-.22,3.55-2.64,3.79-2.27-2.75-2.07-4.37,1.68-13.63,7.06-27.69,12-40.43,2.45-6.33,4.84-12.85,7.91-18.92a23.18,23.18,0,0,1,4.71-6.82c2.58-2.36,6.25-3.31,8.59-5.95-.37.42,2.53-2.33,2.07-1.43.41-.81-.31-1.9,0-2.68.32-1,.92-1.18,1.6-2,1.22-1.52,2.66-2.28.75-4.23,2.83-.62,4.19-1.54,4.75-4.57.42-2.22-.42-2.08,1-3.56s2.2-.32,3.12-2.9a84.08,84.08,0,0,0,2.49-10.48c.58-2.82-.82-6.95,1.55-8.94,3-2.52,5.69-1.45,5.15-6.51s1-7.92,2.55-12.58c3.07-9.32,4.26-19.15,7-28.58,5.76-20.11,15.91-38.25,26.84-56,10.09-16.36,24.2-30.3,37.83-43.73,3.73-3.67,7.42-7.4,10.77-11.43,2.89-3.47,4.21-8.2,7-11.5,1.69-2,4.82-2.85,7.18-3.91,3.92-1.77,8.6-4.08,13-3.72-1.76,5.93-2.33,12.86,2.86,17.31,6.31,5.4,12-.21,17.79-3.29,10.53-5.61,25.59-.46,34.77-8.86,2.18-2,2.79-5.2,5.07-7.07,1.66-1.38,4-1.72,5.92-2.75,5.7-3.1,8.47-8.78,6.25-15.06-2-5.74-5.19-7.73,1.84-10.64,5.7-2.36,7.86-5.92,5.28-12.25-2.46-6-7-6.73-11.23-10.68s.62-8.28,3.71-11.15c4-3.71,4.75-7,.13-10.9-4.85-4-11.76-3.89-17.41-1.9-6.38,2.26-10.59,6-13.29,12.08s-9.58,4.46-15.1,2.74c-5.28-1.65-6.66-5.21-10.13-9-3.86-4.26-11.72-.61-16.27,1.33-11.21,4.79-22.34,12.35-22.79,25.74-.26,8,3.11,14.78,4.87,22.27,1.6,6.85-9.41,6.31-11.31,12.94-20.34-10.76-43-14.06-65.74-14.79-24.16-.78-48.68-1.41-72.64,2.41,5.56-9.69,8.5-20.32,13.34-30.28,1.39-2.86,2-2.62,5.07-1.75,5.9,1.66,11.76,3.52,17.66,5.24,21.52,6.25,42.63,13.79,63.44,22,2,.81,6.54,3,8.32.61,2-2.79-2.69-6.24-4.61-7.65-8.38-6.15-18.76-9.88-28.15-14.19-20.52-9.43-43.25-13.91-64.66-20.91A920.88,920.88,0,0,0,377,58.39c-11.73-1.85-23.57-2.12-35.35-3.5A133.3,133.3,0,0,0,310.3,55c-19.26,2.33-41.59,7.34-52.47,25C248,95.85,241.45,113.75,244,132.63c.75,5.67,3.15,12.39,10.15,10.93,4.86-1,7.44-5.14,9.69-9.17,3.41-6.08,6.77-12.16,10.46-18.08,1.37,8.88-3.6,17.6-2.82,26.64.53,6.14,3.92,15.83,11.88,14.1,10.92-2.38,15.41-19.44,20.66-27.62.27,6.3-1.94,12.51-1.26,18.83s5.54,12.13,12.39,11.27c6.45-.8,10.65-7.72,13.39-12.93,3.82-7.25,6.56-15,10.29-22.32,3.49-6.84,7.63-15,16-16.27,7.44-1.15,16,1.51,23.33,2.61,20.4,3,40.38,8.21,60.56,12.39,21.63,4.49,43.78,7.21,64.74,14.44-7.37,10-26.66,7.87-37.64,9-16.6,1.63-33.41,2.85-49.91,5.25-16.3,2.37-32.26,6.59-48.43,9.64s-32.14,6.09-47.71,11.28c-28.89,9.62-58.28,21.81-83.74,38.61-11.84,7.82-22.37,16.75-29.69,29.09S195.38,266.73,194,281c-.84,8.89.59,16.59,2.31,25.24,1.25,6.27,1.65,16.76,6.68,21.35,9.59,8.76,17.55-26.77,19.32-31.06,1.28,7-.81,46.65,14.58,43.43,6.87-1.44,8.43-10.87,9.57-16.54,2.07-10.36,3.93-20.91,7.49-30.88,2.28,13.43,3.23,27.42,8.14,40.25,3.27,8.52,12.58,23.64,19.07,9.05,4.87-10.94,3.2-23.49,3.79-35.1.64-12.87,4.34-25.29,5.65-38,.5-4.94.05-10.5,5-13.2,4.26-2.31,10.48-3.06,15.13-4.35,13.78-3.83,27.64-7.34,41.35-11.4s27.24-8.8,40.77-13.43c12.94-4.43,26.15-6.95,39.25-10.74,7.45-2.15,14.8-4.41,22.35-6.21,3.52-.83,7.07-1.49,10.58-2.35,2.6-.65,6-3.07,8.7-3s3.78,2.38,6.93,2.56c3.4.2,6.85-.55,10.23-.81,8.22-.63,17-1.65,25.17-.51-4.93,5.85-11.59,9.89-17.43,14.74a164.4,164.4,0,0,0-19,18.22A521.76,521.76,0,0,0,447,279.93c-10,14.19-18.09,29.72-25.11,45.59a195,195,0,0,0-9.31,24.3c-1,3.41-1.8,6.84-3.59,9.94-1.64,2.85-4,5.3-2,8.74a34.45,34.45,0,0,0,3.74-2.88c-1.39,9.84-4.41,19.36-6,29.17s-1.47,19.61-1.37,29.37c.21,20.45,1.73,40.43,5.88,60.48a477.82,477.82,0,0,0,16.37,60c6.54,18.84,13.11,38.59,22.24,56.34,9.75,19,21.35,38.89,35.46,54.94-9.22,3.78-20.95,3.07-30.71,4.59a68,68,0,0,0-27.73,10.24c-8.8,5.71-13.58,13.07-14.79,23.49-.87,7.41-3.43,17.68,6.3,19.63,7,1.4,14.81-.9,21.83-1.47,12.26-1,24.54-1.62,36.83-2.15s24.52-1,36.79-1.39c5.76-.18,11.54-.27,17.3-.48a16.49,16.49,0,0,1,6.47.62c1.83.59,1.7,1.82,3.74.3,3.29-2.45,2.61-10.16,2.52-13.55A93.62,93.62,0,0,0,540.23,680c-.6-3-8-22.73-2.24-23.55-6.65-7.31-9.3-17.73-12.28-26.88a339.64,339.64,0,0,1-17.54-111.13c25.52,15.73,52.51,24.25,82.57,25.2,29.88.94,62.71-1.51,91.09-11.45A138.64,138.64,0,0,0,718,513.43c4-2.91,8.37-9.53,13.67-9.41,6.32.13,13.4,2.53,19.69,3.55,12,2,27.69,3.06,37.86,10.49,5.52,4,9.48,9.69,14.41,14.34,3.75,3.54,8.71,5.46,12.43,9,4,3.81,2.42,8.8,9.08,9.11,5.69.26,11.93-2,16.84-4.72,9.8-5.36,20.23-16.81,11.17-27.67" transform="translate(-161 -54)" fill-rule="evenodd"/><path id="react-path-227" d="M759,263c14.33,10.18,30.77,17.14,45.75,26.31,3.75,2.29,15.43,7.06,15.31,11.31-.06,2.49-3.57,5.61-5.11,7.34-2.63,2.95-5.11,5.94-7.54,9.07-11.12,14.31-21.59,28.76-33.65,42.36-1.81,2-7.28,11.81-9,7-.8-2.2-.14-4.67-2.22-6.72-1.07-1.06-5.22-1.64-4-3.91l2.41,1.09c-.62-1.81-.58-3.79-1.51-5.5-.59-1.07-1.73-1.57-2.12-2.77-.55-1.65.38-3.57.22-5.28s-1-3.31-1.56-4.91c-3.12-9.51-4.23-19.09-5.83-28.9s-4-19.11-5-28.93c-1-10.36-2.27-20.71-3.94-31,3,.41,5.27,3.65,7.38,5.48,3.31,2.88,6.9,5.45,10.48,8M747.78,363.4a5.69,5.69,0,0,1-1.6-2c7-3.48,2.78,2.46,1.6,2M743.51,356c-3.06.84-5.26,1-7.62-.25-.23-.12,0-1-.37-1.23s-.9,0-1.2-.11c-1-.53-2.83.62-3-1.38,3.91-1.2,7.75-3.4,11.88-3.78,5.73-.51,5.47,5.32.31,6.75m-13.42-11.54c-4.17,1-7.62,3.26-12.06,2.66-4.16-.56-7.78-2.72-11.07-5.21,8.22-2.33,16.85-2.75,25.06-5,2.68-.73,6.19-2.67,9.07-1.89,3.21.87,3.41,3.87,4.37,6.6-5.13.92-10.29,1.65-15.37,2.84M704,332.85c-4,1-8.11,3.06-11.47-.56-.54-.58-1,0-1-1.8s1.79-3.12,3.27-3.79c3.48-1.57,8.36-.55,12.06-.78,5.9-.37,11.9-1.6,17.74-2.54,4-.65,8.21-2.1,12.34-1.82,3.19.22,7,2.94,2.39,4.92-4.23,1.81-10.58,1.53-15.16,2.31-6.78,1.16-13.53,2.46-20.22,4.06M700,314l.78.79a7.67,7.67,0,0,1,2-1.32c2-.18,4.08,0,6.12-.16a103.81,103.81,0,0,0,14-2c3.76-.73,7.58-2,11.45-1.68,3.35.27,3.7,1,3.92,4.19-8.55,0-17.35-.18-25.75,1.63-5.47,1.17-11.49,4.68-14.23-1.64L700,314m5.34-13.68c2.12,1.61,7.9-1.07,10.44-1.34a54.15,54.15,0,0,0,8-1.28c2.37-.61,10.21-3.66,12-.74,2.78,4.46-8.5,5.28-10.29,5.5-7.5.93-15.29,1.75-22.59,3.72.79-2,1.59-3.91,2.38-5.86m10.3-15.16c.54,2.06,17.51-5.54,17.82,0,.24,4.24-16.79,6.35-19.85,6,.72-2,2.63-3.7,2-6m5.69-13c.36-4.16.92-4.13,4.26-4.53,2.54-.29,6-1.79,5.38,2.75-.57,3.88-10,6-9.64,1.78m6.07-14.31c.8-2.24,2.61.77,2.65,1.91.1,3-2.19,2.36-4.4,2.36.61-1.41,1.2-2.84,1.75-4.27m27.93-16.77c-.45-.54-3-.75-3.7-1-1.77-.65-1.52-2-3.78-.67-.11-.12.1-1.14,0-1.19a17.58,17.58,0,0,1-2.16-1,28.38,28.38,0,0,1-3.51-2.57,32.69,32.69,0,0,0-3.81-3.45,5.21,5.21,0,0,0-1.77-1c-1.83-.28-1.31,1-2.91,1.25-1,.15-1.7-1-3-.5-1.11.43-1.75,2-2.25,2.92-1.8,3.38-3.19,7-5,10.43-9,17.48-19.28,34.29-28,51.92-4.21,8.5-8.6,17-11.57,26.08-2.13,6.51-7,16-2.81,22.53,3,4.74,9.07,6.78,13.89,9.06,7.26,3.44,14,7.94,21.28,11.28,8.75,4,17.25,8.13,25.78,12.57,3.63,1.9,6.92,4.63,10.54,6.42,2.22,1.1,5.64-.78,6.36,1.74,2.78-3.37,7.28-1.12,10.5-3.49,1.89-1.4,3.27-4.14,4.85-5.86,2.36-2.57,4.93-5,7.34-7.49,9.58-10.05,18.43-20.51,27.15-31.3,8.32-10.3,18.05-20,25.08-31.31a15.28,15.28,0,0,0,1.46-14.12c-1.35-3.61-4.59-9.06-9.22-6.67,1.76-2.91-5-6-7.07-6.6,0,0-.44,2.24-1,2.18.2,0-1.72-5-2.57-5.6a84.13,84.13,0,0,0-8.31-5.69c-2.51-1.43-5.16-2.14-7.6-3.75-2.95-1.94-5.66-4.25-8.62-6.19a58.2,58.2,0,0,0-9.22-5.35c-2.74-1.11-5.2-1.33-7.67-3.16a45.68,45.68,0,0,0-9.23-5.34c-3-1.34-7.27-2.52-9.44-5.15" transform="translate(-161 -54)" fill-rule="evenodd"/><path id="react-path-228" d="M339.71,511.32l1.68-3.94c.69,2.29.88,3.43-1.68,3.94m.74,6.07c-1.21.22-.73-3.58-.73-4.25,2.09,1.19.36,2.61.73,4.25m-1.89-11,3.1-1.84c-1.44,2.67-.87,1-.28,2.79a2.56,2.56,0,0,1-2.82-.95m-6.13,20.85c-3.87,14.06-16.18,25.15-29.19,30.9-7.47,3.3-14.81,4.12-22.88,3.76-3.11-.15-6.78-1.16-9.77-1-2.31.15-2.2.25-4.11,2.2-.85-1.56-.24-2.65-1.93-3.56-2.12-1.13-3,.19-4,1.76a11,11,0,0,0-3.72-3c.06,0-1.7,0-1.63,0-.32-.1-2.23-1.33-2.83-1.56-2.46-.92-5.3-1.3-7.57-2.62-2-1.16-3.61-4.4-5.88-1.91,0-4.16-5.62-5.89-8.24-8.07a35.59,35.59,0,0,1-9.43-13.33c-2.18-5.21-2.91-10.2-3.93-15.56-.72-3.75-5.39-9.17-2.58-12.95.67,1.59.35,3.21,1.46,4.65a24.61,24.61,0,0,0,2-6.19c.23-1,1.51-4.07,1.37-5-.3-1.84-2.58-1.94-1.32-4.2,2.63,2.85,4.74-2.16,2.76-4.15a9.66,9.66,0,0,0-1.79,3.72c-2.58-5.2,4.56-3.53,3-8.23,2.6-.5,4.1-1.15,5.09-3.73,1.1-2.86.29-3.48,2.79-5.38.86-.65,3.29-1.58,3.74-2.65.86-2.07-1.33-2.68.59-4.62.64,1.14,3.17,3.39,4.55,1.25.28-.43-.88-.73,0-1.72,1.26-1.45,2.66-2.88,4.78-2.57-1.68-4.2,9-4.53,11.79-5.52a29,29,0,0,1,8-1.87c2.92-.23,3.06-1.09,5.53-2.84.21,2.51.81,2,2.6,2.4.43-.74.87-.82,1.32-.25a2.12,2.12,0,0,0,1.64.6c1,.05,2.09-.07,3.12-.05,2.41,0,4.9-.16,7.26-.11a4.89,4.89,0,0,0,1.72-.63l.66,1.26c1.26.16,1.35,1.73,2.9,0,.45,2.18,1.76,1,3.15,1.64s1.46,1.4,2.62,2a2.09,2.09,0,0,0,2.47.24c.83.62,1.68,1.22,2.54,1.81a52.23,52.23,0,0,0,5.12,2.15c1.12.46,2.22.93,3.31,1.43,0,1.32.63,1.79,1.78,1.4a7.88,7.88,0,0,1,2.35,2.32,63,63,0,0,0,7.2,9c12.57,13.06,16.42,31.53,11.67,48.76m3.86-55.53c-5.67-7.6-13.7-16.29-20.91-21.09-3.66-2.43-8.79-6.8-13.26-8.08-1.06-.31-2.16-.33-3.2-.65-.8-.25-1.24-1.07-2.16-1.22-.64-.11-.71,1.33-1.4,1.2-1.42-.28-2.33-1.69-3.33-2.58-2.17,3.73-3.34-2.54-6.52,1.67-3.78-5.92-12.66-4.63-18.69-4.33-1.79.09-2.63.73-4.22,1.2a7.58,7.58,0,0,1-3.24.31,24.68,24.68,0,0,0-11.29,2.24c-6.24,3-12,7.58-17.89,11.15a74.23,74.23,0,0,0-17.66,14.91c-18.31,21.11-23.21,51.91-8.61,76.38,23.2,38.86,83,43,116.93,16.65,26.2-20.38,36.16-60,15.45-87.76" transform="translate(-161 -54)" fill-rule="evenodd"/><path id="react-path-229" d="M623.38,362.38c-.65,1.55-6.73,1-6.86-.8-.2-2.74,8-1.9,6.86.8m6.46-1c3.44.28,9.1,2.62,12.42,1.21,5.07-2.16-.25-5.47-3-6.46s-6.89-.47-8.31-3.37c-1.07-2.17,1.57-8.24-1.71-7.27-3.44,1-2.44,9.72-7.84,6.79-2.57-1.4-1.52-9.92-5.84-5.56-1.18,1.19-1.28,3.37-2.85,4.26s-3.59,0-5.28,0c-4.46.21-5.88,4.38-1.36,6,1.67.61,8,1.36,4.16,4.09-2.41,1.73-7.76-1.89-9.82,1.11-2.84,4.12,4.77,4.21,6.81,5.44,3.46,2.09.6,7,.88,10.43.42,5.3,3.5,4.2,4.62-.29,1-3.81-.23-9.29,5.51-7.77,9.35,2.46-5.19,14.32,1.65,17.36,4.37,1.94,5-8.53,5.32-10.33,1.26-6.65,5-5.1,10.66-4.9,6.61.24,8.2-4.65,1.2-6.05-2.23-.45-5.31.12-7.25-1.3-1.14-.85-2.72-3.69,0-3.47" transform="translate(-161 -54)" fill-rule="evenodd"/><path id="react-path-230" d="M385.71,578.66c-5.35-1.92-14.3-1.51-15.63,5.4a9.4,9.4,0,0,0,2.53,8.06c2.31,2.44,6,2.66,5.81-1.58-.14-2.94-2.94-5.49,2-6.08,3.06-.37,7.58,1.92,7.73,5.3.35,7.61-12.83,8.21-17.69,6.89-9.64-2.61-7-12.71-.4-17.32,1.71-1.19,6.61-3,6.84-5.5.3-3.28-3.76-2.61-5.75-2.17-14.61,3.18-17.8,27.66-2.53,32.27,6.94,2.1,16.7-.07,20.88-6.35,3.92-5.88,4-16.15-3.77-18.92" transform="translate(-161 -54)" fill-rule="evenodd"/><path id="react-path-231" d="M192,405.36,178.25,412c-1.51-3.23-4.06-12.06-7.89-13.19-6.2-1.82-2.25,7.8-1.18,10,.88,1.81,2.92,4.61,2.42,6.76-.66,2.9-4.75,3.93-6.9,5.43-5.3,3.7-5.26,11.49,2.42,8.19,4.35-1.87,9.73-7,13.06-1.17,1.54,2.71,5.18,17.87,9,8,2.35-6.14-9-12.51-3.39-17.7,1.79-1.67,3.9-1.81,5.7-2.77,4.34-2.32,1.89-6.61.48-10.11" transform="translate(-161 -54)" fill-rule="evenodd"/><path id="react-path-232" d="M861.64,185.82c-2.72-1-6.09-2.94-9.12-2.28-3.21.71-4.51,3.93-6.85,5.87-6.36,5.26-10.06-2.59-13.55-6.89-3.3-4.06-7.33-5.05-12-2.55-1.85,1-9.67,5.55-8.3,8.47,1,2.11,4.84.22,6.16-.24,2.85-1,5.51-1.87,8.43-.42,5.49,2.72,6.91,10.18,13.55,11.35,6.86,1.2,7.08-5.33,12-7.79,3.28-1.65,5.57,1.27,8.74.69,3-.55,4.41-4.95.95-6.21" transform="translate(-161 -54)" fill-rule="evenodd"/><path id="react-path-233" d="M806.24,212.14c2.43.52,4-4.18,5.53-5.38,2.52-2,6.89-2.37,9.46-.38,5,3.89,3.28,12.28,10.42,14.47,6.37,2,9.38-6.45,14.75-8.54,3.12-1.21,6.54-2,5.33-6.37-.85-3-3.32-3.79-6-2.63-4.63,2-6.2,10.09-11.69,10.24-5.68.15-6.29-8-8.73-11.61-3.72-5.43-11.36-6.74-15.7-1.55-1.31,1.57-8,10.75-3.35,11.75" transform="translate(-161 -54)" fill-rule="evenodd"/><path id="react-path-234" d="M694,119.33c3.37,2.31,10.1,2.23,13.21-.64s-1.06-3.36-3.64-3.27c-2,.07-5.69,1-4.56-2.38,1-3,6.51-1.49,7-4.82-4.15-.75-8.72-.48-11.78,2.78-2.22,2.36-3.36,6.16-.2,8.33" transform="translate(-161 -54)" fill-rule="evenodd"/></g></g></g></svg>